<svg width="100%" height="100%" style="overflow:visible;" preserveAspectRatio="none" viewBox="0 0 22 22" fill="none" xmlns="http://www.w3.org/2000/svg">
<path d="M11.0002 19.25C10.4089 18.7257 9.74068 18.1802 9.03393 17.6H9.02477C6.53602 15.565 3.71543 13.2623 2.46968 10.5032C2.06041 9.62474 1.84351 8.66903 1.83351 7.69999C1.83077 6.37035 2.36406 5.09573 3.31284 4.1642C4.26163 3.23266 5.54582 2.72285 6.87518 2.74999C7.95743 2.7517 9.01637 3.06448 9.92585 3.65108C10.3255 3.91046 10.6871 4.22423 11.0002 4.58333C11.315 4.22564 11.6767 3.91206 12.0754 3.65108C12.9845 3.06437 14.0432 2.75157 15.1252 2.74999C16.4545 2.72285 17.7387 3.23266 18.6875 4.1642C19.6363 5.09573 20.1696 6.37035 20.1669 7.69999C20.1575 8.67057 19.9406 9.62792 19.5307 10.5077C18.2849 13.2669 15.4653 15.5687 12.9765 17.6L12.9674 17.6073C12.2597 18.1839 11.5924 18.7293 11.0011 19.2573L11.0002 19.25ZM6.87518 4.58333C6.02132 4.57264 5.19775 4.89943 4.58352 5.49266C3.9917 6.07398 3.66094 6.87045 3.66677 7.69999C3.67723 8.40629 3.83719 9.10236 4.13618 9.74233C4.72423 10.9328 5.5177 12.0102 6.4801 12.925C7.38852 13.8417 8.43352 14.729 9.33735 15.4752C9.5876 15.6814 9.84243 15.8895 10.0973 16.0976L10.2577 16.2287C10.5024 16.4285 10.7554 16.6357 11.0002 16.8392L11.0121 16.8282L11.0176 16.8236H11.0231L11.0314 16.8172H11.0359H11.0405L11.057 16.8034L11.0946 16.7732L11.101 16.7677L11.1111 16.7603H11.1166L11.1249 16.753L11.7335 16.2534L11.893 16.1223C12.1506 15.9124 12.4054 15.7043 12.6557 15.4981C13.5595 14.7519 14.6054 13.8655 15.5139 12.9442C16.4764 12.0299 17.2699 10.9528 17.8578 9.76249C18.1622 9.11698 18.3244 8.41362 18.3336 7.69999C18.3373 6.87301 18.0067 6.07959 17.4169 5.49999C16.8038 4.90409 15.9801 4.5746 15.1252 4.58333C14.0819 4.57446 13.0846 5.01175 12.3844 5.78508L11.0002 7.38008L9.61602 5.78508C8.91574 5.01175 7.91842 4.57446 6.87518 4.58333Z" fill="#8C98B7"/>
</svg>
