<svg width="100%" height="100%" style="overflow:visible;" preserveAspectRatio="none" viewBox="0 0 5.02 6.42" fill="none" xmlns="http://www.w3.org/2000/svg">
<path d="M1.7692 3.27421C1.95122 3.31203 2.11467 3.33056 2.35464 3.33056C3.29445 3.33056 3.92768 2.73502 3.92768 1.97869C3.92768 1.29825 3.43858 1.05282 2.80586 1.05282C2.527 1.05282 2.316 1.07185 2.18178 1.10917L1.7692 3.27421ZM1.24147 0.32479C1.63498 0.229874 2.22042 0.173525 2.79595 0.173525C3.40071 0.173525 4.03394 0.29599 4.45592 0.627321C4.83012 0.910818 5.05077 1.32605 5.05077 1.89404C5.05077 2.64987 4.68598 3.26495 4.22536 3.62383C3.70754 4.03029 2.96805 4.22889 2.20059 4.22889C1.97003 4.22889 1.7692 4.20009 1.59634 4.18156L1.12606 6.59229H0.0327148L1.24147 0.32479Z" fill="black"/>
</svg>
