<svg width="100%" height="100%" style="overflow:visible;" preserveAspectRatio="none" viewBox="0 0 4.15 4.81" fill="none" xmlns="http://www.w3.org/2000/svg">
<path d="M2.88552 1.70668C2.18467 1.70668 1.72456 2.321 1.59034 2.87923C2.74139 2.8885 3.48088 2.73723 3.48088 2.17976C3.48088 1.88674 3.24091 1.70668 2.88552 1.70668ZM3.95065 5.32728C3.48977 5.56344 2.86671 5.69592 2.30008 5.69592C1.00591 5.69592 0.381836 4.9118 0.381836 3.78657C0.381836 2.39689 1.41748 0.884483 3.02966 0.884483C3.95065 0.884483 4.53609 1.40414 4.53609 2.17976C4.53609 3.36108 3.27954 3.73899 1.47569 3.70142C1.45612 3.86196 1.4945 4.17375 1.60025 4.35357C1.78277 4.66587 2.11756 4.8264 2.55963 4.8264C3.08787 4.8264 3.50935 4.69392 3.84617 4.52387L3.95065 5.32728Z" fill="black"/>
</svg>
