<svg width="100%" height="100%" style="overflow:visible;" preserveAspectRatio="none" viewBox="0 0 4.71 4.81" fill="none" xmlns="http://www.w3.org/2000/svg">
<path d="M4.01497 1.78212C3.90007 1.75332 3.75644 1.73504 3.55485 1.73504C2.52811 1.73504 1.72202 2.87929 1.72202 3.92863C1.72202 4.40998 1.90429 4.80743 2.39389 4.80743C2.92112 4.80743 3.55485 4.16505 3.77551 2.99249L4.01497 1.78212ZM3.56426 5.5923C3.56426 5.31757 3.60239 4.94942 3.64128 4.56124H3.62197C3.1616 5.40322 2.53752 5.69598 1.94267 5.69598C1.10811 5.69598 0.560547 5.05311 0.560547 4.12698C0.560547 2.55773 1.67372 0.884293 3.85202 0.884293C4.36044 0.884293 4.90749 0.978709 5.27228 1.09216L4.78293 3.49337C4.6482 4.17381 4.57168 5.04384 4.591 5.5923H3.56426Z" fill="black"/>
</svg>
