<svg width="100%" height="100%" style="overflow:visible;" preserveAspectRatio="none" viewBox="0 0 14.42 13" fill="none" xmlns="http://www.w3.org/2000/svg">
<path d="M1.65271 1.55673C1.69923 2.59555 2.61031 6.55975 2.61031 6.55975C2.9451 7.36266 3.23337 6.55975 3.23337 6.55975C4.33561 3.30304 2.08308 1.41573 2.08308 1.41573C1.50806 1.08465 1.65271 1.55673 1.65271 1.55673ZM14.7314 0.990734C14.7314 0.990734 15.8342 1.74581 14.7314 1.88731C14.7314 1.88731 10.611 2.35913 7.54498 5.19185C7.54498 5.19185 2.9451 9.15531 1.22081 13.4979C1.22081 13.4979 0.645793 13.4979 0.838228 12.6487C1.02965 11.7992 2.17892 8.07015 7.30475 3.49262C7.30475 3.49262 12.241 -0.944411 14.7314 0.990734Z" fill="#FF4600"/>
</svg>
