<svg width="100%" height="100%" style="overflow:visible;" preserveAspectRatio="none" viewBox="0 0 4.63 4.71" fill="none" xmlns="http://www.w3.org/2000/svg">
<path d="M0.287109 5.59229L0.891869 2.41571C1.00677 1.86725 1.07388 1.38515 1.13159 0.988459H2.13011L2.02436 1.8109H2.04317C2.47456 1.19607 3.06992 0.884276 3.72247 0.884276C4.39383 0.884276 4.91216 1.28172 4.91216 2.15125C4.91216 2.35886 4.87453 2.68018 4.82623 2.90732L4.3168 5.59229H3.19422L3.69272 2.99247C3.72247 2.82243 3.75094 2.62383 3.75094 2.44401C3.75094 2.05633 3.60706 1.7821 3.16575 1.7821C2.65734 1.7821 2.00453 2.38691 1.8032 3.4653L1.40028 5.59229H0.287109Z" fill="black"/>
</svg>
