<svg width="100%" height="100%" style="overflow:visible;" preserveAspectRatio="none" viewBox="0 0 4.16 4.81" fill="none" xmlns="http://www.w3.org/2000/svg">
<path d="M3.23172 1.70668C2.53163 1.70668 2.07075 2.321 1.93653 2.87923C3.08758 2.8885 3.82707 2.73723 3.82707 2.17976C3.82707 1.88674 3.5871 1.70668 3.23172 1.70668ZM4.29685 5.32728C3.83673 5.56344 3.21291 5.69592 2.64729 5.69592C1.35211 5.69592 0.728027 4.9118 0.728027 3.78657C0.728027 2.39689 1.76367 0.884483 3.37585 0.884483C4.29685 0.884483 4.8833 1.40414 4.8833 2.17976C4.8833 3.36108 3.62574 3.73899 1.82188 3.70142C1.80205 3.86196 1.84069 4.17375 1.94644 4.35357C2.12896 4.66587 2.46452 4.8264 2.90582 4.8264C3.43407 4.8264 3.85554 4.69392 4.19237 4.52387L4.29685 5.32728Z" fill="black"/>
</svg>
