<svg width="100%" height="100%" style="overflow:visible;" preserveAspectRatio="none" viewBox="0 0 1 1" fill="none" xmlns="http://www.w3.org/2000/svg">
<path d="M0.185543 0.40952H0.267396C0.351283 0.40952 0.4067 0.363439 0.4067 0.293817C0.4067 0.215429 0.348487 0.181119 0.2646 0.181119C0.225961 0.181119 0.198507 0.183874 0.185543 0.186879V0.40952ZM0.105469 0.131783C0.146141 0.12452 0.204354 0.119261 0.258499 0.119261C0.343403 0.119261 0.399836 0.136291 0.437204 0.169349C0.467963 0.196146 0.485757 0.237969 0.485757 0.286053C0.485757 0.365192 0.43517 0.418786 0.370094 0.440073V0.443079C0.417376 0.459107 0.445084 0.502933 0.460845 0.566044C0.480673 0.650192 0.495417 0.709546 0.508381 0.733337H0.425511C0.415597 0.714805 0.401615 0.663465 0.385855 0.587582C0.367044 0.503434 0.332726 0.47238 0.260533 0.469375H0.185543V0.733337H0.105469V0.131783Z" fill="black"/>
</svg>
