<svg width="100%" height="100%" style="overflow:visible;" preserveAspectRatio="none" viewBox="0 0 38 11.4" fill="none" xmlns="http://www.w3.org/2000/svg">
<path d="M16.4664 11.5354H13.3882L15.3136 0.499878H18.3916L16.4664 11.5354Z" fill="#00579F"/>
<path d="M27.6256 0.769813C27.0184 0.546525 26.0554 0.299988 24.8646 0.299988C21.8247 0.299988 19.684 1.80262 19.6709 3.95092C19.6457 5.53594 21.2036 6.41629 22.3688 6.94479C23.5597 7.48483 23.9645 7.83731 23.9645 8.31868C23.9524 9.05798 23.0022 9.39877 22.1159 9.39877C20.8869 9.39877 20.2284 9.22307 19.2277 8.81176L18.8224 8.63544L18.3916 11.1127C19.1136 11.4176 20.4437 11.6881 21.8247 11.7C25.0546 11.7 27.1574 10.2206 27.1823 7.93125C27.1946 6.675 26.372 5.71241 24.5985 4.92583C23.5218 4.4209 22.8625 4.08043 22.8625 3.5638C22.8751 3.09413 23.4201 2.61307 24.6355 2.61307C25.6362 2.58951 26.3715 2.81248 26.9285 3.03561L27.2069 3.1528L27.6256 0.769813Z" fill="#00579F"/>
<path d="M31.7167 7.62589C31.9702 6.99192 32.9457 4.53825 32.9457 4.53825C32.9329 4.56181 33.1987 3.89257 33.3507 3.48173L33.5658 4.43261C33.5658 4.43261 34.1487 7.07415 34.2753 7.62589C33.7942 7.62589 32.3247 7.62589 31.7167 7.62589ZM35.5164 0.499878H33.1354C32.4011 0.499878 31.8433 0.699292 31.5265 1.4155L26.9541 11.5352H30.184C30.184 11.5352 30.7158 10.1732 30.8301 9.87983C31.1844 9.87983 34.3265 9.87983 34.7823 9.87983C34.8707 10.2673 35.1496 11.5352 35.1496 11.5352H37.9998L35.5164 0.499878Z" fill="#00579F"/>
<path d="M10.8173 0.499878L7.80262 8.02503L7.47319 6.49884C6.91585 4.73782 5.1679 2.8245 3.21729 1.87315L5.97858 11.5237H9.23376L14.0723 0.499878H10.8173Z" fill="#00579F"/>
<path d="M5.0033 0.499878H0.0506673L0 0.722853C3.86336 1.63863 6.42199 3.84607 7.47321 6.49931L6.39657 1.42751C6.21932 0.722697 5.6746 0.523127 5.0033 0.499878Z" fill="#FAA61A"/>
</svg>
