<svg width="100%" height="100%" style="overflow:visible;" preserveAspectRatio="none" viewBox="0 0 11.42 13.47" fill="none" xmlns="http://www.w3.org/2000/svg">
<path d="M3.56854 13.018L3.80207 11.5347L3.28187 11.5226H0.797852L2.52411 0.576944C2.52947 0.543901 2.54689 0.513091 2.57234 0.491211C2.59779 0.469332 2.63039 0.457275 2.66432 0.457275H6.85272C8.2432 0.457275 9.20278 0.746623 9.70378 1.31773C9.93865 1.58564 10.0882 1.86561 10.1606 2.17372C10.2365 2.497 10.2378 2.88324 10.1637 3.35433L10.1583 3.38871V3.69056L10.3932 3.82362C10.591 3.92856 10.7482 4.04867 10.8688 4.1862C11.0697 4.41527 11.1996 4.7064 11.2546 5.05156C11.3113 5.40655 11.2925 5.82896 11.1996 6.30719C11.0925 6.85731 10.9192 7.33643 10.6852 7.72848C10.47 8.08972 10.1958 8.38934 9.87033 8.62153C9.55955 8.84211 9.19028 9.00956 8.77278 9.11672C8.36823 9.2221 7.90697 9.27524 7.40105 9.27524H7.07509C6.84201 9.27524 6.61562 9.35919 6.4379 9.50967C6.25974 9.66327 6.14186 9.87314 6.10569 10.1026L6.08113 10.2362L5.66854 12.8506L5.64979 12.9466C5.64487 12.9769 5.63639 12.9921 5.62389 13.0024C5.61272 13.0118 5.59665 13.018 5.58102 13.018H3.56854Z" fill="#253B80"/>
<path d="M10.6157 3.42346C10.6032 3.50339 10.5889 3.5851 10.5728 3.66905C10.0204 6.50493 8.13075 7.4846 5.71728 7.4846H4.48845C4.19329 7.4846 3.94458 7.69893 3.89859 7.99007L3.26944 11.9802L3.09127 13.1113C3.06136 13.3024 3.20871 13.4747 3.40161 13.4747H5.58109C5.83918 13.4747 6.05843 13.2872 6.09906 13.0327L6.12049 12.9219L6.53085 10.3178L6.55719 10.1749C6.59738 9.9195 6.81707 9.73196 7.07516 9.73196H7.40113C9.51274 9.73196 11.1658 8.87463 11.6489 6.39374C11.8507 5.35736 11.7463 4.49199 11.2122 3.88338C11.0506 3.69986 10.8501 3.5476 10.6157 3.42346Z" fill="#179BD7"/>
<path d="M10.0377 3.19313C9.95331 3.16857 9.86624 3.14624 9.77693 3.12615C9.68718 3.1065 9.5952 3.08909 9.50053 3.07391C9.16921 3.02032 8.80619 2.99487 8.41726 2.99487H5.13442C5.0536 2.99487 4.97679 3.01318 4.90803 3.04622C4.75666 3.11901 4.64413 3.26234 4.6169 3.43783L3.91853 7.8611L3.89844 7.99014C3.94443 7.69901 4.19314 7.48468 4.4883 7.48468H5.71713C8.1306 7.48468 10.0203 6.50455 10.5726 3.66913C10.5892 3.58518 10.603 3.50346 10.6155 3.42354C10.4757 3.34941 10.3244 3.28601 10.1614 3.23198C10.1212 3.21858 10.0797 3.20563 10.0377 3.19313Z" fill="#222D65"/>
<path d="M4.6171 3.43779C4.64434 3.26231 4.75686 3.11897 4.90823 3.04664C4.97744 3.01359 5.0538 2.99529 5.13462 2.99529H8.41747C8.80639 2.99529 9.16942 3.02074 9.50074 3.07432C9.5954 3.0895 9.68738 3.10692 9.77713 3.12656C9.86644 3.14666 9.95351 3.16898 10.0379 3.19354C10.0799 3.20605 10.1214 3.21899 10.162 3.23194C10.325 3.28597 10.4764 3.34983 10.6162 3.4235C10.7805 2.37551 10.6148 1.66196 10.0482 1.01584C9.42349 0.30453 8.29601 0 6.85329 0H2.66489C2.37019 0 2.1188 0.214332 2.07325 0.505912L0.328679 11.5641C0.294297 11.7829 0.463083 11.9802 0.683666 11.9802H3.26949L3.91874 7.86106L4.6171 3.43779Z" fill="#253B80"/>
</svg>
