<svg width="100%" height="100%" style="overflow:visible;" preserveAspectRatio="none" viewBox="0 0 26.65 7.1" fill="none" xmlns="http://www.w3.org/2000/svg">
<path d="M3.37401 0.900024H1.30132C1.15948 0.900024 1.03886 1.00307 1.01674 1.14309L0.178445 6.45802C0.161777 6.56288 0.242999 6.65744 0.349376 6.65744H1.3389C1.48073 6.65744 1.60136 6.55439 1.62348 6.41407L1.84957 4.98055C1.87139 4.84023 1.99232 4.73719 2.13385 4.73719H2.79C4.15532 4.73719 4.9433 4.0765 5.14909 2.76724C5.24183 2.19443 5.15303 1.74438 4.88481 1.42918C4.59023 1.08308 4.06774 0.900024 3.37401 0.900024ZM3.61313 2.84118C3.49978 3.58492 2.93153 3.58492 2.38206 3.58492H2.0693L2.28872 2.19595C2.30175 2.112 2.37449 2.05017 2.45935 2.05017H2.6027C2.97699 2.05017 3.33006 2.05017 3.51251 2.26353C3.62131 2.39082 3.65465 2.57994 3.61313 2.84118Z" fill="#253B80"/>
<path d="M9.56954 2.81655H8.57699C8.49243 2.81655 8.41939 2.87838 8.40636 2.96233L8.36241 3.23994L8.29301 3.13932C8.07813 2.82746 7.59898 2.72321 7.12074 2.72321C6.02393 2.72321 5.08714 3.55392 4.90469 4.71922C4.80983 5.30051 4.9447 5.85634 5.27444 6.24396C5.5769 6.60037 6.00968 6.74888 6.5246 6.74888C7.40835 6.74888 7.89841 6.18062 7.89841 6.18062L7.85416 6.45641C7.8375 6.56188 7.91872 6.65644 8.02449 6.65644H8.91854C9.06068 6.65644 9.1807 6.5534 9.20313 6.41308L9.73956 3.01597C9.75653 2.91141 9.67561 2.81655 9.56954 2.81655ZM8.18603 4.74832C8.09026 5.31536 7.6402 5.69601 7.06618 5.69601C6.77796 5.69601 6.54763 5.60358 6.39973 5.4284C6.25305 5.25444 6.19728 5.00683 6.24396 4.73104C6.33336 4.16885 6.791 3.77577 7.35622 3.77577C7.63808 3.77577 7.8672 3.86941 8.01812 4.0461C8.16936 4.22461 8.22936 4.47373 8.18603 4.74832Z" fill="#253B80"/>
<path d="M14.8559 2.81653H13.8585C13.7633 2.81653 13.6739 2.86381 13.62 2.94291L12.2443 4.96923L11.6612 3.02201C11.6245 2.90018 11.5121 2.81653 11.3848 2.81653H10.4047C10.2856 2.81653 10.2028 2.93291 10.2407 3.04504L11.3394 6.2691L10.3065 7.72716C10.2253 7.84203 10.3071 7.99993 10.4474 7.99993H11.4436C11.5382 7.99993 11.6267 7.95386 11.6803 7.87627L14.9977 3.08778C15.0771 2.97322 14.9956 2.81653 14.8559 2.81653Z" fill="#253B80"/>
<path d="M18.1577 0.899353H16.0847C15.9432 0.899353 15.8226 1.0024 15.8004 1.14241L14.9621 6.45734C14.9455 6.56221 15.0267 6.65676 15.1325 6.65676H16.1962C16.295 6.65676 16.3796 6.58463 16.3951 6.48644L16.633 4.97988C16.6548 4.83956 16.7757 4.73652 16.9172 4.73652H17.5731C18.9387 4.73652 19.7264 4.07582 19.9325 2.76656C20.0255 2.19376 19.9361 1.7437 19.6679 1.42851C19.3736 1.08241 18.8514 0.899353 18.1577 0.899353ZM18.3968 2.84051C18.2838 3.58425 17.7155 3.58425 17.1658 3.58425H16.8533L17.073 2.19528C17.086 2.11133 17.1582 2.0495 17.2433 2.0495H17.3867C17.7607 2.0495 18.1141 2.0495 18.2965 2.26286C18.4053 2.39015 18.4383 2.57927 18.3968 2.84051Z" fill="#179BD7"/>
<path d="M24.3534 2.81655H23.3615C23.2763 2.81655 23.2039 2.87838 23.1911 2.96233L23.1472 3.23994L23.0775 3.13932C22.8626 2.82746 22.3838 2.72321 21.9055 2.72321C20.8087 2.72321 19.8722 3.55392 19.6898 4.71922C19.5952 5.30051 19.7295 5.85634 20.0592 6.24396C20.3623 6.60037 20.7945 6.74888 21.3094 6.74888C22.1931 6.74888 22.6832 6.18062 22.6832 6.18062L22.6389 6.45641C22.6223 6.56188 22.7035 6.65644 22.8099 6.65644H23.7036C23.8452 6.65644 23.9658 6.5534 23.9879 6.41308L24.5246 3.01597C24.541 2.91141 24.4598 2.81655 24.3534 2.81655ZM22.9699 4.74832C22.8747 5.31536 22.4241 5.69601 21.85 5.69601C21.5624 5.69601 21.3315 5.60358 21.1836 5.4284C21.0369 5.25444 20.9817 5.00683 21.0278 4.73104C21.1178 4.16885 21.5749 3.77577 22.1401 3.77577C22.4219 3.77577 22.6511 3.86941 22.802 4.0461C22.9538 4.22461 23.0138 4.47373 22.9699 4.74832Z" fill="#179BD7"/>
<path d="M25.5238 1.04513L24.6731 6.45734C24.6564 6.5622 24.7376 6.65676 24.8434 6.65676H25.6987C25.8408 6.65676 25.9614 6.55372 25.9832 6.4134L26.8221 1.09877C26.8388 0.993909 26.7576 0.899048 26.6518 0.899048H25.6941C25.6096 0.899351 25.5368 0.961177 25.5238 1.04513Z" fill="#179BD7"/>
</svg>
