<svg width="100%" height="100%" style="overflow:visible;" preserveAspectRatio="none" viewBox="0 0 32.35 20" fill="none" xmlns="http://www.w3.org/2000/svg">
<path d="M21.3635 17.8645H12.6143V2.14069H21.3635V17.8645Z" fill="#FF5F00"/>
<path d="M13.1748 10.0013C13.1748 6.81169 14.6682 3.97044 16.9938 2.13943C15.2931 0.800504 13.1468 0.00134331 10.8142 0.00134331C5.29187 0.00134331 0.81543 4.47842 0.81543 10.0013C0.81543 15.5243 5.29187 20.0013 10.8142 20.0013C13.1468 20.0013 15.2931 19.2022 16.9938 17.8633C14.6682 16.0322 13.1748 13.191 13.1748 10.0013Z" fill="#EB001B"/>
<path d="M33.1634 10.0013C33.1634 15.5243 28.687 20.0013 23.1647 20.0013C20.832 20.0013 18.6857 19.2022 16.9844 17.8633C19.3107 16.0322 20.8041 13.191 20.8041 10.0013C20.8041 6.81169 19.3107 3.97044 16.9844 2.13943C18.6857 0.800504 20.832 0.00134331 23.1647 0.00134331C28.687 0.00134331 33.1634 4.47842 33.1634 10.0013Z" fill="#F79E1B"/>
</svg>
