<svg width="100%" height="100%" style="overflow:visible;" preserveAspectRatio="none" viewBox="0 0 22 13.47" fill="none" xmlns="http://www.w3.org/2000/svg">
<path d="M21.8251 4.97907C21.6693 4.77965 21.4304 4.66333 21.1772 4.66333H5.0798L4.33914 1.56441C4.25054 1.1941 3.91942 0.932678 3.53867 0.932678H0.822942C0.368416 0.932635 0 1.30105 0 1.75558C0 2.2101 0.368416 2.57852 0.822942 2.57852H2.88911L5.56367 13.7695C5.65227 14.1401 5.98339 14.4012 6.36414 14.4012H19.1747C19.553 14.4012 19.8827 14.1434 19.9735 13.7763L21.976 5.68402C22.0366 5.43828 21.9809 5.17849 21.8251 4.97907ZM18.5309 12.7554H7.0137L5.47313 6.30922H20.1257L18.5309 12.7554Z" fill="#8C98B7"/>
</svg>
