<svg width="100%" height="100%" style="overflow:visible;" preserveAspectRatio="none" viewBox="0 0 22 22" fill="none" xmlns="http://www.w3.org/2000/svg">
<path d="M11 1.37512C5.68477 1.37512 1.375 5.68489 1.375 11.0001C1.375 16.3154 5.68477 20.6251 11 20.6251C16.3152 20.6251 20.625 16.3154 20.625 11.0001C20.625 5.68489 16.3152 1.37512 11 1.37512ZM11 18.9923C6.58711 18.9923 3.00781 15.413 3.00781 11.0001C3.00781 6.58723 6.58711 3.00793 11 3.00793C15.4129 3.00793 18.9922 6.58723 18.9922 11.0001C18.9922 15.413 15.4129 18.9923 11 18.9923ZM11.1203 7.54758C12.259 7.54758 13.0324 8.27376 13.1184 9.33938C13.1248 9.42961 13.2 9.49836 13.2902 9.49836H14.5084C14.5643 9.49836 14.6094 9.45325 14.6094 9.39739C14.6094 7.53469 13.1398 6.23059 11.1139 6.23059C8.75273 6.23059 7.39062 7.82473 7.39062 10.4587V11.5823C7.39062 14.197 8.75273 15.7697 11.1139 15.7697C13.1334 15.7697 14.6094 14.5064 14.6094 12.7318C14.6094 12.6759 14.5643 12.6308 14.5084 12.6308H13.2881C13.1979 12.6308 13.1248 12.6995 13.1162 12.7876C13.026 13.7781 12.2547 14.4591 11.1182 14.4591C9.71523 14.4591 8.92461 13.43 8.92461 11.5888V10.4587C8.92676 8.58957 9.71953 7.54758 11.1203 7.54758Z" fill="#8C98B7"/>
</svg>
