<svg width="100%" height="100%" style="overflow:visible;" preserveAspectRatio="none" viewBox="0 0 275.03 37" fill="none" xmlns="http://www.w3.org/2000/svg">
<path d="M1.63574 17.0252H9.01963V34.6527H1.63574V17.0252ZM5.32768 15.6072C3.99902 15.6072 2.92084 15.2635 2.09314 14.576C1.28723 13.867 0.884277 12.9755 0.884277 11.9013C0.884277 10.8271 1.28723 9.94624 2.09314 9.25876C2.92084 8.54979 3.99902 8.19531 5.32768 8.19531C6.67813 8.19531 7.75631 8.52831 8.56222 9.19431C9.36813 9.86031 9.77109 10.7197 9.77109 11.7724C9.77109 12.8895 9.36813 13.8133 8.56222 14.5438C7.75631 15.2528 6.67813 15.6072 5.32768 15.6072Z" fill="#011A6C"/>
<path d="M28.658 35.3402C26.1314 35.3402 23.6628 35.068 21.2524 34.5238C18.8709 33.9509 16.9106 33.1918 15.3714 32.2465L18.6822 24.8561C20.1343 25.6868 21.7606 26.3599 23.5612 26.8755C25.3618 27.3625 27.0898 27.606 28.7452 27.606C30.1682 27.606 31.1847 27.4771 31.7946 27.2193C32.4044 26.9328 32.7094 26.5175 32.7094 25.9732C32.7094 25.343 32.3028 24.8704 31.4896 24.5553C30.7055 24.2402 29.3986 23.8964 27.569 23.5241C25.2166 23.0371 23.2563 22.5215 21.688 21.9772C20.1197 21.4043 18.7548 20.4877 17.5931 19.2273C16.4314 17.9382 15.8506 16.2052 15.8506 14.0282C15.8506 12.1376 16.3879 10.4189 17.4624 8.87205C18.537 7.32521 20.1343 6.10779 22.2543 5.21979C24.4034 4.33179 27.0027 3.88779 30.052 3.88779C32.1431 3.88779 34.1905 4.11695 36.1944 4.57528C38.2273 5.00495 40.0134 5.64947 41.5526 6.50882L38.4597 13.8563C35.4684 12.3668 32.6368 11.622 29.9649 11.622C27.3221 11.622 26.0007 12.2522 26.0007 13.5126C26.0007 14.1141 26.3928 14.5724 27.1769 14.8875C27.961 15.174 29.2534 15.4891 31.054 15.8328C33.3773 16.2625 35.3377 16.7638 36.935 17.3367C38.5323 17.881 39.9118 18.7833 41.0734 20.0437C42.2641 21.3041 42.8595 23.0228 42.8595 25.1998C42.8595 27.0904 42.3222 28.8091 41.2477 30.3559C40.1731 31.8741 38.5613 33.0915 36.4122 34.0082C34.2922 34.8962 31.7074 35.3402 28.658 35.3402Z" fill="#011A6C"/>
<path d="M66.3139 10.7197C69.2471 10.7197 71.5995 11.5933 73.3711 13.3407C75.1717 15.088 76.072 17.7234 76.072 21.2468V34.6527H66.2268V22.9225C66.2268 20.2299 65.2539 18.8835 63.3081 18.8835C62.2045 18.8835 61.3042 19.2702 60.6072 20.0437C59.9392 20.7884 59.6052 21.9772 59.6052 23.61V34.6527H49.7601V2.77063H59.6052V13.0399C61.4349 11.4931 63.6711 10.7197 66.3139 10.7197Z" fill="#011A6C"/>
<path d="M95.1667 10.7197C99.3487 10.7197 102.543 11.6506 104.751 13.5126C106.958 15.3459 108.061 18.1817 108.061 22.0202V34.6527H98.9131V31.559C97.7805 33.9079 95.5297 35.0824 92.1609 35.0824C90.2732 35.0824 88.6613 34.7673 87.3254 34.1371C86.0185 33.4782 85.0166 32.6046 84.3196 31.5161C83.6516 30.3989 83.3176 29.1528 83.3176 27.7779C83.3176 25.4576 84.2179 23.6959 86.0185 22.4928C87.8191 21.2897 90.5491 20.6882 94.2083 20.6882H98.1725C97.8531 18.8549 96.3574 17.9382 93.6856 17.9382C92.611 17.9382 91.522 18.1101 90.4184 18.4539C89.3148 18.769 88.3709 19.213 87.5868 19.7859L84.4503 13.3837C85.8152 12.553 87.4561 11.9084 89.3729 11.4501C91.3187 10.9631 93.2499 10.7197 95.1667 10.7197ZM95.1231 29.2388C95.8202 29.2388 96.4446 29.0526 96.9964 28.6802C97.5481 28.3078 97.9547 27.7492 98.2161 27.0044V25.3717H95.7766C93.7727 25.3717 92.7708 26.0305 92.7708 27.3482C92.7708 27.8924 92.974 28.3508 93.3806 28.7231C93.8163 29.0669 94.3971 29.2388 95.1231 29.2388Z" fill="#011A6C"/>
<path d="M125.828 13.6844C127.571 11.7079 130.141 10.7197 133.539 10.7197V19.3132C132.755 19.1986 132.029 19.1413 131.361 19.1413C127.992 19.1413 126.308 20.8314 126.308 24.2115V34.6527H116.462V11.1493H125.828V13.6844Z" fill="#011A6C"/>
<path d="M140.476 2.77063H150.321V34.6527H140.476V2.77063Z" fill="#011A6C"/>
<path d="M171.42 35.0824C168.778 35.0824 166.396 34.5668 164.276 33.5355C162.185 32.4757 160.544 31.0291 159.354 29.1958C158.163 27.3339 157.567 25.2284 157.567 22.8795C157.567 20.5306 158.163 18.4395 159.354 16.6062C160.544 14.7443 162.185 13.2977 164.276 12.2665C166.396 11.2353 168.778 10.7197 171.42 10.7197C174.092 10.7197 176.474 11.2353 178.565 12.2665C180.685 13.2977 182.326 14.7443 183.487 16.6062C184.678 18.4395 185.273 20.5306 185.273 22.8795C185.273 25.2284 184.678 27.3339 183.487 29.1958C182.326 31.0291 180.685 32.4757 178.565 33.5355C176.474 34.5668 174.092 35.0824 171.42 35.0824ZM171.42 27.52C172.553 27.52 173.482 27.119 174.208 26.317C174.934 25.4862 175.298 24.3404 175.298 22.8795C175.298 21.4186 174.934 20.2871 174.208 19.4851C173.482 18.683 172.553 18.282 171.42 18.282C170.288 18.282 169.358 18.683 168.632 19.4851C167.906 20.2871 167.543 21.4186 167.543 22.8795C167.543 24.3404 167.906 25.4862 168.632 26.317C169.358 27.119 170.288 27.52 171.42 27.52Z" fill="#011A6C"/>
<path d="M210.057 33.8363C208.576 34.667 206.557 35.0824 204.002 35.0824C200.662 35.0824 198.092 34.2946 196.291 32.7191C194.49 31.115 193.59 28.7231 193.59 25.5435V19.528H190.323V12.4384H193.59V5.86431H203.435V12.4384H208.314V19.528H203.435V25.4576C203.435 26.1737 203.624 26.7323 204.002 27.1333C204.379 27.5344 204.873 27.7349 205.483 27.7349C206.325 27.7349 207.066 27.52 207.704 27.0904L210.057 33.8363Z" fill="#011A6C"/>
<path d="M228.098 27.4341L226.53 29.1099V34.6527H216.684V2.77063H226.53V17.9812L233.369 11.1493H245L235.155 21.3327L245.784 34.6527H233.892L228.098 27.4341Z" fill="#011A6C"/>
<path d="M262.134 10.7197C266.316 10.7197 269.51 11.6506 271.717 13.5126C273.925 15.3459 275.028 18.1817 275.028 22.0202V34.6527H265.88V31.559C264.747 33.9079 262.497 35.0824 259.128 35.0824C257.24 35.0824 255.628 34.7673 254.292 34.1371C252.985 33.4782 251.983 32.6046 251.286 31.5161C250.619 30.3989 250.285 29.1528 250.285 27.7779C250.285 25.4576 251.185 23.6959 252.985 22.4928C254.786 21.2897 257.516 20.6882 261.175 20.6882H265.139C264.82 18.8549 263.324 17.9382 260.652 17.9382C259.578 17.9382 258.489 18.1101 257.385 18.4539C256.282 18.769 255.338 19.213 254.554 19.7859L251.417 13.3837C252.782 12.553 254.423 11.9084 256.34 11.4501C258.286 10.9631 260.217 10.7197 262.134 10.7197ZM262.09 29.2388C262.787 29.2388 263.411 29.0526 263.963 28.6802C264.515 28.3078 264.922 27.7492 265.183 27.0044V25.3717H262.743C260.74 25.3717 259.738 26.0305 259.738 27.3482C259.738 27.8924 259.941 28.3508 260.348 28.7231C260.783 29.0669 261.364 29.2388 262.09 29.2388Z" fill="#011A6C"/>
</svg>
