<svg width="100%" height="100%" style="overflow:visible;" preserveAspectRatio="none" viewBox="0 0 338 24" fill="none" xmlns="http://www.w3.org/2000/svg">
<path d="M210.29 9.19487V11.278H209.631V9.79812H203.801L203.791 11.278H203.133L203.142 9.19487H203.476C203.915 9.16973 204.221 8.82726 204.392 8.16745C204.564 7.50135 204.669 6.55876 204.707 5.33969L204.784 3.20001H209.288V9.19487H210.29ZM205.337 5.40567C205.305 6.41109 205.226 7.24057 205.099 7.8941C204.978 8.54134 204.771 8.97493 204.478 9.19487H208.591V3.80327H205.394L205.337 5.40567Z" fill="#8C98B7"/>
<path d="M216.038 7.52649H211.839C211.878 8.04177 212.078 8.45965 212.441 8.78013C212.803 9.09432 213.261 9.25142 213.815 9.25142C214.127 9.25142 214.413 9.19801 214.674 9.09118C214.934 8.97807 215.16 8.81469 215.351 8.60104L215.733 9.03463C215.51 9.29855 215.23 9.49964 214.893 9.63788C214.562 9.77613 214.196 9.84525 213.796 9.84525C213.28 9.84525 212.822 9.73843 212.422 9.52477C212.027 9.30484 211.719 9.00321 211.496 8.61989C211.273 8.23657 211.162 7.80298 211.162 7.31912C211.162 6.83526 211.267 6.40167 211.477 6.01835C211.693 5.63503 211.986 5.33654 212.355 5.12289C212.73 4.90924 213.15 4.80241 213.614 4.80241C214.079 4.80241 214.496 4.90924 214.864 5.12289C215.233 5.33654 215.523 5.63503 215.733 6.01835C215.943 6.39538 216.048 6.82897 216.048 7.31912L216.038 7.52649ZM213.614 5.37739C213.131 5.37739 212.724 5.53134 212.393 5.83926C212.068 6.14088 211.884 6.53677 211.839 7.02692H215.399C215.354 6.53677 215.167 6.14088 214.836 5.83926C214.511 5.53134 214.104 5.37739 213.614 5.37739Z" fill="#8C98B7"/>
<path d="M221.769 4.84011V9.79812H221.091V5.43394H218.686L218.62 6.65931C218.569 7.68987 218.448 8.48164 218.257 9.03463C218.066 9.58761 217.726 9.8641 217.236 9.8641C217.102 9.8641 216.94 9.83897 216.749 9.7887L216.797 9.21372C216.911 9.23885 216.991 9.25142 217.035 9.25142C217.296 9.25142 217.494 9.13203 217.627 8.89324C217.761 8.65445 217.85 8.35911 217.894 8.00721C217.939 7.65531 217.977 7.1903 218.009 6.61218L218.095 4.84011H221.769Z" fill="#8C98B7"/>
<path d="M225.642 4.80241C226.298 4.80241 226.8 4.96579 227.15 5.29256C227.5 5.61304 227.675 6.09061 227.675 6.72529V9.79812H227.026V9.0252C226.873 9.28284 226.647 9.48393 226.348 9.62846C226.056 9.77299 225.706 9.84525 225.299 9.84525C224.739 9.84525 224.294 9.71329 223.963 9.44937C223.632 9.18544 223.466 8.83668 223.466 8.40309C223.466 7.98207 223.619 7.64274 223.925 7.3851C224.236 7.12746 224.729 6.99864 225.404 6.99864H226.997V6.69701C226.997 6.2697 226.876 5.94608 226.635 5.72615C226.393 5.49993 226.04 5.38681 225.575 5.38681C225.257 5.38681 224.952 5.44023 224.659 5.54705C224.367 5.6476 224.115 5.78899 223.905 5.97122L223.6 5.47165C223.855 5.25799 224.16 5.09461 224.516 4.9815C224.872 4.86211 225.248 4.80241 225.642 4.80241ZM225.404 9.3174C225.785 9.3174 226.113 9.23257 226.387 9.0629C226.66 8.88695 226.864 8.6356 226.997 8.30883V7.49821H225.423C224.564 7.49821 224.134 7.79355 224.134 8.38424C224.134 8.6733 224.246 8.90266 224.468 9.07233C224.691 9.23571 225.003 9.3174 225.404 9.3174Z" fill="#8C98B7"/>
<path d="M234.088 7.52649H229.89C229.928 8.04177 230.128 8.45965 230.491 8.78013C230.853 9.09432 231.311 9.25142 231.865 9.25142C232.177 9.25142 232.463 9.19801 232.724 9.09118C232.985 8.97807 233.211 8.81469 233.401 8.60104L233.783 9.03463C233.56 9.29855 233.28 9.49964 232.943 9.63788C232.613 9.77613 232.247 9.84525 231.846 9.84525C231.331 9.84525 230.873 9.73843 230.472 9.52477C230.077 9.30484 229.769 9.00321 229.546 8.61989C229.323 8.23657 229.212 7.80298 229.212 7.31912C229.212 6.83526 229.317 6.40167 229.527 6.01835C229.743 5.63503 230.036 5.33654 230.405 5.12289C230.78 4.90924 231.2 4.80241 231.665 4.80241C232.129 4.80241 232.546 4.90924 232.915 5.12289C233.284 5.33654 233.573 5.63503 233.783 6.01835C233.993 6.39538 234.098 6.82897 234.098 7.31912L234.088 7.52649ZM231.665 5.37739C231.181 5.37739 230.774 5.53134 230.443 5.83926C230.119 6.14088 229.934 6.53677 229.89 7.02692H233.449C233.405 6.53677 233.217 6.14088 232.886 5.83926C232.562 5.53134 232.154 5.37739 231.665 5.37739Z" fill="#8C98B7"/>
<path d="M241.429 4.84011V9.79812H240.809V5.87696L238.776 9.19487H238.471L236.438 5.86753V9.79812H235.818V4.84011H236.505L238.633 8.41252L240.799 4.84011H241.429Z" fill="#8C98B7"/>
<path d="M246.295 4.84011H246.973V8.78013L250.322 4.84011H250.923V9.79812H250.246V5.85811L246.906 9.79812H246.295V4.84011Z" fill="#8C98B7"/>
<path d="M253.085 4.84011H253.763V7.03634H256.922V4.84011H257.599V9.79812H256.922V7.61132H253.763V9.79812H253.085V4.84011Z" fill="#8C98B7"/>
<path d="M264.641 9.21372V10.9952H264.001V9.79812H259.507V10.9952H258.867V9.21372H259.153C259.491 9.19487 259.72 8.94979 259.841 8.4785C259.961 8.00721 260.044 7.3474 260.089 6.49907L260.155 4.84011H263.858V9.21372H264.641ZM260.709 6.53677C260.677 7.24057 260.617 7.82183 260.528 8.28056C260.439 8.733 260.28 9.04405 260.051 9.21372H263.181V5.43394H260.766L260.709 6.53677Z" fill="#8C98B7"/>
<path d="M266.181 4.84011H266.859V8.78013L270.208 4.84011H270.81V9.79812H270.132V5.85811L266.792 9.79812H266.181V4.84011Z" fill="#8C98B7"/>
<path d="M276.168 7.23429C276.849 7.39138 277.189 7.7967 277.189 8.45022C277.189 8.88381 277.027 9.21686 276.703 9.44937C276.378 9.68187 275.895 9.79812 275.252 9.79812H272.971V4.84011H275.185C275.758 4.84011 276.206 4.95008 276.531 5.17002C276.855 5.38996 277.018 5.70415 277.018 6.11261C277.018 6.38281 276.941 6.61532 276.789 6.81012C276.642 6.99864 276.436 7.14003 276.168 7.23429ZM273.63 7.04577H275.138C275.526 7.04577 275.822 6.9735 276.025 6.82897C276.235 6.68444 276.34 6.47393 276.34 6.19744C276.34 5.92095 276.235 5.71358 276.025 5.57533C275.822 5.43709 275.526 5.36796 275.138 5.36796H273.63V7.04577ZM275.224 9.27027C275.656 9.27027 275.981 9.20115 276.197 9.0629C276.413 8.92466 276.521 8.70786 276.521 8.41252C276.521 8.11718 276.423 7.90038 276.226 7.76213C276.028 7.6176 275.717 7.54534 275.29 7.54534H273.63V9.27027H275.224Z" fill="#8C98B7"/>
<path d="M278.998 4.84011H279.675V8.78013L283.025 4.84011H283.626V9.79812H282.948V5.85811L279.608 9.79812H278.998V4.84011Z" fill="#8C98B7"/>
<path d="M290.683 9.21372V10.9952H290.044V9.79812H285.549V10.9952H284.91V9.21372H285.196C285.533 9.19487 285.762 8.94979 285.883 8.4785C286.004 8.00721 286.087 7.3474 286.131 6.49907L286.198 4.84011H289.901V9.21372H290.683ZM286.752 6.53677C286.72 7.24057 286.659 7.82183 286.57 8.28056C286.481 8.733 286.322 9.04405 286.093 9.21372H289.223V5.43394H286.809L286.752 6.53677Z" fill="#8C98B7"/>
<path d="M296.489 4.84011L293.98 10.392C293.776 10.857 293.541 11.1869 293.274 11.3817C293.006 11.5765 292.685 11.6739 292.31 11.6739C292.068 11.6739 291.842 11.6362 291.632 11.5608C291.422 11.4854 291.241 11.3722 291.088 11.2214L291.403 10.7219C291.658 10.9732 291.963 11.0989 292.319 11.0989C292.548 11.0989 292.742 11.0361 292.901 10.9104C293.067 10.7847 293.219 10.571 293.359 10.2694L293.579 9.7887L291.336 4.84011H292.043L293.932 9.05348L295.821 4.84011H296.489Z" fill="#8C98B7"/>
<path d="M299.343 4.80241C299.999 4.80241 300.501 4.96579 300.851 5.29256C301.201 5.61304 301.376 6.09061 301.376 6.72529V9.79812H300.727V9.0252C300.574 9.28284 300.349 9.48393 300.05 9.62846C299.757 9.77299 299.407 9.84525 299 9.84525C298.44 9.84525 297.995 9.71329 297.664 9.44937C297.333 9.18544 297.168 8.83668 297.168 8.40309C297.168 7.98207 297.32 7.64274 297.626 7.3851C297.937 7.12746 298.43 6.99864 299.105 6.99864H300.698V6.69701C300.698 6.2697 300.578 5.94608 300.336 5.72615C300.094 5.49993 299.741 5.38681 299.277 5.38681C298.959 5.38681 298.653 5.44023 298.36 5.54705C298.068 5.6476 297.817 5.78899 297.607 5.97122L297.301 5.47165C297.556 5.25799 297.861 5.09461 298.217 4.9815C298.574 4.86211 298.949 4.80241 299.343 4.80241ZM299.105 9.3174C299.487 9.3174 299.814 9.23257 300.088 9.0629C300.361 8.88695 300.565 8.6356 300.698 8.30883V7.49821H299.124C298.265 7.49821 297.836 7.79355 297.836 8.38424C297.836 8.6733 297.947 8.90266 298.17 9.07233C298.392 9.23571 298.704 9.3174 299.105 9.3174Z" fill="#8C98B7"/>
<path d="M307.503 4.84011V9.79812H306.826V5.43394H304.421L304.354 6.65931C304.303 7.68987 304.182 8.48164 303.992 9.03463C303.801 9.58761 303.46 9.8641 302.97 9.8641C302.837 9.8641 302.675 9.83897 302.484 9.7887L302.532 9.21372C302.646 9.23885 302.726 9.25142 302.77 9.25142C303.031 9.25142 303.228 9.13203 303.362 8.89324C303.495 8.65445 303.584 8.35911 303.629 8.00721C303.673 7.65531 303.712 7.1903 303.743 6.61218L303.829 4.84011H307.503Z" fill="#8C98B7"/>
<path d="M311.806 6.59333C312.436 6.59961 312.913 6.73786 313.238 7.00806C313.569 7.27827 313.734 7.66788 313.734 8.17687C313.734 8.70472 313.556 9.11003 313.2 9.39281C312.85 9.67559 312.341 9.81383 311.673 9.80755L309.65 9.79812V4.84011H310.327V6.57447L311.806 6.59333ZM311.635 9.29855C312.099 9.30483 312.449 9.21372 312.684 9.0252C312.926 8.8304 313.047 8.54762 313.047 8.17687C313.047 7.81241 312.929 7.5422 312.694 7.36625C312.458 7.1903 312.105 7.09918 311.635 7.0929L310.327 7.07405V9.2797L311.635 9.29855Z" fill="#8C98B7"/>
<path d="M315.247 4.84011H315.925V7.03634H319.083V4.84011H319.761V9.79812H319.083V7.61132H315.925V9.79812H315.247V4.84011Z" fill="#8C98B7"/>
<path d="M324.016 6.59333C324.646 6.59961 325.126 6.73786 325.457 7.00806C325.787 7.27827 325.953 7.66788 325.953 8.17687C325.953 8.70472 325.775 9.11003 325.419 9.39281C325.062 9.67559 324.553 9.81383 323.892 9.80755L321.907 9.79812V4.84011H322.584V6.57447L324.016 6.59333ZM326.793 4.84011H327.47V9.79812H326.793V4.84011ZM323.853 9.29855C324.318 9.30483 324.668 9.21372 324.903 9.0252C325.145 8.8304 325.266 8.54762 325.266 8.17687C325.266 7.81241 325.148 7.5422 324.913 7.36625C324.677 7.1903 324.324 7.09918 323.853 7.0929L322.584 7.07405V9.2797L323.853 9.29855Z" fill="#8C98B7"/>
<path d="M334.009 7.52649H329.81C329.849 8.04177 330.049 8.45965 330.412 8.78013C330.774 9.09432 331.232 9.25142 331.786 9.25142C332.098 9.25142 332.384 9.19801 332.645 9.09118C332.905 8.97807 333.131 8.81469 333.322 8.60104L333.704 9.03463C333.481 9.29855 333.201 9.49964 332.864 9.63788C332.533 9.77613 332.167 9.84525 331.767 9.84525C331.251 9.84525 330.793 9.73843 330.393 9.52477C329.998 9.30484 329.69 9.00321 329.467 8.61989C329.244 8.23657 329.133 7.80298 329.133 7.31912C329.133 6.83526 329.238 6.40167 329.448 6.01835C329.664 5.63503 329.957 5.33654 330.326 5.12289C330.701 4.90924 331.121 4.80241 331.585 4.80241C332.05 4.80241 332.467 4.90924 332.835 5.12289C333.204 5.33654 333.494 5.63503 333.704 6.01835C333.914 6.39538 334.019 6.82897 334.019 7.31912L334.009 7.52649ZM331.585 5.37739C331.102 5.37739 330.695 5.53134 330.364 5.83926C330.039 6.14088 329.855 6.53677 329.81 7.02692H333.37C333.325 6.53677 333.138 6.14088 332.807 5.83926C332.482 5.53134 332.075 5.37739 331.585 5.37739Z" fill="#8C98B7"/>
<path d="M205.719 17.1285C206.374 17.1285 206.877 17.2919 207.227 17.6187C207.577 17.9392 207.752 18.4168 207.752 19.0514V22.1243H207.103V21.3513C206.95 21.609 206.724 21.8101 206.425 21.9546C206.132 22.0991 205.783 22.1714 205.375 22.1714C204.816 22.1714 204.37 22.0394 204.039 21.7755C203.709 21.5116 203.543 21.1628 203.543 20.7292C203.543 20.3082 203.696 19.9689 204.001 19.7112C204.313 19.4536 204.806 19.3248 205.48 19.3248H207.074V19.0231C207.074 18.5958 206.953 18.2722 206.711 18.0523C206.47 17.8261 206.117 17.713 205.652 17.713C205.334 17.713 205.029 17.7664 204.736 17.8732C204.443 17.9737 204.192 18.1151 203.982 18.2974L203.677 17.7978C203.931 17.5841 204.237 17.4208 204.593 17.3076C204.949 17.1882 205.324 17.1285 205.719 17.1285ZM205.48 21.6435C205.862 21.6435 206.19 21.5587 206.463 21.389C206.737 21.2131 206.94 20.9617 207.074 20.635V19.8243H205.499C204.641 19.8243 204.211 20.1197 204.211 20.7104C204.211 20.9994 204.322 21.2288 204.545 21.3985C204.768 21.5619 205.08 21.6435 205.48 21.6435Z" fill="#8C98B7"/>
<path d="M211.598 19.9186H210.453V22.1243H209.775V17.1663H210.453V19.3436H211.608L213.373 17.1663H214.108L212.132 19.5699L214.251 22.1243H213.449L211.598 19.9186Z" fill="#8C98B7"/>
<path d="M217.463 22.1714C216.967 22.1714 216.521 22.0646 216.127 21.8509C215.739 21.6373 215.433 21.3388 215.211 20.9555C214.988 20.5659 214.877 20.1291 214.877 19.6453C214.877 19.1614 214.988 18.7278 215.211 18.3445C215.433 17.9612 215.739 17.6627 216.127 17.449C216.521 17.2354 216.967 17.1285 217.463 17.1285C217.895 17.1285 218.28 17.2134 218.618 17.383C218.961 17.5464 219.231 17.7884 219.429 18.1088L218.923 18.4482C218.758 18.2031 218.548 18.0209 218.293 17.9015C218.039 17.7758 217.762 17.713 217.463 17.713C217.1 17.713 216.773 17.7946 216.48 17.958C216.194 18.1151 215.968 18.3413 215.802 18.6367C215.643 18.932 215.564 19.2682 215.564 19.6453C215.564 20.0286 215.643 20.3679 215.802 20.6633C215.968 20.9523 216.194 21.1785 216.48 21.3419C216.773 21.499 217.1 21.5776 217.463 21.5776C217.762 21.5776 218.039 21.5179 218.293 21.3985C218.548 21.2791 218.758 21.0968 218.923 20.8518L219.429 21.1911C219.231 21.5116 218.961 21.7567 218.618 21.9263C218.274 22.0897 217.889 22.1714 217.463 22.1714Z" fill="#8C98B7"/>
<path d="M225.267 19.8526H221.068C221.106 20.3679 221.306 20.7858 221.669 21.1063C222.032 21.4205 222.49 21.5776 223.043 21.5776C223.355 21.5776 223.641 21.5241 223.902 21.4173C224.163 21.3042 224.389 21.1408 224.58 20.9272L224.961 21.3608C224.739 21.6247 224.459 21.8258 224.122 21.964C223.791 22.1023 223.425 22.1714 223.024 22.1714C222.509 22.1714 222.051 22.0646 221.65 21.8509C221.255 21.631 220.947 21.3293 220.724 20.946C220.502 20.5627 220.39 20.1291 220.39 19.6453C220.39 19.1614 220.495 18.7278 220.705 18.3445C220.921 17.9612 221.214 17.6627 221.583 17.449C221.958 17.2354 222.378 17.1285 222.843 17.1285C223.307 17.1285 223.724 17.2354 224.093 17.449C224.462 17.6627 224.751 17.9612 224.961 18.3445C225.171 18.7215 225.276 19.1551 225.276 19.6453L225.267 19.8526ZM222.843 17.7035C222.359 17.7035 221.952 17.8575 221.621 18.1654C221.297 18.467 221.112 18.8629 221.068 19.3531H224.627C224.583 18.8629 224.395 18.467 224.064 18.1654C223.74 17.8575 223.333 17.7035 222.843 17.7035Z" fill="#8C98B7"/>
<path d="M229.096 22.1714C228.599 22.1714 228.154 22.0646 227.76 21.8509C227.372 21.6373 227.066 21.3388 226.844 20.9555C226.621 20.5659 226.51 20.1291 226.51 19.6453C226.51 19.1614 226.621 18.7278 226.844 18.3445C227.066 17.9612 227.372 17.6627 227.76 17.449C228.154 17.2354 228.599 17.1285 229.096 17.1285C229.528 17.1285 229.913 17.2134 230.25 17.383C230.594 17.5464 230.864 17.7884 231.061 18.1088L230.556 18.4482C230.39 18.2031 230.18 18.0209 229.926 17.9015C229.671 17.7758 229.395 17.713 229.096 17.713C228.733 17.713 228.405 17.7946 228.113 17.958C227.826 18.1151 227.601 18.3413 227.435 18.6367C227.276 18.932 227.197 19.2682 227.197 19.6453C227.197 20.0286 227.276 20.3679 227.435 20.6633C227.601 20.9523 227.826 21.1785 228.113 21.3419C228.405 21.499 228.733 21.5776 229.096 21.5776C229.395 21.5776 229.671 21.5179 229.926 21.3985C230.18 21.2791 230.39 21.0968 230.556 20.8518L231.061 21.1911C230.864 21.5116 230.594 21.7567 230.25 21.9263C229.907 22.0897 229.522 22.1714 229.096 22.1714Z" fill="#8C98B7"/>
<path d="M234.609 22.1714C234.113 22.1714 233.668 22.0646 233.273 21.8509C232.885 21.6373 232.58 21.3388 232.357 20.9555C232.134 20.5659 232.023 20.1291 232.023 19.6453C232.023 19.1614 232.134 18.7278 232.357 18.3445C232.58 17.9612 232.885 17.6627 233.273 17.449C233.668 17.2354 234.113 17.1285 234.609 17.1285C235.042 17.1285 235.427 17.2134 235.764 17.383C236.107 17.5464 236.378 17.7884 236.575 18.1088L236.069 18.4482C235.904 18.2031 235.694 18.0209 235.439 17.9015C235.185 17.7758 234.908 17.713 234.609 17.713C234.246 17.713 233.919 17.7946 233.626 17.958C233.34 18.1151 233.114 18.3413 232.949 18.6367C232.79 18.932 232.71 19.2682 232.71 19.6453C232.71 20.0286 232.79 20.3679 232.949 20.6633C233.114 20.9523 233.34 21.1785 233.626 21.3419C233.919 21.499 234.246 21.5776 234.609 21.5776C234.908 21.5776 235.185 21.5179 235.439 21.3985C235.694 21.2791 235.904 21.0968 236.069 20.8518L236.575 21.1911C236.378 21.5116 236.107 21.7567 235.764 21.9263C235.42 22.0897 235.035 22.1714 234.609 22.1714Z" fill="#8C98B7"/>
<path d="M242.298 17.1663L239.788 22.7181C239.585 23.1831 239.349 23.513 239.082 23.7078C238.815 23.9026 238.494 24 238.118 24C237.877 24 237.651 23.9623 237.441 23.8869C237.231 23.8115 237.05 23.6984 236.897 23.5476L237.212 23.048C237.466 23.2994 237.772 23.425 238.128 23.425C238.357 23.425 238.551 23.3622 238.71 23.2365C238.875 23.1108 239.028 22.8972 239.168 22.5956L239.388 22.1148L237.145 17.1663H237.851L239.741 21.3796L241.63 17.1663H242.298Z" fill="#8C98B7"/>
<path d="M245.152 17.1285C245.807 17.1285 246.31 17.2919 246.66 17.6187C247.01 17.9392 247.185 18.4168 247.185 19.0514V22.1243H246.536V21.3513C246.383 21.609 246.157 21.8101 245.858 21.9546C245.566 22.0991 245.216 22.1714 244.809 22.1714C244.249 22.1714 243.803 22.0394 243.473 21.7755C243.142 21.5116 242.976 21.1628 242.976 20.7292C242.976 20.3082 243.129 19.9689 243.434 19.7112C243.746 19.4536 244.239 19.3248 244.914 19.3248H246.507V19.0231C246.507 18.5958 246.386 18.2722 246.145 18.0523C245.903 17.8261 245.55 17.713 245.085 17.713C244.767 17.713 244.462 17.7664 244.169 17.8732C243.877 17.9737 243.625 18.1151 243.415 18.2974L243.11 17.7978C243.364 17.5841 243.67 17.4208 244.026 17.3076C244.382 17.1882 244.758 17.1285 245.152 17.1285ZM244.914 21.6435C245.295 21.6435 245.623 21.5587 245.896 21.389C246.17 21.2131 246.374 20.9617 246.507 20.635V19.8243H244.933C244.074 19.8243 243.644 20.1197 243.644 20.7104C243.644 20.9994 243.756 21.2288 243.978 21.3985C244.201 21.5619 244.513 21.6435 244.914 21.6435Z" fill="#8C98B7"/>
<path d="M251.795 17.1285C252.266 17.1285 252.692 17.2354 253.073 17.449C253.455 17.6564 253.754 17.9517 253.97 18.3351C254.187 18.7184 254.295 19.1551 254.295 19.6453C254.295 20.1417 254.187 20.5816 253.97 20.9649C253.754 21.3482 253.455 21.6467 253.073 21.8603C252.698 22.0677 252.272 22.1714 251.795 22.1714C251.388 22.1714 251.019 22.0897 250.688 21.9263C250.363 21.7567 250.096 21.5116 249.886 21.1911V23.9529H249.209V17.1663H249.858V18.1465C250.061 17.8198 250.328 17.5684 250.659 17.3925C250.996 17.2165 251.375 17.1285 251.795 17.1285ZM251.747 21.5776C252.097 21.5776 252.415 21.499 252.701 21.3419C252.988 21.1785 253.21 20.9492 253.369 20.6538C253.535 20.3585 253.617 20.0223 253.617 19.6453C253.617 19.2682 253.535 18.9352 253.369 18.6461C253.21 18.3508 252.988 18.1214 252.701 17.958C252.415 17.7946 252.097 17.713 251.747 17.713C251.391 17.713 251.069 17.7946 250.783 17.958C250.503 18.1214 250.281 18.3508 250.115 18.6461C249.956 18.9352 249.877 19.2682 249.877 19.6453C249.877 20.0223 249.956 20.3585 250.115 20.6538C250.281 20.9492 250.503 21.1785 250.783 21.3419C251.069 21.499 251.391 21.5776 251.747 21.5776Z" fill="#8C98B7"/>
<path d="M258.08 18.9195C258.71 18.9257 259.19 19.064 259.521 19.3342C259.852 19.6044 260.017 19.994 260.017 20.503C260.017 21.0309 259.839 21.4362 259.483 21.7189C259.126 22.0017 258.617 22.14 257.956 22.1337L255.971 22.1243V17.1663H256.648V18.9006L258.08 18.9195ZM260.857 17.1663H261.534V22.1243H260.857V17.1663ZM257.918 21.6247C258.382 21.631 258.732 21.5399 258.967 21.3513C259.209 21.1565 259.33 20.8738 259.33 20.503C259.33 20.1385 259.212 19.8683 258.977 19.6924C258.741 19.5164 258.388 19.4253 257.918 19.419L256.648 19.4002V21.6058L257.918 21.6247Z" fill="#8C98B7"/>
<path d="M266.401 17.1663H267.079V19.3625H270.238V17.1663H270.915V22.1243H270.238V19.9375H267.079V22.1243H266.401V17.1663Z" fill="#8C98B7"/>
<path d="M274.788 17.1285C275.444 17.1285 275.946 17.2919 276.296 17.6187C276.646 17.9392 276.821 18.4168 276.821 19.0514V22.1243H276.172V21.3513C276.019 21.609 275.794 21.8101 275.495 21.9546C275.202 22.0991 274.852 22.1714 274.445 22.1714C273.885 22.1714 273.44 22.0394 273.109 21.7755C272.778 21.5116 272.613 21.1628 272.613 20.7292C272.613 20.3082 272.765 19.9689 273.071 19.7112C273.382 19.4536 273.876 19.3248 274.55 19.3248H276.144V19.0231C276.144 18.5958 276.023 18.2722 275.781 18.0523C275.539 17.8261 275.186 17.713 274.722 17.713C274.404 17.713 274.098 17.7664 273.806 17.8732C273.513 17.9737 273.262 18.1151 273.052 18.2974L272.746 17.7978C273.001 17.5841 273.306 17.4208 273.662 17.3076C274.019 17.1882 274.394 17.1285 274.788 17.1285ZM274.55 21.6435C274.932 21.6435 275.259 21.5587 275.533 21.389C275.806 21.2131 276.01 20.9617 276.144 20.635V19.8243H274.569C273.71 19.8243 273.281 20.1197 273.281 20.7104C273.281 20.9994 273.392 21.2288 273.615 21.3985C273.837 21.5619 274.149 21.6435 274.55 21.6435Z" fill="#8C98B7"/>
<path d="M283.662 22.1714C283.166 22.1714 282.721 22.0646 282.326 21.8509C281.938 21.6373 281.633 21.3388 281.41 20.9555C281.187 20.5659 281.076 20.1291 281.076 19.6453C281.076 19.1614 281.187 18.7278 281.41 18.3445C281.633 17.9612 281.938 17.6627 282.326 17.449C282.721 17.2354 283.166 17.1285 283.662 17.1285C284.095 17.1285 284.48 17.2134 284.817 17.383C285.16 17.5464 285.431 17.7884 285.628 18.1088L285.122 18.4482C284.957 18.2031 284.747 18.0209 284.492 17.9015C284.238 17.7758 283.961 17.713 283.662 17.713C283.299 17.713 282.972 17.7946 282.679 17.958C282.393 18.1151 282.167 18.3413 282.002 18.6367C281.843 18.932 281.763 19.2682 281.763 19.6453C281.763 20.0286 281.843 20.3679 282.002 20.6633C282.167 20.9523 282.393 21.1785 282.679 21.3419C282.972 21.499 283.299 21.5776 283.662 21.5776C283.961 21.5776 284.238 21.5179 284.492 21.3985C284.747 21.2791 284.957 21.0968 285.122 20.8518L285.628 21.1911C285.431 21.5116 285.16 21.7567 284.817 21.9263C284.473 22.0897 284.088 22.1714 283.662 22.1714Z" fill="#8C98B7"/>
<path d="M292.771 17.1663V22.1243H292.151V18.2031L290.118 21.521H289.813L287.78 18.1937V22.1243H287.16V17.1663H287.847L289.975 20.7387L292.141 17.1663H292.771Z" fill="#8C98B7"/>
<path d="M296.647 17.1285C297.302 17.1285 297.805 17.2919 298.155 17.6187C298.504 17.9392 298.679 18.4168 298.679 19.0514V22.1243H298.03V21.3513C297.878 21.609 297.652 21.8101 297.353 21.9546C297.06 22.0991 296.71 22.1714 296.303 22.1714C295.743 22.1714 295.298 22.0394 294.967 21.7755C294.636 21.5116 294.471 21.1628 294.471 20.7292C294.471 20.3082 294.624 19.9689 294.929 19.7112C295.241 19.4536 295.734 19.3248 296.408 19.3248H298.002V19.0231C298.002 18.5958 297.881 18.2722 297.639 18.0523C297.397 17.8261 297.044 17.713 296.58 17.713C296.262 17.713 295.956 17.7664 295.664 17.8732C295.371 17.9737 295.12 18.1151 294.91 18.2974L294.605 17.7978C294.859 17.5841 295.164 17.4208 295.521 17.3076C295.877 17.1882 296.252 17.1285 296.647 17.1285ZM296.408 21.6435C296.79 21.6435 297.118 21.5587 297.391 21.389C297.665 21.2131 297.868 20.9617 298.002 20.635V19.8243H296.427C295.568 19.8243 295.139 20.1197 295.139 20.7104C295.139 20.9994 295.25 21.2288 295.473 21.3985C295.696 21.5619 296.007 21.6435 296.408 21.6435Z" fill="#8C98B7"/>
<path d="M303.289 17.1285C303.76 17.1285 304.186 17.2354 304.568 17.449C304.95 17.6564 305.249 17.9517 305.465 18.3351C305.681 18.7184 305.79 19.1551 305.79 19.6453C305.79 20.1417 305.681 20.5816 305.465 20.9649C305.249 21.3482 304.95 21.6467 304.568 21.8603C304.193 22.0677 303.766 22.1714 303.289 22.1714C302.882 22.1714 302.513 22.0897 302.182 21.9263C301.858 21.7567 301.591 21.5116 301.381 21.1911V23.9529H300.703V17.1663H301.352V18.1465C301.556 17.8198 301.823 17.5684 302.154 17.3925C302.491 17.2165 302.869 17.1285 303.289 17.1285ZM303.242 21.5776C303.592 21.5776 303.91 21.499 304.196 21.3419C304.482 21.1785 304.705 20.9492 304.864 20.6538C305.029 20.3585 305.112 20.0223 305.112 19.6453C305.112 19.2682 305.029 18.9352 304.864 18.6461C304.705 18.3508 304.482 18.1214 304.196 17.958C303.91 17.7946 303.592 17.713 303.242 17.713C302.885 17.713 302.564 17.7946 302.278 17.958C301.998 18.1214 301.775 18.3508 301.61 18.6461C301.451 18.9352 301.371 19.2682 301.371 19.6453C301.371 20.0223 301.451 20.3585 301.61 20.6538C301.775 20.9492 301.998 21.1785 302.278 21.3419C302.564 21.499 302.885 21.5776 303.242 21.5776Z" fill="#8C98B7"/>
<path d="M310.81 17.7601H308.911V22.1243H308.233V17.7601H306.334V17.1663H310.81V17.7601Z" fill="#8C98B7"/>
<path d="M317.837 19.6358C317.837 20.4088 317.579 21.0152 317.064 21.455C316.548 21.8949 315.82 22.1337 314.878 22.1714V23.9529H314.22V22.1808C313.285 22.1431 312.559 21.9043 312.044 21.4645C311.535 21.0183 311.281 20.4088 311.281 19.6358C311.281 18.8692 311.535 18.2691 312.044 17.8355C312.559 17.4019 313.285 17.1663 314.22 17.1285V15.1303H314.878V17.1285C315.82 17.1725 316.548 17.4113 317.064 17.8449C317.579 18.2785 317.837 18.8755 317.837 19.6358ZM311.949 19.6358C311.949 20.2265 312.139 20.6884 312.521 21.0214C312.909 21.3545 313.475 21.543 314.22 21.587V17.7224C313.482 17.7601 312.919 17.9455 312.531 18.2785C312.143 18.6053 311.949 19.0577 311.949 19.6358ZM314.878 21.587C315.623 21.5493 316.189 21.3639 316.577 21.0309C316.971 20.6978 317.169 20.2328 317.169 19.6358C317.169 19.0514 316.971 18.5958 316.577 18.2691C316.189 17.9423 315.623 17.7601 314.878 17.7224V21.587Z" fill="#8C98B7"/>
<path d="M321.56 22.1714C321.077 22.1714 320.641 22.0646 320.253 21.8509C319.865 21.631 319.56 21.3293 319.337 20.946C319.114 20.5627 319.003 20.1291 319.003 19.6453C319.003 19.1614 319.114 18.7278 319.337 18.3445C319.56 17.9612 319.865 17.6627 320.253 17.449C320.641 17.2354 321.077 17.1285 321.56 17.1285C322.044 17.1285 322.48 17.2354 322.868 17.449C323.256 17.6627 323.558 17.9612 323.774 18.3445C323.997 18.7278 324.108 19.1614 324.108 19.6453C324.108 20.1291 323.997 20.5627 323.774 20.946C323.558 21.3293 323.256 21.631 322.868 21.8509C322.48 22.0646 322.044 22.1714 321.56 22.1714ZM321.56 21.5776C321.917 21.5776 322.235 21.499 322.515 21.3419C322.801 21.1785 323.024 20.9492 323.183 20.6538C323.342 20.3585 323.421 20.0223 323.421 19.6453C323.421 19.2682 323.342 18.932 323.183 18.6367C323.024 18.3413 322.801 18.1151 322.515 17.958C322.235 17.7946 321.917 17.713 321.56 17.713C321.204 17.713 320.883 17.7946 320.597 17.958C320.317 18.1151 320.094 18.3413 319.929 18.6367C319.77 18.932 319.69 19.2682 319.69 19.6453C319.69 20.0223 319.77 20.3585 319.929 20.6538C320.094 20.9492 320.317 21.1785 320.597 21.3419C320.883 21.499 321.204 21.5776 321.56 21.5776Z" fill="#8C98B7"/>
<path d="M325.777 17.1663H326.454V19.3625H329.613V17.1663H330.29V22.1243H329.613V19.9375H326.454V22.1243H325.777V17.1663Z" fill="#8C98B7"/>
<path d="M334.545 18.9195C335.175 18.9257 335.656 19.064 335.986 19.3342C336.317 19.6044 336.483 19.994 336.483 20.503C336.483 21.0309 336.304 21.4362 335.948 21.7189C335.592 22.0017 335.083 22.14 334.421 22.1337L332.436 22.1243V17.1663H333.114V18.9006L334.545 18.9195ZM337.322 17.1663H338V22.1243H337.322V17.1663ZM334.383 21.6247C334.848 21.631 335.197 21.5399 335.433 21.3513C335.675 21.1565 335.795 20.8738 335.795 20.503C335.795 20.1385 335.678 19.8683 335.442 19.6924C335.207 19.5164 334.854 19.4253 334.383 19.419L333.114 19.4002V21.6058L334.383 21.6247Z" fill="#8C98B7"/>
<path fill-rule="evenodd" clip-rule="evenodd" d="M192.311 24L192.311 3.20001L193.143 3.20001L193.143 24L192.311 24Z" fill="#EDF0F5"/>
<path d="M1.08918 11.0434H6.0053V22.4774H1.08918V11.0434ZM3.54724 10.1236C2.66263 10.1236 1.94479 9.90066 1.39372 9.45473C0.857151 8.99486 0.588867 8.41654 0.588867 7.71976C0.588867 7.02299 0.857151 6.45163 1.39372 6.0057C1.94479 5.54583 2.66263 5.31589 3.54724 5.31589C4.44635 5.31589 5.16419 5.53189 5.70076 5.96389C6.23733 6.39589 6.50561 6.95331 6.50561 7.63615C6.50561 8.36079 6.23733 8.96002 5.70076 9.43383C5.16419 9.8937 4.44635 10.1236 3.54724 10.1236Z" fill="#8C98B7"/>
<path d="M19.0804 22.9234C17.3981 22.9234 15.7546 22.7469 14.1497 22.3938C12.5642 22.0222 11.259 21.5298 10.2342 20.9167L12.4385 16.1229C13.4053 16.6617 14.4881 17.0983 15.6869 17.4328C16.8857 17.7487 18.0362 17.9066 19.1384 17.9066C20.0858 17.9066 20.7626 17.823 21.1686 17.6558C21.5747 17.47 21.7777 17.2005 21.7777 16.8475C21.7777 16.4387 21.507 16.1321 20.9656 15.9278C20.4435 15.7234 19.5734 15.5004 18.3553 15.2589C16.7891 14.943 15.4839 14.6085 14.4398 14.2555C13.3956 13.8839 12.4869 13.2893 11.7134 12.4718C10.94 11.6356 10.5533 10.5115 10.5533 9.09937C10.5533 7.87305 10.911 6.75821 11.6264 5.75486C12.3418 4.7515 13.4053 3.96183 14.8168 3.38583C16.2477 2.80983 17.9782 2.52183 20.0085 2.52183C21.4006 2.52183 22.7638 2.67047 24.098 2.96776C25.4515 3.24647 26.6406 3.66453 27.6654 4.22195L25.6062 8.98789C23.6146 8.0217 21.7294 7.5386 19.9505 7.5386C18.1909 7.5386 17.3111 7.94738 17.3111 8.76492C17.3111 9.15512 17.5722 9.45241 18.0942 9.65679C18.6163 9.8426 19.4767 10.047 20.6756 10.27C22.2224 10.5487 23.5276 10.8738 24.591 11.2454C25.6545 11.5985 26.573 12.1838 27.3464 13.0013C28.1392 13.8189 28.5355 14.9337 28.5355 16.3458C28.5355 17.5721 28.1778 18.687 27.4624 19.6903C26.747 20.6751 25.6738 21.4648 24.243 22.0594C22.8315 22.6354 21.1106 22.9234 19.0804 22.9234Z" fill="#8C98B7"/>
<path d="M44.1512 6.95331C46.1042 6.95331 47.6704 7.52002 48.8498 8.65344C50.0487 9.78686 50.6481 11.4963 50.6481 13.7817V22.4774H44.0932V14.8687C44.0932 13.1221 43.4455 12.2488 42.15 12.2488C41.4152 12.2488 40.8158 12.4996 40.3518 13.0013C39.907 13.4844 39.6847 14.2555 39.6847 15.3146V22.4774H33.1299V1.79718H39.6847V8.45834C40.9028 7.45499 42.3917 6.95331 44.1512 6.95331Z" fill="#8C98B7"/>
<path d="M63.3611 6.95331C66.1455 6.95331 68.2724 7.55718 69.7419 8.76492C71.2115 9.95408 71.9462 11.7936 71.9462 14.2834V22.4774H65.8555V20.4707C65.1014 21.9943 63.6028 22.7561 61.3599 22.7561C60.1031 22.7561 59.0299 22.5518 58.1405 22.143C57.2704 21.7156 56.6033 21.1489 56.1392 20.4429C55.6945 19.7182 55.4721 18.91 55.4721 18.0181C55.4721 16.5131 56.0715 15.3703 57.2704 14.59C58.4692 13.8096 60.2868 13.4194 62.7231 13.4194H65.3624C65.1497 12.2302 64.1539 11.6356 62.375 11.6356C61.6596 11.6356 60.9345 11.7471 60.1997 11.9701C59.465 12.1745 58.8366 12.4625 58.3145 12.8341L56.2262 8.68131C57.135 8.14247 58.2275 7.72441 59.5037 7.42712C60.7991 7.11125 62.085 6.95331 63.3611 6.95331ZM63.3321 18.9657C63.7962 18.9657 64.2119 18.8449 64.5793 18.6034C64.9467 18.3618 65.2174 17.9995 65.3914 17.5164V16.4573H63.7672C62.433 16.4573 61.7659 16.8847 61.7659 17.7394C61.7659 18.0924 61.9013 18.3897 62.172 18.6312C62.462 18.8542 62.8487 18.9657 63.3321 18.9657Z" fill="#8C98B7"/>
<path d="M83.7754 8.87641C84.9355 7.59434 86.6467 6.95331 88.909 6.95331V12.5275C88.3869 12.4532 87.9035 12.416 87.4588 12.416C85.2159 12.416 84.0944 13.5123 84.0944 15.7048V22.4774H77.5396V7.23202H83.7754V8.87641Z" fill="#8C98B7"/>
<path d="M93.5273 1.79718H100.082V22.4774H93.5273V1.79718Z" fill="#8C98B7"/>
<path d="M114.13 22.7561C112.371 22.7561 110.785 22.4217 109.373 21.7528C107.981 21.0653 106.889 20.127 106.096 18.9378C105.303 17.7301 104.907 16.3644 104.907 14.8408C104.907 13.3172 105.303 11.9608 106.096 10.7716C106.889 9.56389 107.981 8.62557 109.373 7.95667C110.785 7.28776 112.371 6.95331 114.13 6.95331C115.909 6.95331 117.495 7.28776 118.887 7.95667C120.298 8.62557 121.391 9.56389 122.164 10.7716C122.957 11.9608 123.353 13.3172 123.353 14.8408C123.353 16.3644 122.957 17.7301 122.164 18.9378C121.391 20.127 120.298 21.0653 118.887 21.7528C117.495 22.4217 115.909 22.7561 114.13 22.7561ZM114.13 17.8509C114.884 17.8509 115.503 17.5907 115.986 17.0705C116.47 16.5316 116.711 15.7884 116.711 14.8408C116.711 13.8932 116.47 13.1592 115.986 12.639C115.503 12.1187 114.884 11.8586 114.13 11.8586C113.376 11.8586 112.757 12.1187 112.274 12.639C111.79 13.1592 111.549 13.8932 111.549 14.8408C111.549 15.7884 111.79 16.5316 112.274 17.0705C112.757 17.5907 113.376 17.8509 114.13 17.8509Z" fill="#8C98B7"/>
<path d="M139.854 21.9479C138.868 22.4867 137.524 22.7561 135.822 22.7561C133.599 22.7561 131.887 22.2452 130.689 21.2232C129.49 20.1827 128.89 18.6312 128.89 16.5688V12.6669H126.715V8.06815H128.89V3.80389H135.445V8.06815H138.694V12.6669H135.445V16.5131C135.445 16.9776 135.571 17.3399 135.822 17.6C136.074 17.8601 136.402 17.9902 136.808 17.9902C137.369 17.9902 137.862 17.8509 138.288 17.5721L139.854 21.9479Z" fill="#8C98B7"/>
<path d="M151.865 17.7951L150.821 18.8821V22.4774H144.266V1.79718H150.821V11.6635L155.375 7.23202H163.119L156.564 13.8374L163.641 22.4774H155.723L151.865 17.7951Z" fill="#8C98B7"/>
<path d="M174.526 6.95331C177.31 6.95331 179.437 7.55718 180.907 8.76492C182.376 9.95408 183.111 11.7936 183.111 14.2834V22.4774H177.02V20.4707C176.266 21.9943 174.768 22.7561 172.525 22.7561C171.268 22.7561 170.195 22.5518 169.305 22.143C168.435 21.7156 167.768 21.1489 167.304 20.4429C166.859 19.7182 166.637 18.91 166.637 18.0181C166.637 16.5131 167.236 15.3703 168.435 14.59C169.634 13.8096 171.452 13.4194 173.888 13.4194H176.527C176.315 12.2302 175.319 11.6356 173.54 11.6356C172.824 11.6356 172.099 11.7471 171.365 11.9701C170.63 12.1745 170.001 12.4625 169.479 12.8341L167.391 8.68131C168.3 8.14247 169.392 7.72441 170.668 7.42712C171.964 7.11125 173.25 6.95331 174.526 6.95331ZM174.497 18.9657C174.961 18.9657 175.377 18.8449 175.744 18.6034C176.112 18.3618 176.382 17.9995 176.556 17.5164V16.4573H174.932C173.598 16.4573 172.931 16.8847 172.931 17.7394C172.931 18.0924 173.066 18.3897 173.337 18.6312C173.627 18.8542 174.014 18.9657 174.497 18.9657Z" fill="#8C98B7"/>
</svg>
