<svg width="100%" height="100%" style="overflow:visible;" preserveAspectRatio="none" viewBox="0 0 348 283" fill="none" xmlns="http://www.w3.org/2000/svg">
<mask id="mask0_773_479" style="mask-type:alpha" maskUnits="userSpaceOnUse" x="0" y="0" width="340" height="281">
<rect width="340" height="281" rx="10" fill="white"/>
</mask>
<g mask="url(#mask0_773_479)">
<g filter="url(#filter0_d_773_479)">
<path d="M0 10C0 4.47715 4.47715 0 10 0H330C335.523 0 340 4.47715 340 10V86C340 91.5228 335.523 96 330 96H10C4.47716 96 0 91.5229 0 86V10Z" fill="white"/>
<path d="M0 10C0 4.47715 4.47715 0 10 0H330C335.523 0 340 4.47715 340 10V86C340 91.5228 335.523 96 330 96H10C4.47716 96 0 91.5229 0 86V10Z" fill="#FAFAFA"/>
</g>
</g>
<defs>
<filter id="filter0_d_773_479" x="-4" y="-2" width="348" height="104" filterUnits="userSpaceOnUse" color-interpolation-filters="sRGB">
<feFlood flood-opacity="0" result="BackgroundImageFix"/>
<feColorMatrix in="SourceAlpha" type="matrix" values="0 0 0 0 0 0 0 0 0 0 0 0 0 0 0 0 0 0 127 0" result="hardAlpha"/>
<feOffset dy="2"/>
<feGaussianBlur stdDeviation="2"/>
<feColorMatrix type="matrix" values="0 0 0 0 0 0 0 0 0 0 0 0 0 0 0 0 0 0 0.05 0"/>
<feBlend mode="normal" in2="BackgroundImageFix" result="effect1_dropShadow_773_479"/>
<feBlend mode="normal" in="SourceGraphic" in2="effect1_dropShadow_773_479" result="shape"/>
</filter>
</defs>
</svg>
