<svg width="100%" height="100%" style="overflow:visible;" preserveAspectRatio="none" viewBox="0 0 22 22" fill="none" xmlns="http://www.w3.org/2000/svg">
<path d="M10.9998 20.1667C9.61382 20.1706 8.24539 19.857 6.99943 19.25C6.54344 19.0282 6.10653 18.7691 5.69318 18.4754L5.5676 18.3837C4.43077 17.5446 3.50132 16.4562 2.8506 15.202C2.17752 13.9039 1.82843 12.4622 1.83305 11C1.83305 5.93737 5.93716 1.83331 10.9998 1.83331C16.0624 1.83331 20.1665 5.93737 20.1665 11C20.1711 12.4615 19.8223 13.9025 19.1499 15.2001C18.5 16.4536 17.5719 17.5417 16.4365 18.381C16.0082 18.6945 15.5537 18.9705 15.078 19.206L15.0047 19.2426C13.7579 19.8529 12.3878 20.169 10.9998 20.1667ZM10.9998 15.5833C9.62612 15.5806 8.36679 16.3478 7.73918 17.5697C9.7938 18.5874 12.2057 18.5874 14.2604 17.5697V17.5651C13.632 16.3446 12.3726 15.5791 10.9998 15.5833ZM10.9998 13.75C12.9854 13.7526 14.8162 14.8226 15.793 16.5513L15.8068 16.5394L15.8196 16.5284L15.804 16.5421L15.7949 16.5495C18.1131 14.5467 18.942 11.3138 17.8735 8.44258C16.805 5.57137 14.0643 3.66694 11.0007 3.66694C7.9371 3.66694 5.19634 5.57137 4.12784 8.44258C3.05933 11.3138 3.88827 14.5467 6.20652 16.5495C7.18392 14.8216 9.0146 13.7524 10.9998 13.75ZM10.9998 12.8333C8.97472 12.8333 7.3331 11.1917 7.3331 9.16665C7.3331 7.1416 8.97472 5.49998 10.9998 5.49998C13.0248 5.49998 14.6664 7.1416 14.6664 9.16665C14.6664 10.1391 14.2801 11.0717 13.5925 11.7594C12.9049 12.447 11.9722 12.8333 10.9998 12.8333ZM10.9998 7.33331C9.98724 7.33331 9.16643 8.15412 9.16643 9.16665C9.16643 10.1792 9.98724 11 10.9998 11C12.0123 11 12.8331 10.1792 12.8331 9.16665C12.8331 8.15412 12.0123 7.33331 10.9998 7.33331Z" fill="#8C98B7"/>
</svg>
