<svg width="100%" height="100%" style="overflow:visible;" preserveAspectRatio="none" viewBox="0 0 27 24" fill="none" xmlns="http://www.w3.org/2000/svg">
<g clip-path="url(#clip0_5009_5224)">
<path d="M26.7593 17.4871C26.6868 17.3767 26.2379 16.4902 24.0777 14.6682C21.8163 12.7604 22.1201 13.0702 24.8439 9.77129C26.5028 7.76221 27.1661 6.53528 26.9585 6.01078C26.761 5.51081 25.5409 5.6427 25.5409 5.6427L21.4838 5.66417C21.4838 5.66417 21.1834 5.62736 20.959 5.74852C20.7413 5.86815 20.6012 6.1442 20.6012 6.1442C20.6012 6.1442 19.9582 7.69933 19.1009 9.02133C17.2935 11.811 16.5695 11.9583 16.2741 11.785C15.5873 11.3816 15.7594 10.1624 15.7594 9.29739C15.7594 6.59356 16.21 5.46633 14.8802 5.17494C14.438 5.07832 14.114 5.0139 12.985 5.00317C11.537 4.98936 10.3101 5.00777 9.61646 5.31603C9.15405 5.52154 8.79796 5.9801 9.01566 6.00618C9.284 6.03838 9.89154 6.15494 10.2139 6.55369C10.6307 7.06746 10.6155 8.22383 10.6155 8.22383C10.6155 8.22383 10.8552 11.4062 10.0569 11.8018C9.50845 12.0733 8.75746 11.5197 7.14578 8.98759C6.32053 7.69166 5.69611 6.25769 5.69611 6.25769C5.69611 6.25769 5.57629 5.99084 5.36196 5.84821C5.10206 5.67491 4.73754 5.61969 4.73754 5.61969L0.879629 5.64117C0.879629 5.64117 0.300774 5.6565 0.0881332 5.88502C-0.100881 6.08899 0.0729446 6.50921 0.0729446 6.50921C0.0729446 6.50921 3.09379 12.9306 6.51292 16.1681C9.65021 19.1358 13.2111 18.941 13.2111 18.941H14.8245C14.8245 18.941 15.3122 18.8919 15.5603 18.6481C15.7898 18.4241 15.7814 18.0039 15.7814 18.0039C15.7814 18.0039 15.7493 16.0363 16.7551 15.7464C17.7457 15.4611 19.0182 17.6481 20.3666 18.4901C21.3859 19.1266 22.1606 18.987 22.1606 18.987L25.767 18.941C25.767 18.941 27.6538 18.8352 26.7593 17.4871Z" fill="#8C98B7"/>
</g>
<defs>
<clipPath id="clip0_5009_5224">
<rect width="27" height="24" fill="white"/>
</clipPath>
</defs>
</svg>
