<svg width="100%" height="100%" style="overflow:visible;" preserveAspectRatio="none" viewBox="0 0 22 22" fill="none" xmlns="http://www.w3.org/2000/svg">
<path d="M10.9999 19.2501C10.4087 18.7257 9.74044 18.1803 9.03369 17.6001H9.02452C6.53577 15.5651 3.71519 13.2624 2.46944 10.5032C2.06016 9.6248 1.84327 8.66909 1.83326 7.70005C1.83053 6.37042 2.36381 5.09579 3.3126 4.16426C4.26138 3.23272 5.54558 2.72292 6.87494 2.75005C7.95718 2.75176 9.01612 3.06455 9.92561 3.65114C10.3252 3.91053 10.6868 4.22429 10.9999 4.58339C11.3148 4.2257 11.6765 3.91212 12.0752 3.65114C12.9843 3.06443 14.043 2.75163 15.1249 2.75005C16.4543 2.72292 17.7385 3.23272 18.6873 4.16426C19.6361 5.09579 20.1693 6.37042 20.1666 7.70005C20.1573 8.67064 19.9404 9.62798 19.5304 10.5078C18.2847 13.267 15.465 15.5687 12.9763 17.6001L12.9671 17.6074C12.2594 18.184 11.5921 18.7294 11.0009 19.2574L10.9999 19.2501ZM6.87494 4.58339C6.02107 4.5727 5.19751 4.89949 4.58327 5.49272C3.99146 6.07404 3.6607 6.87051 3.66653 7.70005C3.67699 8.40635 3.83695 9.10242 4.13594 9.74239C4.72399 10.9329 5.51746 12.0103 6.47986 12.9251C7.38827 13.8417 8.43327 14.7291 9.33711 15.4752C9.58736 15.6815 9.84219 15.8896 10.097 16.0976L10.2574 16.2287C10.5022 16.4286 10.7552 16.6357 10.9999 16.8392L11.0119 16.8282L11.0174 16.8236H11.0229L11.0311 16.8172H11.0357H11.0403L11.0568 16.8035L11.0944 16.7732L11.1008 16.7677L11.1109 16.7604H11.1164L11.1246 16.7531L11.7333 16.2535L11.8928 16.1224C12.1504 15.9125 12.4052 15.7044 12.6554 15.4981C13.5593 14.752 14.6052 13.8656 15.5136 12.9443C16.4761 12.03 17.2696 10.9529 17.8575 9.76255C18.1619 9.11704 18.3242 8.41368 18.3333 7.70005C18.3371 6.87307 18.0065 6.07966 17.4166 5.50005C16.8036 4.90415 15.9798 4.57466 15.1249 4.58339C14.0817 4.57452 13.0844 5.01181 12.3841 5.78514L10.9999 7.38014L9.61577 5.78514C8.9155 5.01181 7.91818 4.57452 6.87494 4.58339Z" fill="#8C98B7"/>
</svg>
