<svg width="100%" height="100%" style="overflow:visible;" preserveAspectRatio="none" viewBox="0 0 24 24" fill="none" xmlns="http://www.w3.org/2000/svg">
<path d="M11.9933 23.9998C8.71516 23.9998 8.32871 23.9825 7.04942 23.9266C6.0518 23.8938 5.0671 23.6913 4.1377 23.3278C2.52968 22.7029 1.25815 21.4327 0.632982 19.8268C0.282918 18.8953 0.0941049 17.9112 0.0746252 16.9166C0 15.6418 0 15.224 0 11.9758C0 8.69304 0.0173237 8.3098 0.0746252 7.03901C0.094531 6.04569 0.283338 5.06297 0.632982 4.13282C1.25748 2.52475 2.53106 1.25348 4.1417 0.630494C5.07271 0.279466 6.0571 0.0904336 7.05208 0.0716121C8.32471 -0.000244141 8.74314 -0.000244141 11.9933 -0.000244141C15.2982 -0.000244141 15.678 0.0170546 16.9373 0.0716121C17.9348 0.0905963 18.9218 0.279609 19.8556 0.630494C21.4658 1.25418 22.7391 2.52521 23.3644 4.13282C23.7203 5.07653 23.9101 6.07461 23.9254 7.08292C24 8.35771 24 8.77421 24 12.021C24 15.2679 23.9813 15.6937 23.9254 16.9538C23.9055 17.9495 23.7163 18.9344 23.3657 19.8667C22.7389 21.4737 21.4655 22.7444 19.8556 23.369C18.9231 23.7179 17.9382 23.9064 16.9426 23.9266C15.67 23.9998 15.2529 23.9998 11.9933 23.9998ZM11.948 2.10621C8.68851 2.10621 8.35003 2.12218 7.0774 2.1794C6.3178 2.18945 5.56555 2.32942 4.8533 2.59324C3.80156 2.99511 2.96932 3.82277 2.56258 4.87135C2.29634 5.59031 2.15615 6.34969 2.14814 7.11619C2.07751 8.40561 2.07751 8.7436 2.07751 11.9758C2.07751 15.1694 2.08951 15.5566 2.14814 16.8381C2.16007 17.5968 2.30018 18.3481 2.56258 19.0603C2.96992 20.1082 3.80201 20.9352 4.8533 21.3371C5.56506 21.6027 6.31762 21.7427 7.0774 21.7509C8.36735 21.8254 8.70716 21.8254 11.948 21.8254C15.2169 21.8254 15.5554 21.8095 16.8173 21.7509C17.5774 21.7417 18.3303 21.6017 19.0428 21.3371C20.0881 20.9317 20.9149 20.1066 21.3215 19.063C21.5872 18.3434 21.7274 17.5837 21.7359 16.8168H21.7506C21.8079 15.5447 21.8079 15.2053 21.8079 11.9545C21.8079 8.70368 21.7932 8.3617 21.7359 7.09091C21.724 6.33302 21.5839 5.5826 21.3215 4.87135C20.9159 3.8262 20.0889 2.99948 19.0428 2.59324C18.3304 2.32809 17.5775 2.18807 16.8173 2.1794C15.5287 2.10621 15.1916 2.10621 11.948 2.10621ZM11.9933 18.1222C9.50137 18.1238 7.25386 16.6261 6.29898 14.3277C5.34411 12.0293 5.86995 9.38276 7.63127 7.62246C9.39259 5.86215 12.0425 5.33478 14.345 6.28629C16.6476 7.2378 18.1494 9.48078 18.1499 11.9691C18.1462 15.3638 15.3929 18.1156 11.9933 18.1222ZM11.9933 7.97447C9.78542 7.97447 7.99556 9.76176 7.99556 11.9665C7.99556 14.1712 9.78542 15.9585 11.9933 15.9585C14.2012 15.9585 15.9911 14.1712 15.9911 11.9665C15.986 9.76388 14.1991 7.97959 11.9933 7.97447ZM18.3898 7.02571C17.5975 7.02277 16.9571 6.37978 16.9586 5.58859C16.9601 4.7974 17.6028 4.15678 18.3951 4.15678C19.1874 4.15678 19.8302 4.79739 19.8316 5.58858C19.832 5.9703 19.6801 6.33645 19.4096 6.60611C19.139 6.87578 18.7721 7.02676 18.3898 7.02571Z" fill="#8C98B7"/>
</svg>
