<svg width="100%" height="100%" style="overflow:visible;" preserveAspectRatio="none" viewBox="0 0 16 16" fill="none" xmlns="http://www.w3.org/2000/svg">
<path d="M14.1746 14.966L9.31685 10.1074C7.15587 11.6437 4.17812 11.2679 2.46659 9.24286C0.755066 7.21781 0.880738 4.21907 2.7557 2.34432C4.63017 0.468752 7.6292 0.342536 9.65463 2.05398C11.6801 3.76542 12.0561 6.74345 10.5196 8.90462L15.3774 13.7632L14.1755 14.9651L14.1746 14.966ZM6.3614 2.55001C4.74955 2.54965 3.35894 3.6811 3.03151 5.25934C2.70407 6.83759 3.52981 8.42885 5.00878 9.06972C6.48775 9.71059 8.21347 9.22493 9.14111 7.90677C10.0688 6.5886 9.94336 4.80024 8.84085 3.62442L9.3551 4.13442L8.7754 3.55642L8.7652 3.54622C8.12922 2.90632 7.26359 2.54758 6.3614 2.55001Z" fill="#8C98B7"/>
</svg>
