<svg width="100%" height="100%" style="overflow:visible;" preserveAspectRatio="none" viewBox="0 0 5.02 6.42" fill="none" xmlns="http://www.w3.org/2000/svg">
<path d="M1.76933 3.27421C1.95134 3.31203 2.11479 3.33056 2.35477 3.33056C3.29457 3.33056 3.9278 2.73502 3.9278 1.97869C3.9278 1.29825 3.43871 1.05282 2.80598 1.05282C2.52712 1.05282 2.31613 1.07185 2.18191 1.10917L1.76933 3.27421ZM1.24159 0.32479C1.63511 0.229874 2.22055 0.173525 2.79607 0.173525C3.40083 0.173525 4.03406 0.29599 4.45604 0.627321C4.83024 0.910818 5.05089 1.32605 5.05089 1.89404C5.05089 2.64987 4.6861 3.26495 4.22548 3.62383C3.70766 4.03029 2.96817 4.22889 2.20072 4.22889C1.97015 4.22889 1.76933 4.20009 1.59647 4.18156L1.12618 6.59229H0.0328369L1.24159 0.32479Z" fill="black"/>
</svg>
