<svg width="100%" height="100%" style="overflow:visible;" preserveAspectRatio="none" viewBox="0 0 4.15 4.81" fill="none" xmlns="http://www.w3.org/2000/svg">
<path d="M2.88577 1.70668C2.18492 1.70668 1.7248 2.321 1.59058 2.87923C2.74163 2.8885 3.48112 2.73723 3.48112 2.17976C3.48112 1.88674 3.24115 1.70668 2.88577 1.70668ZM3.9509 5.32728C3.49002 5.56344 2.86696 5.69592 2.30033 5.69592C1.00616 5.69592 0.38208 4.9118 0.38208 3.78657C0.38208 2.39689 1.41772 0.884483 3.0299 0.884483C3.9509 0.884483 4.53634 1.40414 4.53634 2.17976C4.53634 3.36108 3.27979 3.73899 1.47593 3.70142C1.45636 3.86196 1.49475 4.17375 1.6005 4.35357C1.78302 4.66587 2.11781 4.8264 2.55987 4.8264C3.08812 4.8264 3.50959 4.69392 3.84642 4.52387L3.9509 5.32728Z" fill="black"/>
</svg>
