<svg width="100%" height="100%" style="overflow:visible;" preserveAspectRatio="none" viewBox="0 0 4.71 4.81" fill="none" xmlns="http://www.w3.org/2000/svg">
<path d="M4.01509 1.78212C3.90019 1.75332 3.75656 1.73504 3.55498 1.73504C2.52823 1.73504 1.72214 2.87929 1.72214 3.92863C1.72214 4.40998 1.90441 4.80743 2.39401 4.80743C2.92124 4.80743 3.55498 4.16505 3.77563 2.99249L4.01509 1.78212ZM3.56438 5.5923C3.56438 5.31757 3.60251 4.94942 3.64141 4.56124H3.62209C3.16172 5.40322 2.53764 5.69598 1.94279 5.69598C1.10823 5.69598 0.560669 5.05311 0.560669 4.12698C0.560669 2.55773 1.67384 0.884293 3.85214 0.884293C4.36056 0.884293 4.90761 0.978709 5.2724 1.09216L4.78305 3.49337C4.64832 4.17381 4.57181 5.04384 4.59113 5.5923H3.56438Z" fill="black"/>
</svg>
