<svg width="100%" height="100%" style="overflow:visible;" preserveAspectRatio="none" viewBox="0 0 14.42 13" fill="none" xmlns="http://www.w3.org/2000/svg">
<path d="M1.65283 1.55673C1.69935 2.59555 2.61043 6.55975 2.61043 6.55975C2.94522 7.36266 3.23349 6.55975 3.23349 6.55975C4.33573 3.30304 2.0832 1.41573 2.0832 1.41573C1.50819 1.08465 1.65283 1.55673 1.65283 1.55673ZM14.7315 0.990734C14.7315 0.990734 15.8343 1.74581 14.7315 1.88731C14.7315 1.88731 10.6111 2.35913 7.5451 5.19185C7.5451 5.19185 2.94522 9.15531 1.22093 13.4979C1.22093 13.4979 0.645915 13.4979 0.83835 12.6487C1.02977 11.7992 2.17904 8.07015 7.30488 3.49262C7.30488 3.49262 12.2411 -0.944411 14.7315 0.990734Z" fill="#FF4600"/>
</svg>
