<svg width="100%" height="100%" style="overflow:visible;" preserveAspectRatio="none" viewBox="0 0 4.63 4.71" fill="none" xmlns="http://www.w3.org/2000/svg">
<path d="M0.287354 5.59229L0.892113 2.41571C1.00701 1.86725 1.07413 1.38515 1.13183 0.988459H2.13036L2.02461 1.8109H2.04342C2.47481 1.19607 3.07016 0.884276 3.72271 0.884276C4.39407 0.884276 4.9124 1.28172 4.9124 2.15125C4.9124 2.35886 4.87478 2.68018 4.82648 2.90732L4.31705 5.59229H3.19447L3.69297 2.99247C3.72271 2.82243 3.75118 2.62383 3.75118 2.44401C3.75118 2.05633 3.6073 1.7821 3.166 1.7821C2.65758 1.7821 2.00478 2.38691 1.80345 3.4653L1.40053 5.59229H0.287354Z" fill="black"/>
</svg>
