<svg width="100%" height="100%" style="overflow:visible;" preserveAspectRatio="none" viewBox="0 0 1 1" fill="none" xmlns="http://www.w3.org/2000/svg">
<path d="M0.185665 0.40952H0.267518C0.351405 0.40952 0.406822 0.363439 0.406822 0.293817C0.406822 0.215429 0.348609 0.181119 0.264722 0.181119C0.226083 0.181119 0.198629 0.183874 0.185665 0.186879V0.40952ZM0.105591 0.131783C0.146263 0.12452 0.204476 0.119261 0.258621 0.119261C0.343525 0.119261 0.399958 0.136291 0.437326 0.169349C0.468085 0.196146 0.485879 0.237969 0.485879 0.286053C0.485879 0.365192 0.435292 0.418786 0.370216 0.440073V0.443079C0.417498 0.459107 0.445206 0.502933 0.460967 0.566044C0.480795 0.650192 0.495539 0.709546 0.508503 0.733337H0.425633C0.415719 0.714805 0.401738 0.663465 0.385977 0.587582C0.367166 0.503434 0.332849 0.47238 0.260655 0.469375H0.185665V0.733337H0.105591V0.131783Z" fill="black"/>
</svg>
