<svg width="100%" height="100%" style="overflow:visible;" preserveAspectRatio="none" viewBox="0 0 22 13.47" fill="none" xmlns="http://www.w3.org/2000/svg">
<path d="M21.8251 4.97913C21.6693 4.77971 21.4304 4.66339 21.1772 4.66339H5.0798L4.33914 1.56447C4.25054 1.19416 3.91942 0.932739 3.53867 0.932739H0.822942C0.368416 0.932696 0 1.30111 0 1.75564C0 2.21016 0.368416 2.57858 0.822942 2.57858H2.88911L5.56367 13.7696C5.65227 14.1402 5.98339 14.4013 6.36414 14.4013H19.1747C19.553 14.4013 19.8827 14.1434 19.9735 13.7764L21.976 5.68408C22.0366 5.43834 21.9809 5.17855 21.8251 4.97913ZM18.5309 12.7554H7.0137L5.47313 6.30928H20.1257L18.5309 12.7554Z" fill="#8C98B7"/>
</svg>
