<svg width="100%" height="100%" style="overflow:visible;" preserveAspectRatio="none" viewBox="0 0 22 13.47" fill="none" xmlns="http://www.w3.org/2000/svg">
<path d="M21.8251 4.97901C21.6693 4.77959 21.4304 4.66327 21.1772 4.66327H5.0798L4.33914 1.56435C4.25054 1.19404 3.91942 0.932617 3.53867 0.932617H0.822942C0.368416 0.932574 0 1.30099 0 1.75552C0 2.21004 0.368416 2.57846 0.822942 2.57846H2.88911L5.56367 13.7694C5.65227 14.14 5.98339 14.4012 6.36414 14.4012H19.1747C19.553 14.4012 19.8827 14.1433 19.9735 13.7763L21.976 5.68396C22.0366 5.43822 21.9809 5.17843 21.8251 4.97901ZM18.5309 12.7553H7.0137L5.47313 6.30916H20.1257L18.5309 12.7553Z" fill="#8C98B7"/>
</svg>
