<svg width="100%" height="100%" style="overflow:visible;" preserveAspectRatio="none" viewBox="0 0 32.35 20" fill="none" xmlns="http://www.w3.org/2000/svg">
<path d="M21.3632 17.8645H12.614V2.14069H21.3632V17.8645Z" fill="#FF5F00"/>
<path d="M13.1745 10.0013C13.1745 6.81169 14.6679 3.97044 16.9936 2.13943C15.2929 0.800504 13.1465 0.00134331 10.8139 0.00134331C5.29163 0.00134331 0.815186 4.47842 0.815186 10.0013C0.815186 15.5243 5.29163 20.0013 10.8139 20.0013C13.1465 20.0013 15.2929 19.2022 16.9936 17.8633C14.6679 16.0322 13.1745 13.191 13.1745 10.0013Z" fill="#EB001B"/>
<path d="M33.163 10.0013C33.163 15.5243 28.6866 20.0013 23.1643 20.0013C20.8317 20.0013 18.6853 19.2022 16.984 17.8633C19.3103 16.0322 20.8037 13.191 20.8037 10.0013C20.8037 6.81169 19.3103 3.97044 16.984 2.13943C18.6853 0.800504 20.8317 0.00134331 23.1643 0.00134331C28.6866 0.00134331 33.163 4.47842 33.163 10.0013Z" fill="#F79E1B"/>
</svg>
