<svg width="100%" height="100%" style="overflow:visible;" preserveAspectRatio="none" viewBox="0 0 11.42 13.47" fill="none" xmlns="http://www.w3.org/2000/svg">
<path d="M3.56866 13.018L3.80219 11.5347L3.28199 11.5226H0.797974L2.52424 0.576944C2.5296 0.543901 2.54701 0.513091 2.57246 0.491211C2.59791 0.469332 2.63051 0.457275 2.66445 0.457275H6.85284C8.24332 0.457275 9.2029 0.746623 9.7039 1.31773C9.93877 1.58564 10.0884 1.86561 10.1607 2.17372C10.2366 2.497 10.2379 2.88324 10.1638 3.35433L10.1585 3.38871V3.69056L10.3933 3.82362C10.5911 3.92856 10.7483 4.04867 10.8689 4.1862C11.0698 4.41527 11.1998 4.7064 11.2547 5.05156C11.3114 5.40655 11.2926 5.82896 11.1998 6.30719C11.0926 6.85731 10.9193 7.33643 10.6854 7.72848C10.4701 8.08972 10.196 8.38934 9.87046 8.62153C9.55967 8.84211 9.1904 9.00956 8.7729 9.11672C8.36835 9.2221 7.90709 9.27524 7.40118 9.27524H7.07521C6.84213 9.27524 6.61574 9.35919 6.43802 9.50967C6.25986 9.66327 6.14198 9.87314 6.10581 10.1026L6.08125 10.2362L5.66866 12.8506L5.64991 12.9466C5.645 12.9769 5.63651 12.9921 5.62401 13.0024C5.61285 13.0118 5.59677 13.018 5.58114 13.018H3.56866Z" fill="#253B80"/>
<path d="M10.6155 3.42346C10.603 3.50339 10.5887 3.5851 10.5727 3.66905C10.0203 6.50493 8.13062 7.4846 5.71716 7.4846H4.48832C4.19317 7.4846 3.94446 7.69893 3.89847 7.99007L3.26931 11.9802L3.09115 13.1113C3.06123 13.3024 3.20859 13.4747 3.40148 13.4747H5.58097C5.83906 13.4747 6.0583 13.2872 6.09894 13.0327L6.12037 12.9219L6.53073 10.3178L6.55707 10.1749C6.59726 9.9195 6.81695 9.73196 7.07504 9.73196H7.401C9.51262 9.73196 11.1657 8.87463 11.6488 6.39374C11.8506 5.35736 11.7461 4.49199 11.2121 3.88338C11.0504 3.69986 10.85 3.5476 10.6155 3.42346Z" fill="#179BD7"/>
<path d="M10.0378 3.19313C9.95343 3.16857 9.86636 3.14624 9.77705 3.12615C9.6873 3.1065 9.59532 3.08909 9.50065 3.07391C9.16933 3.02032 8.80631 2.99487 8.41739 2.99487H5.13454C5.05372 2.99487 4.97692 3.01318 4.90815 3.04622C4.75678 3.11901 4.64426 3.26234 4.61702 3.43783L3.91865 7.8611L3.89856 7.99014C3.94455 7.69901 4.19327 7.48468 4.48842 7.48468H5.71725C8.13072 7.48468 10.0204 6.50455 10.5728 3.66913C10.5893 3.58518 10.6031 3.50346 10.6156 3.42354C10.4759 3.34941 10.3245 3.28601 10.1615 3.23198C10.1213 3.21858 10.0798 3.20563 10.0378 3.19313Z" fill="#222D65"/>
<path d="M4.61698 3.43779C4.64422 3.26231 4.75674 3.11897 4.90811 3.04664C4.97732 3.01359 5.05368 2.99529 5.1345 2.99529H8.41735C8.80627 2.99529 9.16929 3.02074 9.50061 3.07432C9.59528 3.0895 9.68726 3.10692 9.77701 3.12656C9.86632 3.14666 9.95339 3.16898 10.0378 3.19354C10.0798 3.20605 10.1213 3.21899 10.1619 3.23194C10.3249 3.28597 10.4763 3.34983 10.616 3.4235C10.7804 2.37551 10.6147 1.66196 10.0481 1.01584C9.42337 0.30453 8.29589 0 6.85317 0H2.66477C2.37007 0 2.11867 0.214332 2.07313 0.505912L0.328557 11.5641C0.294175 11.7829 0.462961 11.9802 0.683544 11.9802H3.26937L3.91861 7.86106L4.61698 3.43779Z" fill="#253B80"/>
</svg>
