<svg width="100%" height="100%" style="overflow:visible;" preserveAspectRatio="none" viewBox="0 0 40 17.97" fill="none" xmlns="http://www.w3.org/2000/svg">
<path d="M20.0996 10.6397H20.7268V12.0454H21.18L21.9932 10.6397H22.6789L21.7029 12.2895V12.3011L22.7371 14.1015H22.0282L21.1916 12.5911H20.7387V14.1015H20.1112V10.6393H20.0996V10.6397ZM24.1428 11.5576C24.8975 11.5576 25.5135 12.1036 25.5135 12.8586C25.5135 13.6256 24.9094 14.16 24.1544 14.16C23.3989 14.16 22.7948 13.6256 22.7948 12.8586C22.7833 12.092 23.3874 11.5576 24.1428 11.5576ZM26.0014 11.6154H26.5939V13.5675H27.3724V11.6157H27.9646V13.5675H28.7432V11.6157H29.3357V14.1015H26.0245V11.6154H26.0014ZM31.0903 11.5576C31.7987 11.5576 32.1938 12.0805 32.1938 12.7312C32.1918 12.8129 32.1841 12.8943 32.1707 12.9749H30.4627C30.4977 13.4046 30.8346 13.6372 31.2065 13.6372C31.4618 13.6372 31.7175 13.5209 31.915 13.3699L32.1591 13.8116C31.9035 14.0318 31.52 14.1716 31.16 14.1716C30.3349 14.1716 29.8239 13.579 29.8239 12.8702C29.8239 12.092 30.3464 11.5576 31.0903 11.5576ZM32.4841 13.579C32.7863 13.5324 33.007 13.2771 33.007 12.3939V11.6157H34.8197V14.1015H34.2036V12.1148H33.5995V12.3935C33.5995 13.4739 33.3092 14.1015 32.4841 14.1246V13.5787V13.579ZM36.5854 11.5576C37.2939 11.5576 37.6889 12.0805 37.6889 12.7312C37.687 12.8129 37.6793 12.8943 37.6658 12.9749H35.9578C35.9929 13.4046 36.3298 13.6372 36.7017 13.6372C36.957 13.6372 37.2127 13.5209 37.4102 13.3699L37.6543 13.8116C37.3986 14.0318 37.0151 14.1716 36.6551 14.1716C35.8304 14.1716 35.3191 13.579 35.3191 12.8702C35.3191 12.092 35.8419 11.5576 36.5854 11.5576ZM38.2002 11.6154H38.8159V12.5683H39.1182L39.7223 11.6157H40.4076L39.6175 12.8005V12.8124L40.5004 14.1015H39.7804L39.1297 13.0912H38.8047V14.1015H38.1883V11.6154H38.1999H38.2002ZM24.1428 13.6256C24.5494 13.6256 24.8863 13.3118 24.8863 12.8471C24.8863 12.3939 24.5494 12.0686 24.1424 12.0686C23.7362 12.0686 23.4109 12.3827 23.4109 12.8471C23.4109 13.3118 23.7358 13.6256 24.1428 13.6256ZM31.5666 12.5452C31.5666 12.2199 31.3456 12.0223 31.0668 12.0223C30.7534 12.0223 30.5208 12.2314 30.4627 12.5452H31.5666ZM37.0617 12.5452C37.0617 12.2199 36.8411 12.0223 36.5623 12.0223C36.2482 12.0223 36.016 12.2314 35.9578 12.5452H37.0617Z" fill="#2D3540"/>
<path d="M28.7778 3.09975V8.96683C28.7782 8.9883 28.7744 9.00965 28.7664 9.02959C28.7584 9.04953 28.7464 9.06764 28.7313 9.08283C28.7161 9.09802 28.698 9.10997 28.678 9.11796C28.6581 9.12595 28.6367 9.12981 28.6153 9.12932H27.4186C27.3971 9.12981 27.3758 9.12595 27.3558 9.11796C27.3359 9.10997 27.3178 9.09802 27.3026 9.08283C27.2874 9.06764 27.2755 9.04953 27.2675 9.02959C27.2595 9.00965 27.2556 8.9883 27.2561 8.96683V3.09975C27.2556 3.07827 27.2595 3.05692 27.2675 3.03698C27.2755 3.01705 27.2874 2.99894 27.3026 2.98375C27.3178 2.96856 27.3359 2.95661 27.3558 2.94862C27.3758 2.94063 27.3971 2.93676 27.4186 2.93725H28.6153C28.6367 2.93676 28.6581 2.94063 28.678 2.94862C28.698 2.95661 28.7161 2.96856 28.7313 2.98375C28.7464 2.99894 28.7584 3.01705 28.7664 3.03698C28.7744 3.05692 28.7782 3.07827 28.7778 3.09975ZM38.1186 2.93725C38.1652 2.93725 38.2233 2.96036 38.2811 3.00695C38.3161 3.04161 38.3161 3.09975 38.3045 3.14633L36.3293 9.02496C36.3174 9.05538 36.2966 9.08157 36.2698 9.10021C36.2429 9.11885 36.2111 9.1291 36.1784 9.12968H35.1096C35.0399 9.12968 34.9817 9.09466 34.9586 9.02496L33.8078 5.59781L32.6577 9.0246C32.6457 9.05502 32.625 9.08121 32.5981 9.09985C32.5713 9.11849 32.5395 9.12874 32.5068 9.12932H31.4379C31.3683 9.12932 31.3101 9.09466 31.287 9.0246L29.3118 3.14597C29.3003 3.09975 29.3003 3.05317 29.3349 3.00695C29.3584 2.96036 29.4165 2.93725 29.4628 2.93725H30.7988C30.8685 2.93725 30.9266 2.98347 30.9501 3.05317L32.007 6.5269L33.169 3.05317C33.181 3.02274 33.2018 2.99656 33.2286 2.97792C33.2555 2.95928 33.2873 2.94903 33.32 2.94845H34.261C34.3307 2.94845 34.3888 2.98347 34.4119 3.05317L35.5739 6.5269L36.6312 3.05317C36.6407 3.02026 36.6605 2.99125 36.6876 2.97039C36.7148 2.94953 36.7479 2.93792 36.7822 2.93725H38.1182H38.1186ZM40.14 2.93725C40.2212 2.93725 40.2909 3.00695 40.3025 3.09975V8.96683C40.303 8.9883 40.2991 9.00965 40.2911 9.02959C40.2831 9.04953 40.2712 9.06764 40.256 9.08283C40.2408 9.09802 40.2227 9.10997 40.2028 9.11796C40.1828 9.12595 40.1615 9.12981 40.14 9.12932H38.9433C38.9218 9.12981 38.9005 9.12595 38.8806 9.11796C38.8606 9.10997 38.8425 9.09802 38.8273 9.08283C38.8121 9.06764 38.8002 9.04953 38.7922 9.02959C38.7842 9.00965 38.7803 8.9883 38.7808 8.96683V3.09975C38.7803 3.07827 38.7842 3.05692 38.7922 3.03698C38.8002 3.01705 38.8121 2.99894 38.8273 2.98375C38.8425 2.96856 38.8606 2.95661 38.8806 2.94862C38.9005 2.94063 38.9218 2.93676 38.9433 2.93725H40.14ZM26.5588 8.92061C26.6285 9.00185 26.5704 9.11777 26.4657 9.11777H25.0018C24.973 9.11854 24.9443 9.11266 24.9182 9.10057C24.892 9.08848 24.8689 9.07052 24.8508 9.04807L24.6071 8.7462C24.0958 9.07118 23.4913 9.26906 22.8525 9.26906C21.0637 9.26906 19.6113 7.81674 19.6113 6.02751C19.6113 4.23828 21.0637 2.78595 22.8525 2.78595C24.6418 2.78595 26.0941 4.23828 26.0941 6.02751C26.0941 6.66665 25.9081 7.27076 25.5828 7.78171L26.5588 8.92025V8.92061ZM14.3249 11.7668C14.6271 11.883 14.7434 12.3358 14.7665 12.5334C14.8131 12.8937 14.7087 13.0331 14.5925 13.0331C14.4762 13.0331 14.3133 12.8937 14.1393 12.615C13.9649 12.3358 13.8952 12.0224 13.9884 11.8596C14.0461 11.7548 14.174 11.7086 14.3253 11.7668H14.3249ZM12.5591 13.0797C12.7451 13.0797 12.9542 13.161 13.1401 13.3234C13.5002 13.6257 13.6049 13.9741 13.4189 14.2298C13.3142 14.3576 13.1401 14.4389 12.9426 14.4389C12.7451 14.4389 12.536 14.3692 12.3967 14.2414C12.0713 13.9626 11.9785 13.4975 12.1872 13.2422C12.2688 13.1375 12.3967 13.0797 12.5591 13.0797ZM8.49321 16.4372C4.0781 16.4372 0.5 12.8587 0.5 8.44396C0.5 4.02921 4.07846 0.451111 8.49285 0.451111C12.9076 0.451111 16.4861 4.02957 16.4861 8.44396C16.4861 9.94251 16.0679 11.3486 15.3594 12.5453C15.336 12.58 15.2778 12.5684 15.2663 12.5218C14.9875 10.5585 13.7908 9.47778 12.0482 9.15279C11.8969 9.12932 11.8738 9.03652 12.0713 9.01341C12.6057 8.96683 13.3608 8.97838 13.7558 9.04807C13.7789 8.85056 13.7908 8.64148 13.7908 8.43241C13.7908 5.5162 11.4206 3.14597 8.5044 3.14597C5.58856 3.14597 3.21833 5.5162 3.21833 8.43241C3.21833 11.3486 5.58856 13.7188 8.50477 13.7188H8.74851C8.6657 13.2472 8.63062 12.7683 8.64379 12.2896C8.6557 11.9643 8.7254 11.9177 8.86478 12.1734C9.59672 13.4397 10.6425 14.5783 12.687 15.0314C14.3599 15.4034 16.0329 15.8331 17.8337 18.1217C17.9962 18.3192 17.7524 18.5283 17.5665 18.3658C15.731 16.739 14.0581 16.2046 12.536 16.2046C10.8281 16.2165 9.66641 16.4372 8.49285 16.4372H8.49321ZM23.6542 7.61922L23.015 6.8407C22.9457 6.75945 23.0038 6.63162 23.1082 6.63162H24.4558C24.5255 6.44566 24.5605 6.23658 24.5605 6.02751C24.5605 5.06339 23.8401 4.22673 22.8525 4.22673C21.8653 4.22673 21.1446 5.06339 21.1446 6.02751C21.1446 6.99164 21.8653 7.81674 22.8525 7.81674C23.1313 7.82829 23.4104 7.74705 23.6542 7.61922Z" fill="#FF8C00"/>
</svg>
