<svg width="28" height="5" viewBox="0 0 28 5" fill="none" xmlns="http://www.w3.org/2000/svg">
<path d="M5.33933 3.06459C5.33933 2.6278 5.62557 2.26896 6.09331 2.26896C6.54022 2.26896 6.84194 2.61232 6.84194 3.06459C6.84194 3.51686 6.54022 3.86023 6.09331 3.86023C5.62557 3.86023 5.33933 3.50139 5.33933 3.06459ZM7.35134 3.06459V1.82204H6.81099V2.12375C6.63961 1.9 6.37955 1.75956 6.02607 1.75956C5.32921 1.75956 4.78292 2.30585 4.78292 3.06459C4.78292 3.82393 5.32921 4.36963 6.02607 4.36963C6.37955 4.36963 6.63961 4.22919 6.81099 4.00543V4.30714H7.35134V3.06459ZM25.6111 3.06459C25.6111 2.6278 25.8974 2.26896 26.3651 2.26896C26.8126 2.26896 27.1137 2.61232 27.1137 3.06459C27.1137 3.51686 26.8126 3.86023 26.3651 3.86023C25.8974 3.86023 25.6111 3.50139 25.6111 3.06459ZM27.6237 3.06459V0.824073H27.0828V2.12375C26.9114 1.9 26.6513 1.75956 26.2979 1.75956C25.601 1.75956 25.0547 2.30585 25.0547 3.06459C25.0547 3.82393 25.601 4.36963 26.2979 4.36963C26.6513 4.36963 26.9114 4.22919 27.0828 4.00543V4.30714H27.6237V3.06459ZM14.0586 2.24337C14.4067 2.24337 14.6305 2.46177 14.6876 2.84619H13.3981C13.4558 2.48735 13.6736 2.24337 14.0586 2.24337ZM14.0693 1.75956C13.3409 1.75956 12.8315 2.28978 12.8315 3.06459C12.8315 3.85487 13.3618 4.36963 14.1056 4.36963C14.4799 4.36963 14.8227 4.2762 15.1244 4.0215L14.8596 3.621C14.6513 3.78703 14.3859 3.88106 14.1366 3.88106C13.7884 3.88106 13.4713 3.71979 13.3933 3.27228H15.2387C15.244 3.20503 15.2494 3.13719 15.2494 3.06459C15.244 2.28978 14.7656 1.75956 14.0693 1.75956ZM20.5939 3.06459C20.5939 2.6278 20.8802 2.26896 21.3479 2.26896C21.7948 2.26896 22.0965 2.61232 22.0965 3.06459C22.0965 3.51686 21.7948 3.86023 21.3479 3.86023C20.8802 3.86023 20.5939 3.50139 20.5939 3.06459ZM22.6059 3.06459V1.82204H22.0656V2.12375C21.8936 1.9 21.6341 1.75956 21.2806 1.75956C20.5838 1.75956 20.0375 2.30585 20.0375 3.06459C20.0375 3.82393 20.5838 4.36963 21.2806 4.36963C21.6341 4.36963 21.8936 4.22919 22.0656 4.00543V4.30714H22.6059V3.06459ZM17.5423 3.06459C17.5423 3.81857 18.0672 4.36963 18.8681 4.36963C19.2425 4.36963 19.4918 4.28632 19.762 4.07327L19.5025 3.63648C19.2996 3.78227 19.0865 3.86023 18.8521 3.86023C18.4206 3.85487 18.1035 3.54305 18.1035 3.06459C18.1035 2.58614 18.4206 2.27431 18.8521 2.26896C19.0865 2.26896 19.2996 2.34691 19.5025 2.49271L19.762 2.05591C19.4918 1.84287 19.2425 1.75956 18.8681 1.75956C18.0672 1.75956 17.5423 2.31061 17.5423 3.06459ZM24.509 1.75956C24.1972 1.75956 23.9943 1.90535 23.8538 2.12375V1.82204H23.3182V4.30714H23.8592V2.91403C23.8592 2.50283 24.0359 2.27431 24.3894 2.27431C24.4989 2.27431 24.6132 2.28978 24.7274 2.3368L24.894 1.8274C24.7744 1.78038 24.6185 1.75956 24.509 1.75956ZM10.0239 2.01961C9.76384 1.84823 9.40559 1.75956 9.01045 1.75956C8.38084 1.75956 7.97559 2.06127 7.97559 2.55519C7.97559 2.96045 8.2773 3.21039 8.83311 3.28835L9.08841 3.32465C9.38476 3.3663 9.52461 3.44426 9.52461 3.5847C9.52461 3.77692 9.32704 3.88641 8.95808 3.88641C8.58377 3.88641 8.3136 3.7668 8.1315 3.62636L7.8768 4.04709C8.17316 4.26549 8.54747 4.36963 8.95273 4.36963C9.67041 4.36963 10.0864 4.03162 10.0864 3.55852C10.0864 3.12172 9.75908 2.89321 9.21814 2.81525L8.96344 2.77835C8.72957 2.74741 8.54211 2.70099 8.54211 2.53437C8.54211 2.35227 8.71886 2.24337 9.01521 2.24337C9.33239 2.24337 9.63946 2.36298 9.79002 2.45641L10.0239 2.01961ZM16.996 1.75956C16.6842 1.75956 16.4812 1.90535 16.3414 2.12375V1.82204H15.8058V4.30714H16.3461V2.91403C16.3461 2.50283 16.5229 2.27431 16.8764 2.27431C16.9859 2.27431 17.1001 2.28978 17.2144 2.3368L17.381 1.8274C17.2614 1.78038 17.1055 1.75956 16.996 1.75956ZM12.3846 1.82204H11.5009V1.06806H10.9546V1.82204H10.4506V2.31597H10.9546V3.44962C10.9546 4.02626 11.1784 4.36963 11.8175 4.36963C12.052 4.36963 12.3221 4.29703 12.4935 4.17741L12.3376 3.71443C12.1763 3.80786 11.9996 3.85487 11.8592 3.85487C11.589 3.85487 11.5009 3.68825 11.5009 3.43891V2.31597H12.3846V1.82204ZM4.30506 4.30714V2.74741C4.30506 2.16005 3.93075 1.76491 3.32733 1.75956C3.01014 1.7542 2.68284 1.85299 2.45373 2.20171C2.28235 1.92618 2.01217 1.75956 1.6325 1.75956C1.36709 1.75956 1.10763 1.83751 0.904708 2.12851V1.82204H0.36377V4.30714H0.909468V2.92951C0.909468 2.49807 1.14869 2.26896 1.51825 2.26896C1.87709 2.26896 2.05859 2.50283 2.05859 2.92415V4.30714H2.60488V2.92951C2.60488 2.49807 2.85423 2.26896 3.21307 2.26896C3.58202 2.26896 3.75877 2.50283 3.75877 2.92415V4.30714H4.30506Z" fill="white"/>
</svg>

