<svg width="100%" height="100%" style="overflow:visible;" preserveAspectRatio="none" viewBox="0 0 275.03 37" fill="none" xmlns="http://www.w3.org/2000/svg">
<path d="M1.63561 17.0252H9.01951V34.6527H1.63561V17.0252ZM5.32756 15.6072C3.99889 15.6072 2.92072 15.2635 2.09302 14.576C1.28711 13.867 0.884155 12.9755 0.884155 11.9013C0.884155 10.8271 1.28711 9.94624 2.09302 9.25876C2.92072 8.54979 3.99889 8.19531 5.32756 8.19531C6.67801 8.19531 7.75618 8.52831 8.5621 9.19431C9.36801 9.86031 9.77096 10.7197 9.77096 11.7724C9.77096 12.8895 9.36801 13.8133 8.5621 14.5438C7.75618 15.2528 6.67801 15.6072 5.32756 15.6072Z" fill="#011A6C"/>
<path d="M28.6579 35.3402C26.1313 35.3402 23.6627 35.068 21.2522 34.5238C18.8708 33.9509 16.9105 33.1918 15.3713 32.2465L18.682 24.8561C20.1341 25.6868 21.7605 26.3599 23.5611 26.8755C25.3617 27.3625 27.0897 27.606 28.745 27.606C30.1681 27.606 31.1846 27.4771 31.7944 27.2193C32.4043 26.9328 32.7093 26.5175 32.7093 25.9732C32.7093 25.343 32.3027 24.8704 31.4895 24.5553C30.7054 24.2402 29.3985 23.8964 27.5688 23.5241C25.2165 23.0371 23.2561 22.5215 21.6879 21.9772C20.1196 21.4043 18.7546 20.4877 17.593 19.2273C16.4313 17.9382 15.8505 16.2052 15.8505 14.0282C15.8505 12.1376 16.3877 10.4189 17.4623 8.87205C18.5368 7.32521 20.1341 6.10779 22.2542 5.21979C24.4033 4.33179 27.0025 3.88779 30.0519 3.88779C32.1429 3.88779 34.1904 4.11695 36.1943 4.57528C38.2272 5.00495 40.0133 5.64947 41.5525 6.50882L38.4595 13.8563C35.4682 12.3668 32.6367 11.622 29.9648 11.622C27.322 11.622 26.0006 12.2522 26.0006 13.5126C26.0006 14.1141 26.3927 14.5724 27.1768 14.8875C27.9609 15.174 29.2533 15.4891 31.0539 15.8328C33.3772 16.2625 35.3375 16.7638 36.9348 17.3367C38.5321 17.881 39.9116 18.7833 41.0733 20.0437C42.264 21.3041 42.8594 23.0228 42.8594 25.1998C42.8594 27.0904 42.3221 28.8091 41.2476 30.3559C40.173 31.8741 38.5612 33.0915 36.4121 34.0082C34.292 34.8962 31.7073 35.3402 28.6579 35.3402Z" fill="#011A6C"/>
<path d="M66.3138 10.7197C69.247 10.7197 71.5994 11.5933 73.371 13.3407C75.1716 15.088 76.0719 17.7234 76.0719 21.2468V34.6527H66.2267V22.9225C66.2267 20.2299 65.2538 18.8835 63.308 18.8835C62.2044 18.8835 61.3041 19.2702 60.6071 20.0437C59.9391 20.7884 59.6051 21.9772 59.6051 23.61V34.6527H49.7599V2.77063H59.6051V13.0399C61.4348 11.4931 63.671 10.7197 66.3138 10.7197Z" fill="#011A6C"/>
<path d="M95.1666 10.7197C99.3486 10.7197 102.543 11.6506 104.75 13.5126C106.958 15.3459 108.061 18.1817 108.061 22.0202V34.6527H98.913V31.559C97.7804 33.9079 95.5296 35.0824 92.1608 35.0824C90.273 35.0824 88.6612 34.7673 87.3253 34.1371C86.0184 33.4782 85.0165 32.6046 84.3195 31.5161C83.6515 30.3989 83.3175 29.1528 83.3175 27.7779C83.3175 25.4576 84.2178 23.6959 86.0184 22.4928C87.819 21.2897 90.5489 20.6882 94.2082 20.6882H98.1724C97.853 18.8549 96.3573 17.9382 93.6855 17.9382C92.6109 17.9382 91.5218 18.1101 90.4182 18.4539C89.3147 18.769 88.3708 19.213 87.5867 19.7859L84.4501 13.3837C85.8151 12.553 87.456 11.9084 89.3727 11.4501C91.3185 10.9631 93.2498 10.7197 95.1666 10.7197ZM95.123 29.2388C95.82 29.2388 96.4444 29.0526 96.9962 28.6802C97.548 28.3078 97.9546 27.7492 98.216 27.0044V25.3717H95.7765C93.7726 25.3717 92.7706 26.0305 92.7706 27.3482C92.7706 27.8924 92.9739 28.3508 93.3805 28.7231C93.8161 29.0669 94.397 29.2388 95.123 29.2388Z" fill="#011A6C"/>
<path d="M125.828 13.6844C127.571 11.7079 130.141 10.7197 133.539 10.7197V19.3132C132.755 19.1986 132.029 19.1413 131.361 19.1413C127.992 19.1413 126.307 20.8314 126.307 24.2115V34.6527H116.462V11.1493H125.828V13.6844Z" fill="#011A6C"/>
<path d="M140.475 2.77063H150.321V34.6527H140.475V2.77063Z" fill="#011A6C"/>
<path d="M171.42 35.0824C168.777 35.0824 166.396 34.5668 164.276 33.5355C162.185 32.4757 160.544 31.0291 159.353 29.1958C158.163 27.3339 157.567 25.2284 157.567 22.8795C157.567 20.5306 158.163 18.4395 159.353 16.6062C160.544 14.7443 162.185 13.2977 164.276 12.2665C166.396 11.2353 168.777 10.7197 171.42 10.7197C174.092 10.7197 176.474 11.2353 178.565 12.2665C180.685 13.2977 182.326 14.7443 183.487 16.6062C184.678 18.4395 185.273 20.5306 185.273 22.8795C185.273 25.2284 184.678 27.3339 183.487 29.1958C182.326 31.0291 180.685 32.4757 178.565 33.5355C176.474 34.5668 174.092 35.0824 171.42 35.0824ZM171.42 27.52C172.553 27.52 173.482 27.119 174.208 26.317C174.934 25.4862 175.297 24.3404 175.297 22.8795C175.297 21.4186 174.934 20.2871 174.208 19.4851C173.482 18.683 172.553 18.282 171.42 18.282C170.288 18.282 169.358 18.683 168.632 19.4851C167.906 20.2871 167.543 21.4186 167.543 22.8795C167.543 24.3404 167.906 25.4862 168.632 26.317C169.358 27.119 170.288 27.52 171.42 27.52Z" fill="#011A6C"/>
<path d="M210.057 33.8363C208.576 34.667 206.557 35.0824 204.001 35.0824C200.662 35.0824 198.091 34.2946 196.291 32.7191C194.49 31.115 193.59 28.7231 193.59 25.5435V19.528H190.323V12.4384H193.59V5.86431H203.435V12.4384H208.314V19.528H203.435V25.4576C203.435 26.1737 203.624 26.7323 204.001 27.1333C204.379 27.5344 204.873 27.7349 205.483 27.7349C206.325 27.7349 207.065 27.52 207.704 27.0904L210.057 33.8363Z" fill="#011A6C"/>
<path d="M228.098 27.4341L226.529 29.1099V34.6527H216.684V2.77063H226.529V17.9812L233.369 11.1493H245L235.155 21.3327L245.784 34.6527H233.892L228.098 27.4341Z" fill="#011A6C"/>
<path d="M262.133 10.7197C266.316 10.7197 269.51 11.6506 271.717 13.5126C273.924 15.3459 275.028 18.1817 275.028 22.0202V34.6527H265.88V31.559C264.747 33.9079 262.497 35.0824 259.128 35.0824C257.24 35.0824 255.628 34.7673 254.292 34.1371C252.985 33.4782 251.983 32.6046 251.286 31.5161C250.618 30.3989 250.284 29.1528 250.284 27.7779C250.284 25.4576 251.185 23.6959 252.985 22.4928C254.786 21.2897 257.516 20.6882 261.175 20.6882H265.139C264.82 18.8549 263.324 17.9382 260.652 17.9382C259.578 17.9382 258.489 18.1101 257.385 18.4539C256.282 18.769 255.338 19.213 254.554 19.7859L251.417 13.3837C252.782 12.553 254.423 11.9084 256.34 11.4501C258.285 10.9631 260.217 10.7197 262.133 10.7197ZM262.09 29.2388C262.787 29.2388 263.411 29.0526 263.963 28.6802C264.515 28.3078 264.922 27.7492 265.183 27.0044V25.3717H262.743C260.739 25.3717 259.738 26.0305 259.738 27.3482C259.738 27.8924 259.941 28.3508 260.347 28.7231C260.783 29.0669 261.364 29.2388 262.09 29.2388Z" fill="#011A6C"/>
</svg>
