<svg width="100%" height="100%" style="overflow:visible;" preserveAspectRatio="none" viewBox="0 0 338 24" fill="none" xmlns="http://www.w3.org/2000/svg">
<path d="M210.29 9.19481V11.2779H209.632V9.79806H203.801L203.791 11.2779H203.133L203.142 9.19481H203.476C203.915 9.16967 204.221 8.8272 204.393 8.16739C204.564 7.50129 204.669 6.5587 204.707 5.33962L204.784 3.19995H209.288V9.19481H210.29ZM205.337 5.40561C205.306 6.41103 205.226 7.24051 205.099 7.89403C204.978 8.54128 204.771 8.97487 204.478 9.19481H208.591V3.80321H205.395L205.337 5.40561Z" fill="#8C98B7"/>
<path d="M216.038 7.52643H211.84C211.878 8.04171 212.078 8.45959 212.441 8.78007C212.803 9.09426 213.261 9.25136 213.815 9.25136C214.127 9.25136 214.413 9.19795 214.674 9.09112C214.935 8.97801 215.16 8.81463 215.351 8.60098L215.733 9.03457C215.51 9.29849 215.23 9.49958 214.893 9.63782C214.562 9.77607 214.197 9.84519 213.796 9.84519C213.281 9.84519 212.822 9.73836 212.422 9.52471C212.027 9.30477 211.719 9.00315 211.496 8.61983C211.273 8.23651 211.162 7.80292 211.162 7.31906C211.162 6.8352 211.267 6.40161 211.477 6.01829C211.693 5.63497 211.986 5.33648 212.355 5.12283C212.73 4.90918 213.15 4.80235 213.615 4.80235C214.079 4.80235 214.496 4.90918 214.865 5.12283C215.234 5.33648 215.523 5.63497 215.733 6.01829C215.943 6.39532 216.048 6.82891 216.048 7.31906L216.038 7.52643ZM213.615 5.37733C213.131 5.37733 212.724 5.53128 212.393 5.8392C212.069 6.14082 211.884 6.53671 211.84 7.02686H215.399C215.354 6.53671 215.167 6.14082 214.836 5.8392C214.512 5.53128 214.104 5.37733 213.615 5.37733Z" fill="#8C98B7"/>
<path d="M221.769 4.84005V9.79806H221.091V5.43388H218.687L218.62 6.65925C218.569 7.68981 218.448 8.48158 218.257 9.03457C218.066 9.58755 217.726 9.86404 217.236 9.86404C217.102 9.86404 216.94 9.83891 216.749 9.78864L216.797 9.21366C216.912 9.23879 216.991 9.25136 217.036 9.25136C217.296 9.25136 217.494 9.13197 217.627 8.89318C217.761 8.65439 217.85 8.35905 217.894 8.00715C217.939 7.65525 217.977 7.19024 218.009 6.61212L218.095 4.84005H221.769Z" fill="#8C98B7"/>
<path d="M225.642 4.80235C226.298 4.80235 226.8 4.96573 227.15 5.29249C227.5 5.61297 227.675 6.09055 227.675 6.72523V9.79806H227.026V9.02514C226.873 9.28278 226.648 9.48387 226.349 9.6284C226.056 9.77293 225.706 9.84519 225.299 9.84519C224.739 9.84519 224.294 9.71323 223.963 9.4493C223.632 9.18538 223.467 8.83662 223.467 8.40303C223.467 7.98201 223.619 7.64268 223.925 7.38504C224.236 7.1274 224.729 6.99858 225.404 6.99858H226.997V6.69695C226.997 6.26964 226.877 5.94602 226.635 5.72608C226.393 5.49986 226.04 5.38675 225.576 5.38675C225.257 5.38675 224.952 5.44017 224.659 5.54699C224.367 5.64754 224.116 5.78892 223.906 5.97116L223.6 5.47159C223.855 5.25793 224.16 5.09455 224.516 4.98144C224.873 4.86205 225.248 4.80235 225.642 4.80235ZM225.404 9.31734C225.786 9.31734 226.113 9.23251 226.387 9.06284C226.66 8.88689 226.864 8.63554 226.997 8.30877V7.49815H225.423C224.564 7.49815 224.135 7.79349 224.135 8.38418C224.135 8.67324 224.246 8.9026 224.469 9.07227C224.691 9.23565 225.003 9.31734 225.404 9.31734Z" fill="#8C98B7"/>
<path d="M234.089 7.52643H229.89C229.928 8.04171 230.128 8.45959 230.491 8.78007C230.854 9.09426 231.312 9.25136 231.865 9.25136C232.177 9.25136 232.463 9.19795 232.724 9.09112C232.985 8.97801 233.211 8.81463 233.401 8.60098L233.783 9.03457C233.561 9.29849 233.281 9.49958 232.943 9.63782C232.613 9.77607 232.247 9.84519 231.846 9.84519C231.331 9.84519 230.873 9.73836 230.472 9.52471C230.077 9.30477 229.769 9.00315 229.546 8.61983C229.324 8.23651 229.212 7.80292 229.212 7.31906C229.212 6.8352 229.317 6.40161 229.527 6.01829C229.743 5.63497 230.036 5.33648 230.405 5.12283C230.78 4.90918 231.2 4.80235 231.665 4.80235C232.129 4.80235 232.546 4.90918 232.915 5.12283C233.284 5.33648 233.573 5.63497 233.783 6.01829C233.993 6.39532 234.098 6.82891 234.098 7.31906L234.089 7.52643ZM231.665 5.37733C231.181 5.37733 230.774 5.53128 230.443 5.8392C230.119 6.14082 229.934 6.53671 229.89 7.02686H233.449C233.405 6.53671 233.217 6.14082 232.886 5.8392C232.562 5.53128 232.155 5.37733 231.665 5.37733Z" fill="#8C98B7"/>
<path d="M241.429 4.84005V9.79806H240.809V5.8769L238.776 9.19481H238.471L236.438 5.86747V9.79806H235.818V4.84005H236.505L238.633 8.41246L240.799 4.84005H241.429Z" fill="#8C98B7"/>
<path d="M246.295 4.84005H246.973V8.78007L250.322 4.84005H250.924V9.79806H250.246V5.85805L246.906 9.79806H246.295V4.84005Z" fill="#8C98B7"/>
<path d="M253.086 4.84005H253.763V7.03628H256.922V4.84005H257.599V9.79806H256.922V7.61126H253.763V9.79806H253.086V4.84005Z" fill="#8C98B7"/>
<path d="M264.641 9.21366V10.9951H264.001V9.79806H259.507V10.9951H258.867V9.21366H259.154C259.491 9.19481 259.72 8.94973 259.841 8.47844C259.962 8.00715 260.044 7.34733 260.089 6.49901L260.156 4.84005H263.858V9.21366H264.641ZM260.709 6.53671C260.677 7.24051 260.617 7.82177 260.528 8.2805C260.439 8.73294 260.28 9.04399 260.051 9.21366H263.181V5.43388H260.766L260.709 6.53671Z" fill="#8C98B7"/>
<path d="M266.181 4.84005H266.859V8.78007L270.208 4.84005H270.81V9.79806H270.132V5.85805L266.792 9.79806H266.181V4.84005Z" fill="#8C98B7"/>
<path d="M276.168 7.23422C276.849 7.39132 277.189 7.79663 277.189 8.45016C277.189 8.88375 277.027 9.2168 276.703 9.4493C276.378 9.68181 275.895 9.79806 275.252 9.79806H272.972V4.84005H275.186C275.758 4.84005 276.207 4.95002 276.531 5.16996C276.856 5.3899 277.018 5.70409 277.018 6.11255C277.018 6.38275 276.941 6.61526 276.789 6.81006C276.642 6.99858 276.436 7.13997 276.168 7.23422ZM273.63 7.04571H275.138C275.526 7.04571 275.822 6.97344 276.025 6.82891C276.235 6.68438 276.34 6.47387 276.34 6.19738C276.34 5.92089 276.235 5.71352 276.025 5.57527C275.822 5.43702 275.526 5.3679 275.138 5.3679H273.63V7.04571ZM275.224 9.27021C275.656 9.27021 275.981 9.20109 276.197 9.06284C276.413 8.9246 276.522 8.7078 276.522 8.41246C276.522 8.11711 276.423 7.90032 276.226 7.76207C276.028 7.61754 275.717 7.54528 275.29 7.54528H273.63V9.27021H275.224Z" fill="#8C98B7"/>
<path d="M278.998 4.84005H279.675V8.78007L283.025 4.84005H283.626V9.79806H282.948V5.85805L279.608 9.79806H278.998V4.84005Z" fill="#8C98B7"/>
<path d="M290.683 9.21366V10.9951H290.044V9.79806H285.549V10.9951H284.91V9.21366H285.196C285.533 9.19481 285.762 8.94973 285.883 8.47844C286.004 8.00715 286.087 7.34733 286.131 6.49901L286.198 4.84005H289.901V9.21366H290.683ZM286.752 6.53671C286.72 7.24051 286.659 7.82177 286.57 8.2805C286.481 8.73294 286.322 9.04399 286.093 9.21366H289.223V5.43388H286.809L286.752 6.53671Z" fill="#8C98B7"/>
<path d="M296.49 4.84005L293.98 10.3919C293.776 10.8569 293.541 11.1868 293.274 11.3816C293.006 11.5764 292.685 11.6738 292.31 11.6738C292.068 11.6738 291.842 11.6361 291.632 11.5607C291.422 11.4853 291.241 11.3722 291.088 11.2214L291.403 10.7218C291.658 10.9732 291.963 11.0988 292.319 11.0988C292.548 11.0988 292.742 11.036 292.901 10.9103C293.067 10.7846 293.22 10.571 293.36 10.2694L293.579 9.78864L291.336 4.84005H292.043L293.932 9.05342L295.822 4.84005H296.49Z" fill="#8C98B7"/>
<path d="M299.344 4.80235C299.999 4.80235 300.501 4.96573 300.851 5.29249C301.201 5.61297 301.376 6.09055 301.376 6.72523V9.79806H300.727V9.02514C300.575 9.28278 300.349 9.48387 300.05 9.6284C299.757 9.77293 299.407 9.84519 299 9.84519C298.44 9.84519 297.995 9.71323 297.664 9.4493C297.333 9.18538 297.168 8.83662 297.168 8.40303C297.168 7.98201 297.32 7.64268 297.626 7.38504C297.938 7.1274 298.431 6.99858 299.105 6.99858H300.699V6.69695C300.699 6.26964 300.578 5.94602 300.336 5.72608C300.094 5.49986 299.741 5.38675 299.277 5.38675C298.959 5.38675 298.653 5.44017 298.361 5.54699C298.068 5.64754 297.817 5.78892 297.607 5.97116L297.301 5.47159C297.556 5.25793 297.861 5.09455 298.217 4.98144C298.574 4.86205 298.949 4.80235 299.344 4.80235ZM299.105 9.31734C299.487 9.31734 299.814 9.23251 300.088 9.06284C300.361 8.88689 300.565 8.63554 300.699 8.30877V7.49815H299.124C298.265 7.49815 297.836 7.79349 297.836 8.38418C297.836 8.67324 297.947 8.9026 298.17 9.07227C298.392 9.23565 298.704 9.31734 299.105 9.31734Z" fill="#8C98B7"/>
<path d="M307.503 4.84005V9.79806H306.826V5.43388H304.421L304.354 6.65925C304.303 7.68981 304.183 8.48158 303.992 9.03457C303.801 9.58755 303.46 9.86404 302.971 9.86404C302.837 9.86404 302.675 9.83891 302.484 9.78864L302.532 9.21366C302.646 9.23879 302.726 9.25136 302.77 9.25136C303.031 9.25136 303.228 9.13197 303.362 8.89318C303.495 8.65439 303.585 8.35905 303.629 8.00715C303.674 7.65525 303.712 7.19024 303.744 6.61212L303.829 4.84005H307.503Z" fill="#8C98B7"/>
<path d="M311.806 6.59327C312.436 6.59955 312.913 6.7378 313.238 7.008C313.569 7.27821 313.734 7.66781 313.734 8.17681C313.734 8.70466 313.556 9.10997 313.2 9.39275C312.85 9.67553 312.341 9.81377 311.673 9.80749L309.65 9.79806V4.84005H310.327V6.57441L311.806 6.59327ZM311.635 9.29849C312.099 9.30477 312.449 9.21366 312.684 9.02514C312.926 8.83034 313.047 8.54756 313.047 8.17681C313.047 7.81234 312.929 7.54214 312.694 7.36619C312.459 7.19024 312.105 7.09912 311.635 7.09284L310.327 7.07398V9.27964L311.635 9.29849Z" fill="#8C98B7"/>
<path d="M315.247 4.84005H315.925V7.03628H319.083V4.84005H319.761V9.79806H319.083V7.61126H315.925V9.79806H315.247V4.84005Z" fill="#8C98B7"/>
<path d="M324.016 6.59327C324.646 6.59955 325.126 6.7378 325.457 7.008C325.788 7.27821 325.953 7.66781 325.953 8.17681C325.953 8.70466 325.775 9.10997 325.419 9.39275C325.062 9.67553 324.553 9.81377 323.892 9.80749L321.907 9.79806V4.84005H322.584V6.57441L324.016 6.59327ZM326.793 4.84005H327.47V9.79806H326.793V4.84005ZM323.854 9.29849C324.318 9.30477 324.668 9.21366 324.903 9.02514C325.145 8.83034 325.266 8.54756 325.266 8.17681C325.266 7.81234 325.148 7.54214 324.913 7.36619C324.677 7.19024 324.324 7.09912 323.854 7.09284L322.584 7.07398V9.27964L323.854 9.29849Z" fill="#8C98B7"/>
<path d="M334.009 7.52643H329.811C329.849 8.04171 330.049 8.45959 330.412 8.78007C330.774 9.09426 331.232 9.25136 331.786 9.25136C332.098 9.25136 332.384 9.19795 332.645 9.09112C332.906 8.97801 333.131 8.81463 333.322 8.60098L333.704 9.03457C333.481 9.29849 333.201 9.49958 332.864 9.63782C332.533 9.77607 332.168 9.84519 331.767 9.84519C331.252 9.84519 330.793 9.73836 330.393 9.52471C329.998 9.30477 329.69 9.00315 329.467 8.61983C329.244 8.23651 329.133 7.80292 329.133 7.31906C329.133 6.8352 329.238 6.40161 329.448 6.01829C329.664 5.63497 329.957 5.33648 330.326 5.12283C330.701 4.90918 331.121 4.80235 331.586 4.80235C332.05 4.80235 332.467 4.90918 332.836 5.12283C333.205 5.33648 333.494 5.63497 333.704 6.01829C333.914 6.39532 334.019 6.82891 334.019 7.31906L334.009 7.52643ZM331.586 5.37733C331.102 5.37733 330.695 5.53128 330.364 5.8392C330.04 6.14082 329.855 6.53671 329.811 7.02686H333.37C333.325 6.53671 333.138 6.14082 332.807 5.8392C332.483 5.53128 332.075 5.37733 331.586 5.37733Z" fill="#8C98B7"/>
<path d="M205.719 17.1285C206.374 17.1285 206.877 17.2919 207.227 17.6186C207.577 17.9391 207.752 18.4167 207.752 19.0514V22.1242H207.103V21.3513C206.95 21.6089 206.724 21.81 206.425 21.9545C206.133 22.0991 205.783 22.1713 205.375 22.1713C204.816 22.1713 204.37 22.0394 204.04 21.7754C203.709 21.5115 203.543 21.1628 203.543 20.7292C203.543 20.3081 203.696 19.9688 204.001 19.7112C204.313 19.4535 204.806 19.3247 205.48 19.3247H207.074V19.0231C207.074 18.5958 206.953 18.2722 206.711 18.0522C206.47 17.826 206.117 17.7129 205.652 17.7129C205.334 17.7129 205.029 17.7663 204.736 17.8731C204.443 17.9737 204.192 18.1151 203.982 18.2973L203.677 17.7977C203.931 17.5841 204.237 17.4207 204.593 17.3076C204.949 17.1882 205.325 17.1285 205.719 17.1285ZM205.48 21.6435C205.862 21.6435 206.19 21.5586 206.463 21.389C206.737 21.213 206.941 20.9617 207.074 20.6349V19.8243H205.5C204.641 19.8243 204.211 20.1196 204.211 20.7103C204.211 20.9994 204.323 21.2287 204.545 21.3984C204.768 21.5618 205.08 21.6435 205.48 21.6435Z" fill="#8C98B7"/>
<path d="M211.598 19.9185H210.453V22.1242H209.776V17.1662H210.453V19.3436H211.608L213.373 17.1662H214.108L212.133 19.5698L214.251 22.1242H213.45L211.598 19.9185Z" fill="#8C98B7"/>
<path d="M217.463 22.1713C216.967 22.1713 216.521 22.0645 216.127 21.8508C215.739 21.6372 215.434 21.3387 215.211 20.9554C214.988 20.5658 214.877 20.1291 214.877 19.6452C214.877 19.1613 214.988 18.7277 215.211 18.3444C215.434 17.9611 215.739 17.6626 216.127 17.449C216.521 17.2353 216.967 17.1285 217.463 17.1285C217.896 17.1285 218.281 17.2133 218.618 17.383C218.961 17.5464 219.232 17.7883 219.429 18.1088L218.923 18.4481C218.758 18.203 218.548 18.0208 218.293 17.9014C218.039 17.7757 217.762 17.7129 217.463 17.7129C217.1 17.7129 216.773 17.7946 216.48 17.958C216.194 18.1151 215.968 18.3413 215.803 18.6366C215.644 18.932 215.564 19.2682 215.564 19.6452C215.564 20.0285 215.644 20.3678 215.803 20.6632C215.968 20.9523 216.194 21.1785 216.48 21.3419C216.773 21.499 217.1 21.5775 217.463 21.5775C217.762 21.5775 218.039 21.5178 218.293 21.3984C218.548 21.279 218.758 21.0968 218.923 20.8517L219.429 21.191C219.232 21.5115 218.961 21.7566 218.618 21.9263C218.274 22.0896 217.889 22.1713 217.463 22.1713Z" fill="#8C98B7"/>
<path d="M225.267 19.8526H221.068C221.106 20.3678 221.307 20.7857 221.669 21.1062C222.032 21.4204 222.49 21.5775 223.043 21.5775C223.355 21.5775 223.641 21.5241 223.902 21.4173C224.163 21.3041 224.389 21.1408 224.58 20.9271L224.961 21.3607C224.739 21.6246 224.459 21.8257 224.122 21.964C223.791 22.1022 223.425 22.1713 223.024 22.1713C222.509 22.1713 222.051 22.0645 221.65 21.8508C221.256 21.6309 220.947 21.3293 220.724 20.946C220.502 20.5626 220.39 20.1291 220.39 19.6452C220.39 19.1613 220.495 18.7277 220.705 18.3444C220.922 17.9611 221.214 17.6626 221.583 17.449C221.959 17.2353 222.378 17.1285 222.843 17.1285C223.307 17.1285 223.724 17.2353 224.093 17.449C224.462 17.6626 224.751 17.9611 224.961 18.3444C225.171 18.7215 225.276 19.1551 225.276 19.6452L225.267 19.8526ZM222.843 17.7035C222.359 17.7035 221.952 17.8574 221.621 18.1653C221.297 18.467 221.112 18.8628 221.068 19.353H224.627C224.583 18.8628 224.395 18.467 224.064 18.1653C223.74 17.8574 223.333 17.7035 222.843 17.7035Z" fill="#8C98B7"/>
<path d="M229.096 22.1713C228.6 22.1713 228.154 22.0645 227.76 21.8508C227.372 21.6372 227.066 21.3387 226.844 20.9554C226.621 20.5658 226.51 20.1291 226.51 19.6452C226.51 19.1613 226.621 18.7277 226.844 18.3444C227.066 17.9611 227.372 17.6626 227.76 17.449C228.154 17.2353 228.6 17.1285 229.096 17.1285C229.528 17.1285 229.913 17.2133 230.25 17.383C230.594 17.5464 230.864 17.7883 231.062 18.1088L230.556 18.4481C230.39 18.203 230.18 18.0208 229.926 17.9014C229.671 17.7757 229.395 17.7129 229.096 17.7129C228.733 17.7129 228.405 17.7946 228.113 17.958C227.827 18.1151 227.601 18.3413 227.435 18.6366C227.276 18.932 227.197 19.2682 227.197 19.6452C227.197 20.0285 227.276 20.3678 227.435 20.6632C227.601 20.9523 227.827 21.1785 228.113 21.3419C228.405 21.499 228.733 21.5775 229.096 21.5775C229.395 21.5775 229.671 21.5178 229.926 21.3984C230.18 21.279 230.39 21.0968 230.556 20.8517L231.062 21.191C230.864 21.5115 230.594 21.7566 230.25 21.9263C229.907 22.0896 229.522 22.1713 229.096 22.1713Z" fill="#8C98B7"/>
<path d="M234.609 22.1713C234.113 22.1713 233.668 22.0645 233.273 21.8508C232.885 21.6372 232.58 21.3387 232.357 20.9554C232.134 20.5658 232.023 20.1291 232.023 19.6452C232.023 19.1613 232.134 18.7277 232.357 18.3444C232.58 17.9611 232.885 17.6626 233.273 17.449C233.668 17.2353 234.113 17.1285 234.609 17.1285C235.042 17.1285 235.427 17.2133 235.764 17.383C236.107 17.5464 236.378 17.7883 236.575 18.1088L236.069 18.4481C235.904 18.203 235.694 18.0208 235.439 17.9014C235.185 17.7757 234.908 17.7129 234.609 17.7129C234.247 17.7129 233.919 17.7946 233.626 17.958C233.34 18.1151 233.114 18.3413 232.949 18.6366C232.79 18.932 232.71 19.2682 232.71 19.6452C232.71 20.0285 232.79 20.3678 232.949 20.6632C233.114 20.9523 233.34 21.1785 233.626 21.3419C233.919 21.499 234.247 21.5775 234.609 21.5775C234.908 21.5775 235.185 21.5178 235.439 21.3984C235.694 21.279 235.904 21.0968 236.069 20.8517L236.575 21.191C236.378 21.5115 236.107 21.7566 235.764 21.9263C235.42 22.0896 235.035 22.1713 234.609 22.1713Z" fill="#8C98B7"/>
<path d="M242.298 17.1662L239.789 22.718C239.585 23.183 239.35 23.5129 239.082 23.7077C238.815 23.9025 238.494 24 238.119 24C237.877 24 237.651 23.9622 237.441 23.8868C237.231 23.8114 237.05 23.6983 236.897 23.5475L237.212 23.0479C237.466 23.2993 237.772 23.425 238.128 23.425C238.357 23.425 238.551 23.3621 238.71 23.2365C238.876 23.1108 239.028 22.8971 239.168 22.5955L239.388 22.1148L237.145 17.1662H237.851L239.741 21.3796L241.63 17.1662H242.298Z" fill="#8C98B7"/>
<path d="M245.152 17.1285C245.808 17.1285 246.31 17.2919 246.66 17.6186C247.01 17.9391 247.185 18.4167 247.185 19.0514V22.1242H246.536V21.3513C246.383 21.6089 246.157 21.81 245.858 21.9545C245.566 22.0991 245.216 22.1713 244.809 22.1713C244.249 22.1713 243.804 22.0394 243.473 21.7754C243.142 21.5115 242.976 21.1628 242.976 20.7292C242.976 20.3081 243.129 19.9688 243.435 19.7112C243.746 19.4535 244.239 19.3247 244.914 19.3247H246.507V19.0231C246.507 18.5958 246.386 18.2722 246.145 18.0522C245.903 17.826 245.55 17.7129 245.085 17.7129C244.767 17.7129 244.462 17.7663 244.169 17.8731C243.877 17.9737 243.625 18.1151 243.415 18.2973L243.11 17.7977C243.365 17.5841 243.67 17.4207 244.026 17.3076C244.382 17.1882 244.758 17.1285 245.152 17.1285ZM244.914 21.6435C245.295 21.6435 245.623 21.5586 245.897 21.389C246.17 21.213 246.374 20.9617 246.507 20.6349V19.8243H244.933C244.074 19.8243 243.644 20.1196 243.644 20.7103C243.644 20.9994 243.756 21.2287 243.978 21.3984C244.201 21.5618 244.513 21.6435 244.914 21.6435Z" fill="#8C98B7"/>
<path d="M251.795 17.1285C252.266 17.1285 252.692 17.2353 253.074 17.449C253.455 17.6563 253.754 17.9517 253.971 18.335C254.187 18.7183 254.295 19.1551 254.295 19.6452C254.295 20.1416 254.187 20.5815 253.971 20.9648C253.754 21.3481 253.455 21.6466 253.074 21.8603C252.698 22.0676 252.272 22.1713 251.795 22.1713C251.388 22.1713 251.019 22.0896 250.688 21.9263C250.363 21.7566 250.096 21.5115 249.886 21.191V23.9528H249.209V17.1662H249.858V18.1465C250.061 17.8197 250.328 17.5684 250.659 17.3924C250.996 17.2165 251.375 17.1285 251.795 17.1285ZM251.747 21.5775C252.097 21.5775 252.415 21.499 252.701 21.3419C252.988 21.1785 253.21 20.9491 253.369 20.6538C253.535 20.3584 253.618 20.0222 253.618 19.6452C253.618 19.2682 253.535 18.9351 253.369 18.6461C253.21 18.3507 252.988 18.1213 252.701 17.958C252.415 17.7946 252.097 17.7129 251.747 17.7129C251.391 17.7129 251.07 17.7946 250.783 17.958C250.503 18.1213 250.281 18.3507 250.115 18.6461C249.956 18.9351 249.877 19.2682 249.877 19.6452C249.877 20.0222 249.956 20.3584 250.115 20.6538C250.281 20.9491 250.503 21.1785 250.783 21.3419C251.07 21.499 251.391 21.5775 251.747 21.5775Z" fill="#8C98B7"/>
<path d="M258.08 18.9194C258.71 18.9257 259.19 19.0639 259.521 19.3341C259.852 19.6044 260.017 19.994 260.017 20.503C260.017 21.0308 259.839 21.4361 259.483 21.7189C259.126 22.0017 258.618 22.1399 257.956 22.1336L255.971 22.1242V17.1662H256.649V18.9006L258.08 18.9194ZM260.857 17.1662H261.534V22.1242H260.857V17.1662ZM257.918 21.6246C258.382 21.6309 258.732 21.5398 258.967 21.3513C259.209 21.1565 259.33 20.8737 259.33 20.503C259.33 20.1385 259.212 19.8683 258.977 19.6923C258.742 19.5164 258.389 19.4253 257.918 19.419L256.649 19.4001V21.6058L257.918 21.6246Z" fill="#8C98B7"/>
<path d="M266.402 17.1662H267.079V19.3624H270.238V17.1662H270.915V22.1242H270.238V19.9374H267.079V22.1242H266.402V17.1662Z" fill="#8C98B7"/>
<path d="M274.789 17.1285C275.444 17.1285 275.946 17.2919 276.296 17.6186C276.646 17.9391 276.821 18.4167 276.821 19.0514V22.1242H276.172V21.3513C276.02 21.6089 275.794 21.81 275.495 21.9545C275.202 22.0991 274.852 22.1713 274.445 22.1713C273.885 22.1713 273.44 22.0394 273.109 21.7754C272.778 21.5115 272.613 21.1628 272.613 20.7292C272.613 20.3081 272.765 19.9688 273.071 19.7112C273.383 19.4535 273.876 19.3247 274.55 19.3247H276.144V19.0231C276.144 18.5958 276.023 18.2722 275.781 18.0522C275.539 17.826 275.186 17.7129 274.722 17.7129C274.404 17.7129 274.098 17.7663 273.806 17.8731C273.513 17.9737 273.262 18.1151 273.052 18.2973L272.746 17.7977C273.001 17.5841 273.306 17.4207 273.663 17.3076C274.019 17.1882 274.394 17.1285 274.789 17.1285ZM274.55 21.6435C274.932 21.6435 275.259 21.5586 275.533 21.389C275.806 21.213 276.01 20.9617 276.144 20.6349V19.8243H274.569C273.71 19.8243 273.281 20.1196 273.281 20.7103C273.281 20.9994 273.392 21.2287 273.615 21.3984C273.837 21.5618 274.149 21.6435 274.55 21.6435Z" fill="#8C98B7"/>
<path d="M283.662 22.1713C283.166 22.1713 282.721 22.0645 282.326 21.8508C281.938 21.6372 281.633 21.3387 281.41 20.9554C281.187 20.5658 281.076 20.1291 281.076 19.6452C281.076 19.1613 281.187 18.7277 281.41 18.3444C281.633 17.9611 281.938 17.6626 282.326 17.449C282.721 17.2353 283.166 17.1285 283.662 17.1285C284.095 17.1285 284.48 17.2133 284.817 17.383C285.16 17.5464 285.431 17.7883 285.628 18.1088L285.122 18.4481C284.957 18.203 284.747 18.0208 284.492 17.9014C284.238 17.7757 283.961 17.7129 283.662 17.7129C283.3 17.7129 282.972 17.7946 282.679 17.958C282.393 18.1151 282.167 18.3413 282.002 18.6366C281.843 18.932 281.763 19.2682 281.763 19.6452C281.763 20.0285 281.843 20.3678 282.002 20.6632C282.167 20.9523 282.393 21.1785 282.679 21.3419C282.972 21.499 283.3 21.5775 283.662 21.5775C283.961 21.5775 284.238 21.5178 284.492 21.3984C284.747 21.279 284.957 21.0968 285.122 20.8517L285.628 21.191C285.431 21.5115 285.16 21.7566 284.817 21.9263C284.473 22.0896 284.088 22.1713 283.662 22.1713Z" fill="#8C98B7"/>
<path d="M292.771 17.1662V22.1242H292.151V18.203L290.118 21.5209H289.813L287.78 18.1936V22.1242H287.16V17.1662H287.847L289.975 20.7386L292.142 17.1662H292.771Z" fill="#8C98B7"/>
<path d="M296.647 17.1285C297.302 17.1285 297.805 17.2919 298.155 17.6186C298.505 17.9391 298.679 18.4167 298.679 19.0514V22.1242H298.031V21.3513C297.878 21.6089 297.652 21.81 297.353 21.9545C297.06 22.0991 296.71 22.1713 296.303 22.1713C295.743 22.1713 295.298 22.0394 294.967 21.7754C294.637 21.5115 294.471 21.1628 294.471 20.7292C294.471 20.3081 294.624 19.9688 294.929 19.7112C295.241 19.4535 295.734 19.3247 296.408 19.3247H298.002V19.0231C298.002 18.5958 297.881 18.2722 297.639 18.0522C297.398 17.826 297.044 17.7129 296.58 17.7129C296.262 17.7129 295.957 17.7663 295.664 17.8731C295.371 17.9737 295.12 18.1151 294.91 18.2973L294.605 17.7977C294.859 17.5841 295.165 17.4207 295.521 17.3076C295.877 17.1882 296.252 17.1285 296.647 17.1285ZM296.408 21.6435C296.79 21.6435 297.118 21.5586 297.391 21.389C297.665 21.213 297.868 20.9617 298.002 20.6349V19.8243H296.427C295.569 19.8243 295.139 20.1196 295.139 20.7103C295.139 20.9994 295.25 21.2287 295.473 21.3984C295.696 21.5618 296.007 21.6435 296.408 21.6435Z" fill="#8C98B7"/>
<path d="M303.289 17.1285C303.76 17.1285 304.186 17.2353 304.568 17.449C304.95 17.6563 305.249 17.9517 305.465 18.335C305.682 18.7183 305.79 19.1551 305.79 19.6452C305.79 20.1416 305.682 20.5815 305.465 20.9648C305.249 21.3481 304.95 21.6466 304.568 21.8603C304.193 22.0676 303.767 22.1713 303.289 22.1713C302.882 22.1713 302.513 22.0896 302.183 21.9263C301.858 21.7566 301.591 21.5115 301.381 21.191V23.9528H300.703V17.1662H301.352V18.1465C301.556 17.8197 301.823 17.5684 302.154 17.3924C302.491 17.2165 302.87 17.1285 303.289 17.1285ZM303.242 21.5775C303.592 21.5775 303.91 21.499 304.196 21.3419C304.482 21.1785 304.705 20.9491 304.864 20.6538C305.029 20.3584 305.112 20.0222 305.112 19.6452C305.112 19.2682 305.029 18.9351 304.864 18.6461C304.705 18.3507 304.482 18.1213 304.196 17.958C303.91 17.7946 303.592 17.7129 303.242 17.7129C302.885 17.7129 302.564 17.7946 302.278 17.958C301.998 18.1213 301.775 18.3507 301.61 18.6461C301.451 18.9351 301.371 19.2682 301.371 19.6452C301.371 20.0222 301.451 20.3584 301.61 20.6538C301.775 20.9491 301.998 21.1785 302.278 21.3419C302.564 21.499 302.885 21.5775 303.242 21.5775Z" fill="#8C98B7"/>
<path d="M310.81 17.76H308.911V22.1242H308.234V17.76H306.335V17.1662H310.81V17.76Z" fill="#8C98B7"/>
<path d="M317.837 19.6358C317.837 20.4087 317.579 21.0151 317.064 21.455C316.548 21.8948 315.82 22.1336 314.878 22.1713V23.9528H314.22V22.1808C313.285 22.1431 312.559 21.9043 312.044 21.4644C311.535 21.0182 311.281 20.4087 311.281 19.6358C311.281 18.8691 311.535 18.269 312.044 17.8354C312.559 17.4018 313.285 17.1662 314.22 17.1285V15.1302H314.878V17.1285C315.82 17.1725 316.548 17.4113 317.064 17.8449C317.579 18.2784 317.837 18.8754 317.837 19.6358ZM311.949 19.6358C311.949 20.2265 312.14 20.6883 312.521 21.0214C312.909 21.3544 313.476 21.5429 314.22 21.5869V17.7223C313.482 17.76 312.919 17.9454 312.531 18.2784C312.143 18.6052 311.949 19.0577 311.949 19.6358ZM314.878 21.5869C315.623 21.5492 316.189 21.3638 316.577 21.0308C316.971 20.6978 317.169 20.2327 317.169 19.6358C317.169 19.0514 316.971 18.5958 316.577 18.269C316.189 17.9423 315.623 17.76 314.878 17.7223V21.5869Z" fill="#8C98B7"/>
<path d="M321.561 22.1713C321.077 22.1713 320.641 22.0645 320.253 21.8508C319.865 21.6309 319.56 21.3293 319.337 20.946C319.114 20.5626 319.003 20.1291 319.003 19.6452C319.003 19.1613 319.114 18.7277 319.337 18.3444C319.56 17.9611 319.865 17.6626 320.253 17.449C320.641 17.2353 321.077 17.1285 321.561 17.1285C322.044 17.1285 322.48 17.2353 322.868 17.449C323.256 17.6626 323.558 17.9611 323.774 18.3444C323.997 18.7277 324.108 19.1613 324.108 19.6452C324.108 20.1291 323.997 20.5626 323.774 20.946C323.558 21.3293 323.256 21.6309 322.868 21.8508C322.48 22.0645 322.044 22.1713 321.561 22.1713ZM321.561 21.5775C321.917 21.5775 322.235 21.499 322.515 21.3419C322.801 21.1785 323.024 20.9491 323.183 20.6538C323.342 20.3584 323.421 20.0222 323.421 19.6452C323.421 19.2682 323.342 18.932 323.183 18.6366C323.024 18.3413 322.801 18.1151 322.515 17.958C322.235 17.7946 321.917 17.7129 321.561 17.7129C321.204 17.7129 320.883 17.7946 320.597 17.958C320.317 18.1151 320.094 18.3413 319.929 18.6366C319.77 18.932 319.69 19.2682 319.69 19.6452C319.69 20.0222 319.77 20.3584 319.929 20.6538C320.094 20.9491 320.317 21.1785 320.597 21.3419C320.883 21.499 321.204 21.5775 321.561 21.5775Z" fill="#8C98B7"/>
<path d="M325.777 17.1662H326.454V19.3624H329.613V17.1662H330.291V22.1242H329.613V19.9374H326.454V22.1242H325.777V17.1662Z" fill="#8C98B7"/>
<path d="M334.545 18.9194C335.175 18.9257 335.656 19.0639 335.986 19.3341C336.317 19.6044 336.483 19.994 336.483 20.503C336.483 21.0308 336.305 21.4361 335.948 21.7189C335.592 22.0017 335.083 22.1399 334.421 22.1336L332.437 22.1242V17.1662H333.114V18.9006L334.545 18.9194ZM337.322 17.1662H338V22.1242H337.322V17.1662ZM334.383 21.6246C334.848 21.6309 335.198 21.5398 335.433 21.3513C335.675 21.1565 335.796 20.8737 335.796 20.503C335.796 20.1385 335.678 19.8683 335.443 19.6923C335.207 19.5164 334.854 19.4253 334.383 19.419L333.114 19.4001V21.6058L334.383 21.6246Z" fill="#8C98B7"/>
<path fill-rule="evenodd" clip-rule="evenodd" d="M192.31 24L192.31 3.19995L193.143 3.19995L193.143 24L192.31 24Z" fill="#EDF0F5"/>
<path d="M1.08894 11.0433H6.00506V22.4774H1.08894V11.0433ZM3.547 10.1236C2.66238 10.1236 1.94454 9.9006 1.39347 9.45467C0.856907 8.9948 0.588623 8.41648 0.588623 7.7197C0.588623 7.02293 0.856907 6.45157 1.39347 6.00564C1.94454 5.54576 2.66238 5.31583 3.547 5.31583C4.44611 5.31583 5.16395 5.53183 5.70052 5.96383C6.23708 6.39583 6.50537 6.95325 6.50537 7.63609C6.50537 8.36073 6.23708 8.95996 5.70052 9.43377C5.16395 9.89364 4.44611 10.1236 3.547 10.1236Z" fill="#8C98B7"/>
<path d="M19.0801 22.9233C17.3979 22.9233 15.7544 22.7468 14.1495 22.3938C12.564 22.0222 11.2588 21.5298 10.234 20.9166L12.4383 16.1228C13.4051 16.6616 14.4879 17.0983 15.6867 17.4327C16.8855 17.7486 18.036 17.9065 19.1381 17.9065C20.0856 17.9065 20.7623 17.8229 21.1684 17.6557C21.5744 17.4699 21.7774 17.2005 21.7774 16.8474C21.7774 16.4387 21.5067 16.1321 20.9653 15.9277C20.4433 15.7233 19.5732 15.5003 18.355 15.2588C16.7888 14.9429 15.4837 14.6085 14.4395 14.2554C13.3954 13.8838 12.4866 13.2892 11.7132 12.4717C10.9397 11.6356 10.553 10.5114 10.553 9.09931C10.553 7.87299 10.9107 6.75815 11.6262 5.7548C12.3416 4.75144 13.4051 3.96176 14.8166 3.38576C16.2474 2.80977 17.978 2.52176 20.0082 2.52176C21.4004 2.52176 22.7636 2.67041 24.0977 2.9677C25.4512 3.24641 26.6404 3.66447 27.6652 4.22189L25.6059 8.98783C23.6143 8.02164 21.7291 7.53854 19.9502 7.53854C18.1907 7.53854 17.3109 7.94731 17.3109 8.76486C17.3109 9.15506 17.5719 9.45235 18.094 9.65673C18.616 9.84254 19.4765 10.0469 20.6753 10.2699C22.2222 10.5486 23.5273 10.8738 24.5908 11.2454C25.6543 11.5984 26.5727 12.1837 27.3461 13.0012C28.1389 13.8188 28.5353 14.9336 28.5353 16.3458C28.5353 17.5721 28.1776 18.6869 27.4622 19.6903C26.7467 20.6751 25.6736 21.4647 24.2428 22.0593C22.8312 22.6353 21.1104 22.9233 19.0801 22.9233Z" fill="#8C98B7"/>
<path d="M44.151 6.95325C46.1039 6.95325 47.6701 7.51996 48.8496 8.65338C50.0484 9.7868 50.6478 11.4962 50.6478 13.7816V22.4774H44.093V14.8686C44.093 13.122 43.4452 12.2487 42.1497 12.2487C41.415 12.2487 40.8156 12.4996 40.3515 13.0012C39.9068 13.4843 39.6844 14.2554 39.6844 15.3145V22.4774H33.1296V1.79712H39.6844V8.45828C40.9026 7.45493 42.3914 6.95325 44.151 6.95325Z" fill="#8C98B7"/>
<path d="M63.3609 6.95325C66.1452 6.95325 68.2722 7.55712 69.7417 8.76486C71.2112 9.95402 71.946 11.7935 71.946 14.2833V22.4774H65.8552V20.4707C65.1011 21.9943 63.6026 22.7561 61.3596 22.7561C60.1028 22.7561 59.0297 22.5517 58.1402 22.1429C57.2701 21.7156 56.603 21.1489 56.139 20.4428C55.6943 19.7182 55.4719 18.9099 55.4719 18.018C55.4719 16.513 56.0713 15.3703 57.2701 14.5899C58.4689 13.8095 60.2865 13.4193 62.7228 13.4193H65.3621C65.1495 12.2302 64.1537 11.6356 62.3748 11.6356C61.6593 11.6356 60.9343 11.7471 60.1995 11.97C59.4647 12.1744 58.8363 12.4624 58.3143 12.834L56.226 8.68125C57.1348 8.14241 58.2272 7.72435 59.5034 7.42706C60.7989 7.11118 62.0847 6.95325 63.3609 6.95325ZM63.3319 18.9656C63.7959 18.9656 64.2117 18.8449 64.579 18.6033C64.9464 18.3618 65.2171 17.9994 65.3912 17.5163V16.4572H63.7669C62.4328 16.4572 61.7657 16.8846 61.7657 17.7393C61.7657 18.0923 61.901 18.3896 62.1717 18.6312C62.4618 18.8542 62.8485 18.9656 63.3319 18.9656Z" fill="#8C98B7"/>
<path d="M83.7751 8.87635C84.9353 7.59428 86.6465 6.95325 88.9088 6.95325V12.5274C88.3867 12.4531 87.9033 12.416 87.4586 12.416C85.2156 12.416 84.0942 13.5122 84.0942 15.7047V22.4774H77.5393V7.23196H83.7751V8.87635Z" fill="#8C98B7"/>
<path d="M93.5271 1.79712H100.082V22.4774H93.5271V1.79712Z" fill="#8C98B7"/>
<path d="M114.13 22.7561C112.37 22.7561 110.785 22.4216 109.373 21.7527C107.981 21.0652 106.889 20.1269 106.096 18.9378C105.303 17.73 104.907 16.3643 104.907 14.8407C104.907 13.3171 105.303 11.9607 106.096 10.7716C106.889 9.56383 107.981 8.62551 109.373 7.9566C110.785 7.2877 112.37 6.95325 114.13 6.95325C115.909 6.95325 117.494 7.2877 118.886 7.9566C120.298 8.62551 121.39 9.56383 122.164 10.7716C122.957 11.9607 123.353 13.3171 123.353 14.8407C123.353 16.3643 122.957 17.73 122.164 18.9378C121.39 20.1269 120.298 21.0652 118.886 21.7527C117.494 22.4216 115.909 22.7561 114.13 22.7561ZM114.13 17.8508C114.884 17.8508 115.503 17.5907 115.986 17.0704C116.469 16.5316 116.711 15.7883 116.711 14.8407C116.711 13.8931 116.469 13.1592 115.986 12.6389C115.503 12.1187 114.884 11.8585 114.13 11.8585C113.376 11.8585 112.757 12.1187 112.274 12.6389C111.79 13.1592 111.549 13.8931 111.549 14.8407C111.549 15.7883 111.79 16.5316 112.274 17.0704C112.757 17.5907 113.376 17.8508 114.13 17.8508Z" fill="#8C98B7"/>
<path d="M139.854 21.9478C138.867 22.4867 137.524 22.7561 135.822 22.7561C133.598 22.7561 131.887 22.2451 130.688 21.2232C129.49 20.1827 128.89 18.6312 128.89 16.5687V12.6668H126.715V8.06809H128.89V3.80383H135.445V8.06809H138.693V12.6668H135.445V16.513C135.445 16.9775 135.571 17.3398 135.822 17.6C136.073 17.8601 136.402 17.9902 136.808 17.9902C137.369 17.9902 137.862 17.8508 138.287 17.5721L139.854 21.9478Z" fill="#8C98B7"/>
<path d="M151.865 17.7951L150.821 18.882V22.4774H144.266V1.79712H150.821V11.6634L155.375 7.23196H163.118L156.564 13.8374L163.641 22.4774H155.723L151.865 17.7951Z" fill="#8C98B7"/>
<path d="M174.526 6.95325C177.31 6.95325 179.437 7.55712 180.907 8.76486C182.376 9.95402 183.111 11.7935 183.111 14.2833V22.4774H177.02V20.4707C176.266 21.9943 174.767 22.7561 172.524 22.7561C171.268 22.7561 170.195 22.5517 169.305 22.1429C168.435 21.7156 167.768 21.1489 167.304 20.4428C166.859 19.7182 166.637 18.9099 166.637 18.018C166.637 16.513 167.236 15.3703 168.435 14.5899C169.634 13.8095 171.451 13.4193 173.888 13.4193H176.527C176.314 12.2302 175.318 11.6356 173.54 11.6356C172.824 11.6356 172.099 11.7471 171.364 11.97C170.63 12.1744 170.001 12.4624 169.479 12.834L167.391 8.68125C168.3 8.14241 169.392 7.72435 170.668 7.42706C171.964 7.11118 173.25 6.95325 174.526 6.95325ZM174.497 18.9656C174.961 18.9656 175.377 18.8449 175.744 18.6033C176.111 18.3618 176.382 17.9994 176.556 17.5163V16.4572H174.932C173.598 16.4572 172.931 16.8846 172.931 17.7393C172.931 18.0923 173.066 18.3896 173.337 18.6312C173.627 18.8542 174.013 18.9656 174.497 18.9656Z" fill="#8C98B7"/>
</svg>
