<svg width="34" height="20" viewBox="0 0 34 20" fill="none" xmlns="http://www.w3.org/2000/svg">
<path d="M21.3635 17.8646H12.6143V2.14075H21.3635V17.8646Z" fill="#FF5F00"/>
<path d="M13.1748 10.0013C13.1748 6.81169 14.6682 3.97044 16.9938 2.13943C15.2931 0.800504 13.1468 0.00134331 10.8142 0.00134331C5.29187 0.00134331 0.81543 4.47842 0.81543 10.0013C0.81543 15.5243 5.29187 20.0013 10.8142 20.0013C13.1468 20.0013 15.2931 19.2022 16.9938 17.8633C14.6682 16.0322 13.1748 13.191 13.1748 10.0013Z" fill="#EB001B"/>
<path d="M33.1634 10.0013C33.1634 15.5243 28.687 20.0013 23.1647 20.0013C20.832 20.0013 18.6857 19.2022 16.9844 17.8633C19.3107 16.0322 20.8041 13.191 20.8041 10.0013C20.8041 6.81169 19.3107 3.97044 16.9844 2.13943C18.6857 0.800504 20.832 0.00134331 23.1647 0.00134331C28.687 0.00134331 33.1634 4.47842 33.1634 10.0013Z" fill="#F79E1B"/>
<path d="M8.33933 10.0646C8.33933 9.6278 8.62557 9.26896 9.09331 9.26896C9.54022 9.26896 9.84194 9.61232 9.84194 10.0646C9.84194 10.5169 9.54022 10.8602 9.09331 10.8602C8.62557 10.8602 8.33933 10.5014 8.33933 10.0646ZM10.3513 10.0646V8.82204H9.81099V9.12375C9.63961 8.9 9.37955 8.75956 9.02607 8.75956C8.32921 8.75956 7.78292 9.30585 7.78292 10.0646C7.78292 10.8239 8.32921 11.3696 9.02607 11.3696C9.37955 11.3696 9.63961 11.2292 9.81099 11.0054V11.3071H10.3513V10.0646ZM28.6111 10.0646C28.6111 9.6278 28.8974 9.26896 29.3651 9.26896C29.8126 9.26896 30.1137 9.61232 30.1137 10.0646C30.1137 10.5169 29.8126 10.8602 29.3651 10.8602C28.8974 10.8602 28.6111 10.5014 28.6111 10.0646ZM30.6237 10.0646V7.82407H30.0828V9.12375C29.9114 8.9 29.6513 8.75956 29.2979 8.75956C28.601 8.75956 28.0547 9.30585 28.0547 10.0646C28.0547 10.8239 28.601 11.3696 29.2979 11.3696C29.6513 11.3696 29.9114 11.2292 30.0828 11.0054V11.3071H30.6237V10.0646ZM17.0586 9.24337C17.4067 9.24337 17.6305 9.46177 17.6876 9.84619H16.3981C16.4558 9.48735 16.6736 9.24337 17.0586 9.24337ZM17.0693 8.75956C16.3409 8.75956 15.8315 9.28978 15.8315 10.0646C15.8315 10.8549 16.3618 11.3696 17.1056 11.3696C17.4799 11.3696 17.8227 11.2762 18.1244 11.0215L17.8596 10.621C17.6513 10.787 17.3859 10.8811 17.1366 10.8811C16.7884 10.8811 16.4713 10.7198 16.3933 10.2723H18.2387C18.244 10.205 18.2494 10.1372 18.2494 10.0646C18.244 9.28978 17.7656 8.75956 17.0693 8.75956ZM23.5939 10.0646C23.5939 9.6278 23.8802 9.26896 24.3479 9.26896C24.7948 9.26896 25.0965 9.61232 25.0965 10.0646C25.0965 10.5169 24.7948 10.8602 24.3479 10.8602C23.8802 10.8602 23.5939 10.5014 23.5939 10.0646ZM25.6059 10.0646V8.82204H25.0656V9.12375C24.8936 8.9 24.6341 8.75956 24.2806 8.75956C23.5838 8.75956 23.0375 9.30585 23.0375 10.0646C23.0375 10.8239 23.5838 11.3696 24.2806 11.3696C24.6341 11.3696 24.8936 11.2292 25.0656 11.0054V11.3071H25.6059V10.0646ZM20.5423 10.0646C20.5423 10.8186 21.0672 11.3696 21.8681 11.3696C22.2425 11.3696 22.4918 11.2863 22.762 11.0733L22.5025 10.6365C22.2996 10.7823 22.0865 10.8602 21.8521 10.8602C21.4206 10.8549 21.1035 10.543 21.1035 10.0646C21.1035 9.58614 21.4206 9.27431 21.8521 9.26896C22.0865 9.26896 22.2996 9.34691 22.5025 9.49271L22.762 9.05591C22.4918 8.84287 22.2425 8.75956 21.8681 8.75956C21.0672 8.75956 20.5423 9.31061 20.5423 10.0646ZM27.509 8.75956C27.1972 8.75956 26.9943 8.90535 26.8538 9.12375V8.82204H26.3182V11.3071H26.8592V9.91403C26.8592 9.50283 27.0359 9.27431 27.3894 9.27431C27.4989 9.27431 27.6132 9.28978 27.7274 9.3368L27.894 8.8274C27.7744 8.78038 27.6185 8.75956 27.509 8.75956ZM13.0239 9.01961C12.7638 8.84823 12.4056 8.75956 12.0105 8.75956C11.3808 8.75956 10.9756 9.06127 10.9756 9.55519C10.9756 9.96045 11.2773 10.2104 11.8331 10.2883L12.0884 10.3246C12.3848 10.3663 12.5246 10.4443 12.5246 10.5847C12.5246 10.7769 12.327 10.8864 11.9581 10.8864C11.5838 10.8864 11.3136 10.7668 11.1315 10.6264L10.8768 11.0471C11.1732 11.2655 11.5475 11.3696 11.9527 11.3696C12.6704 11.3696 13.0864 11.0316 13.0864 10.5585C13.0864 10.1217 12.7591 9.89321 12.2181 9.81525L11.9634 9.77835C11.7296 9.74741 11.5421 9.70099 11.5421 9.53437C11.5421 9.35227 11.7189 9.24337 12.0152 9.24337C12.3324 9.24337 12.6395 9.36298 12.79 9.45641L13.0239 9.01961ZM19.996 8.75956C19.6842 8.75956 19.4812 8.90535 19.3414 9.12375V8.82204H18.8058V11.3071H19.3461V9.91403C19.3461 9.50283 19.5229 9.27431 19.8764 9.27431C19.9859 9.27431 20.1001 9.28978 20.2144 9.3368L20.381 8.8274C20.2614 8.78038 20.1055 8.75956 19.996 8.75956ZM15.3846 8.82204H14.5009V8.06806H13.9546V8.82204H13.4506V9.31597H13.9546V10.4496C13.9546 11.0263 14.1784 11.3696 14.8175 11.3696C15.052 11.3696 15.3221 11.297 15.4935 11.1774L15.3376 10.7144C15.1763 10.8079 14.9996 10.8549 14.8592 10.8549C14.589 10.8549 14.5009 10.6882 14.5009 10.4389V9.31597H15.3846V8.82204ZM7.30506 11.3071V9.74741C7.30506 9.16005 6.93075 8.76491 6.32733 8.75956C6.01014 8.7542 5.68284 8.85299 5.45373 9.20171C5.28235 8.92618 5.01217 8.75956 4.6325 8.75956C4.36709 8.75956 4.10763 8.83751 3.90471 9.12851V8.82204H3.36377V11.3071H3.90947V9.92951C3.90947 9.49807 4.14869 9.26896 4.51825 9.26896C4.87709 9.26896 5.05859 9.50283 5.05859 9.92415V11.3071H5.60488V9.92951C5.60488 9.49807 5.85423 9.26896 6.21307 9.26896C6.58202 9.26896 6.75877 9.50283 6.75877 9.92415V11.3071H7.30506Z" fill="white"/>
</svg>
