<svg width="38" height="14" viewBox="0 0 38 14" fill="none" xmlns="http://www.w3.org/2000/svg">
<path d="M1.7692 7.27409C1.95122 7.31191 2.11467 7.33044 2.35464 7.33044C3.29445 7.33044 3.92768 6.7349 3.92768 5.97857C3.92768 5.29813 3.43858 5.0527 2.80586 5.0527C2.527 5.0527 2.316 5.07173 2.18178 5.10904L1.7692 7.27409ZM1.24147 4.32467C1.63498 4.22975 2.22042 4.1734 2.79595 4.1734C3.40071 4.1734 4.03394 4.29587 4.45592 4.6272C4.83012 4.9107 5.05077 5.32592 5.05077 5.89392C5.05077 6.64975 4.68598 7.26483 4.22536 7.62371C3.70754 8.03017 2.96805 8.22877 2.20059 8.22877C1.97003 8.22877 1.76921 8.19997 1.59634 8.18143L1.12606 10.5922H0.0327148L1.24147 4.32467Z" fill="black"/>
<path d="M8.01497 6.78206C7.90007 6.75326 7.75644 6.73497 7.55485 6.73497C6.52811 6.73497 5.72202 7.87923 5.72202 8.92857C5.72202 9.40992 5.90429 9.80736 6.39389 9.80736C6.92112 9.80736 7.55485 9.16499 7.77551 7.99243L8.01497 6.78206ZM7.56426 10.5922C7.56426 10.3175 7.60239 9.94936 7.64128 9.56118H7.62196C7.1616 10.4032 6.53752 10.6959 5.94267 10.6959C5.10811 10.6959 4.56055 10.053 4.56055 9.12692C4.56055 7.55767 5.67372 5.88423 7.85202 5.88423C8.36044 5.88423 8.90749 5.97865 9.27228 6.0921L8.78293 8.49331C8.6482 9.17375 8.57168 10.0438 8.591 10.5922H7.56426Z" fill="black"/>
<path d="M15.6227 8.76755C15.6227 9.40016 15.9585 9.84569 16.5343 9.84569C17.3691 9.84569 17.9258 8.7107 17.9258 7.79384C17.9258 7.32076 17.7047 6.73473 17.0336 6.73473C16.1411 6.73473 15.6227 7.90729 15.6227 8.76755ZM19.0772 7.78482C19.0772 9.35357 17.9734 10.6957 16.381 10.6957C15.2002 10.6957 14.4717 9.89227 14.4717 8.79535C14.4717 7.23611 15.5749 5.88424 17.1678 5.88424C18.4246 5.88424 19.0772 6.7728 19.0772 7.78482" fill="black"/>
<path d="M19.2871 10.5922L19.8919 7.41559C20.0068 6.86713 20.0739 6.38503 20.1316 5.98834H21.1301L21.0244 6.81078H21.0432C21.4746 6.19595 22.0699 5.88415 22.7225 5.88415C23.3938 5.88415 23.9122 6.2816 23.9122 7.15113C23.9122 7.35874 23.8745 7.68005 23.8262 7.9072L23.3168 10.5922H22.1942L22.6927 7.99235C22.7225 7.8223 22.7509 7.62371 22.7509 7.44389C22.7509 7.05621 22.6071 6.78198 22.1658 6.78198C21.6573 6.78198 21.0045 7.38679 20.8032 8.46518L20.4003 10.5922H19.2871Z" fill="black"/>
<path d="M26.8855 6.70655C26.1847 6.70655 25.7246 7.32088 25.5903 7.87911C26.7414 7.88838 27.4809 7.73711 27.4809 7.17963C27.4809 6.88662 27.2409 6.70655 26.8855 6.70655ZM27.9507 10.3272C27.4898 10.5633 26.8667 10.6958 26.3001 10.6958C25.0059 10.6958 24.3818 9.91168 24.3818 8.78645C24.3818 7.39676 25.4175 5.88436 27.0297 5.88436C27.9507 5.88436 28.5361 6.40402 28.5361 7.17963C28.5361 8.36096 27.2795 8.73887 25.4757 8.7013C25.4561 8.86183 25.4945 9.17363 25.6003 9.35345C25.7828 9.66574 26.1176 9.82628 26.5596 9.82628C27.0879 9.82628 27.5093 9.69379 27.8462 9.52374L27.9507 10.3272Z" fill="black"/>
<path d="M31.2317 6.70655C30.5316 6.70655 30.0708 7.32088 29.9365 7.87911C31.0876 7.88838 31.8271 7.73711 31.8271 7.17963C31.8271 6.88662 31.5871 6.70655 31.2317 6.70655ZM32.2968 10.3272C31.8367 10.5633 31.2129 10.6958 30.6473 10.6958C29.3521 10.6958 28.728 9.91168 28.728 8.78645C28.728 7.39676 29.7637 5.88436 31.3759 5.88436C32.2968 5.88436 32.8833 6.40402 32.8833 7.17963C32.8833 8.36096 31.6257 8.73887 29.8219 8.7013C29.8021 8.86183 29.8407 9.17363 29.9464 9.35345C30.129 9.66574 30.4645 9.82628 30.9058 9.82628C31.4341 9.82628 31.8555 9.69379 32.1924 9.52374L32.2968 10.3272Z" fill="black"/>
<path d="M32.9492 10.5922L33.496 7.75594C33.6206 7.10379 33.6877 6.3948 33.735 5.98834H34.7045C34.6758 6.30013 34.6473 6.62145 34.599 6.95278H34.6275C34.9455 6.33795 35.4529 5.88415 36.0867 5.88415C36.1736 5.88415 36.2595 5.89392 36.3365 5.89392L36.1154 6.97156C36.0579 6.96179 35.9812 6.96179 35.9041 6.96179C35.1072 6.96179 34.599 7.75594 34.4173 8.73891L34.0619 10.5922H32.9492Z" fill="black"/>
<path d="M37.1855 6.40946H37.2674C37.3513 6.40946 37.4067 6.36338 37.4067 6.29376C37.4067 6.21537 37.3485 6.18106 37.2646 6.18106C37.226 6.18106 37.1985 6.18381 37.1855 6.18682V6.40946ZM37.1055 6.13172C37.1461 6.12446 37.2044 6.1192 37.2585 6.1192C37.3434 6.1192 37.3998 6.13623 37.4372 6.16929C37.468 6.19608 37.4858 6.23791 37.4858 6.28599C37.4858 6.36513 37.4352 6.41872 37.3701 6.44001V6.44302C37.4174 6.45905 37.4451 6.50287 37.4608 6.56598C37.4807 6.65013 37.4954 6.70948 37.5084 6.73328H37.4255C37.4156 6.71474 37.4016 6.6634 37.3859 6.58752C37.367 6.50337 37.3327 6.47232 37.2605 6.46931H37.1855V6.73328H37.1055V6.13172Z" fill="black"/>
<path d="M37.2892 5.88434C36.9842 5.88434 36.7363 6.12852 36.7363 6.42904C36.7363 6.72957 36.9842 6.974 37.2892 6.974C37.5943 6.974 37.8421 6.72957 37.8421 6.42904C37.8421 6.12852 37.5943 5.88434 37.2892 5.88434ZM37.2892 5.96849C37.547 5.96849 37.7562 6.1741 37.7562 6.42904C37.7562 6.68374 37.547 6.8901 37.2892 6.8901C37.0307 6.8901 36.8212 6.68374 36.8212 6.42904C36.8212 6.1741 37.0307 5.96849 37.2892 5.96849" fill="black"/>
<path d="M9.65271 1.55673C9.69923 2.59555 10.6103 6.55975 10.6103 6.55975C10.9451 7.36266 11.2334 6.55975 11.2334 6.55975C12.3356 3.30304 10.0831 1.41573 10.0831 1.41573C9.50806 1.08465 9.65271 1.55673 9.65271 1.55673ZM22.7314 0.990734C22.7314 0.990734 23.8342 1.74581 22.7314 1.88731C22.7314 1.88731 18.611 2.35913 15.545 5.19185C15.545 5.19185 10.9451 9.15531 9.22081 13.4979C9.22081 13.4979 8.64579 13.4979 8.83823 12.6487C9.02965 11.7992 10.1789 8.07015 15.3048 3.49262C15.3048 3.49262 20.241 -0.944411 22.7314 0.990734" fill="#FF4600"/>
</svg>
