<svg width="40" height="19" viewBox="0 0 40 19" fill="none" xmlns="http://www.w3.org/2000/svg">
<path d="M19.5996 10.6396H20.2268V12.0454H20.68L21.4932 10.6396H22.1789L21.2029 12.2895V12.301L22.2371 14.1015H21.5282L20.6916 12.591H20.2387V14.1015H19.6112V10.6393H19.5996V10.6396ZM23.6428 11.5575C24.3975 11.5575 25.0135 12.1035 25.0135 12.8586C25.0135 13.6255 24.4094 14.16 23.6544 14.16C22.8989 14.16 22.2948 13.6255 22.2948 12.8586C22.2833 12.092 22.8874 11.5575 23.6428 11.5575V11.5575ZM25.5014 11.6153H26.0939V13.5674H26.8724V11.6157H27.4646V13.5674H28.2432V11.6157H28.8357V14.1015H25.5245V11.6153H25.5014ZM30.5903 11.5575C31.2987 11.5575 31.6938 12.0804 31.6938 12.7311C31.6918 12.8128 31.6841 12.8942 31.6707 12.9748H29.9627C29.9977 13.4046 30.3346 13.6371 30.7065 13.6371C30.9618 13.6371 31.2175 13.5208 31.415 13.3699L31.6591 13.8115C31.4035 14.0318 31.02 14.1715 30.66 14.1715C29.8349 14.1715 29.3239 13.579 29.3239 12.8701C29.3239 12.092 29.8464 11.5575 30.5903 11.5575V11.5575ZM31.9841 13.579C32.2863 13.5324 32.507 13.2771 32.507 12.3938V11.6157H34.3197V14.1015H33.7036V12.1147H33.0995V12.3935C33.0995 13.4739 32.8092 14.1015 31.9841 14.1246V13.5786V13.579ZM36.0854 11.5575C36.7939 11.5575 37.1889 12.0804 37.1889 12.7311C37.187 12.8128 37.1793 12.8942 37.1658 12.9748H35.4578C35.4929 13.4046 35.8298 13.6371 36.2017 13.6371C36.457 13.6371 36.7127 13.5208 36.9102 13.3699L37.1543 13.8115C36.8986 14.0318 36.5151 14.1715 36.1551 14.1715C35.3304 14.1715 34.8191 13.579 34.8191 12.8701C34.8191 12.092 35.3419 11.5575 36.0854 11.5575V11.5575ZM37.7002 11.6153H38.3159V12.5683H38.6182L39.2223 11.6157H39.9076L39.1175 12.8004V12.8124L40.0004 14.1015H39.2804L38.6297 13.0911H38.3047V14.1015H37.6883V11.6153H37.6999H37.7002ZM23.6428 13.6255C24.0494 13.6255 24.3863 13.3118 24.3863 12.847C24.3863 12.3938 24.0494 12.0685 23.6424 12.0685C23.2362 12.0685 22.9109 12.3827 22.9109 12.847C22.9109 13.3118 23.2358 13.6255 23.6428 13.6255ZM31.0666 12.5451C31.0666 12.2198 30.8456 12.0223 30.5668 12.0223C30.2534 12.0223 30.0208 12.2314 29.9627 12.5451H31.0666ZM36.5617 12.5451C36.5617 12.2198 36.3411 12.0223 36.0623 12.0223C35.7482 12.0223 35.516 12.2314 35.4578 12.5451H36.5617Z" fill="#2D3540"/>
<path d="M28.2778 3.09969V8.96677C28.2782 8.98824 28.2744 9.00959 28.2664 9.02953C28.2584 9.04947 28.2464 9.06758 28.2313 9.08277C28.2161 9.09795 28.198 9.10991 28.178 9.1179C28.1581 9.12589 28.1367 9.12975 28.1153 9.12926H26.9186C26.8971 9.12975 26.8758 9.12589 26.8558 9.1179C26.8359 9.10991 26.8178 9.09795 26.8026 9.08277C26.7874 9.06758 26.7755 9.04947 26.7675 9.02953C26.7595 9.00959 26.7556 8.98824 26.7561 8.96677V3.09969C26.7556 3.07821 26.7595 3.05686 26.7675 3.03692C26.7755 3.01699 26.7874 2.99887 26.8026 2.98369C26.8178 2.9685 26.8359 2.95655 26.8558 2.94856C26.8758 2.94056 26.8971 2.9367 26.9186 2.93719H28.1153C28.1367 2.9367 28.1581 2.94056 28.178 2.94856C28.198 2.95655 28.2161 2.9685 28.2313 2.98369C28.2464 2.99887 28.2584 3.01699 28.2664 3.03692C28.2744 3.05686 28.2782 3.07821 28.2778 3.09969ZM37.6186 2.93719C37.6652 2.93719 37.7233 2.9603 37.7811 3.00688C37.8161 3.04155 37.8161 3.09969 37.8045 3.14627L35.8293 9.0249C35.8174 9.05532 35.7966 9.08151 35.7698 9.10015C35.7429 9.11879 35.7111 9.12904 35.6784 9.12962H34.6096C34.5399 9.12962 34.4817 9.09459 34.4586 9.0249L33.3078 5.59775L32.1577 9.02454C32.1457 9.05496 32.125 9.08115 32.0981 9.09979C32.0713 9.11842 32.0395 9.12868 32.0068 9.12926H30.9379C30.8683 9.12926 30.8101 9.09459 30.787 9.02454L28.8118 3.14591C28.8003 3.09969 28.8003 3.0531 28.8349 3.00688C28.8584 2.9603 28.9165 2.93719 28.9628 2.93719H30.2988C30.3685 2.93719 30.4266 2.98341 30.4501 3.0531L31.507 6.52684L32.669 3.0531C32.681 3.02268 32.7018 2.9965 32.7286 2.97786C32.7555 2.95922 32.7873 2.94897 32.82 2.94839H33.761C33.8307 2.94839 33.8888 2.98341 33.9119 3.0531L35.0739 6.52684L36.1312 3.0531C36.1407 3.0202 36.1605 2.99119 36.1876 2.97033C36.2148 2.94947 36.2479 2.93786 36.2822 2.93719H37.6182H37.6186ZM39.64 2.93719C39.7212 2.93719 39.7909 3.00688 39.8025 3.09969V8.96677C39.803 8.98824 39.7991 9.00959 39.7911 9.02953C39.7831 9.04947 39.7712 9.06758 39.756 9.08277C39.7408 9.09795 39.7227 9.10991 39.7027 9.1179C39.6828 9.12589 39.6615 9.12975 39.64 9.12926H38.4433C38.4218 9.12975 38.4005 9.12589 38.3806 9.1179C38.3606 9.10991 38.3425 9.09795 38.3273 9.08277C38.3121 9.06758 38.3002 9.04947 38.2922 9.02953C38.2842 9.00959 38.2803 8.98824 38.2808 8.96677V3.09969C38.2803 3.07821 38.2842 3.05686 38.2922 3.03692C38.3002 3.01699 38.3121 2.99887 38.3273 2.98369C38.3425 2.9685 38.3606 2.95655 38.3806 2.94856C38.4005 2.94056 38.4218 2.9367 38.4433 2.93719H39.64ZM26.0588 8.92055C26.1285 9.00179 26.0704 9.1177 25.9657 9.1177H24.5018C24.473 9.11848 24.4443 9.1126 24.4182 9.10051C24.392 9.08842 24.3689 9.07046 24.3508 9.04801L24.1071 8.74614C23.5958 9.07112 22.9913 9.269 22.3525 9.269C20.5637 9.269 19.1113 7.81668 19.1113 6.02745C19.1113 4.23822 20.5637 2.78589 22.3525 2.78589C24.1418 2.78589 25.5941 4.23822 25.5941 6.02745C25.5941 6.66659 25.4081 7.2707 25.0828 7.78165L26.0588 8.92019V8.92055ZM13.8249 11.7667C14.1271 11.883 14.2434 12.3358 14.2665 12.5333C14.3131 12.8937 14.2087 13.0331 14.0925 13.0331C13.9762 13.0331 13.8133 12.8937 13.6393 12.6149C13.4649 12.3358 13.3952 12.0224 13.4884 11.8595C13.5461 11.7548 13.674 11.7086 13.8253 11.7667H13.8249ZM12.0591 13.0796C12.2451 13.0796 12.4542 13.1609 12.6401 13.3234C13.0002 13.6256 13.1049 13.9741 12.9189 14.2297C12.8142 14.3576 12.6401 14.4388 12.4426 14.4388C12.2451 14.4388 12.036 14.3691 11.8967 14.2413C11.5713 13.9625 11.4785 13.4974 11.6872 13.2421C11.7688 13.1374 11.8967 13.0796 12.0591 13.0796V13.0796ZM7.99321 16.4371C3.5781 16.4371 0 12.8587 0 8.4439C0 4.02915 3.57846 0.45105 7.99285 0.45105C12.4076 0.45105 15.9861 4.02951 15.9861 8.4439C15.9861 9.94245 15.5679 11.3486 14.8594 12.5452C14.836 12.5799 14.7778 12.5683 14.7663 12.5218C14.4875 10.5585 13.2908 9.47772 11.5482 9.15273C11.3969 9.12926 11.3738 9.03646 11.5713 9.01335C12.1057 8.96677 12.8608 8.97832 13.2558 9.04801C13.2789 8.85049 13.2908 8.64142 13.2908 8.43235C13.2908 5.51614 10.9206 3.14591 8.0044 3.14591C5.08856 3.14591 2.71833 5.51614 2.71833 8.43235C2.71833 11.3486 5.08856 13.7188 8.00477 13.7188H8.24851C8.1657 13.2471 8.13062 12.7683 8.14379 12.2896C8.1557 11.9642 8.2254 11.9176 8.36478 12.1733C9.09672 13.4397 10.1425 14.5782 12.187 15.0314C13.8599 15.4033 15.5329 15.833 17.3337 18.1216C17.4962 18.3191 17.2524 18.5282 17.0665 18.3657C15.231 16.739 13.5581 16.2046 12.036 16.2046C10.3281 16.2165 9.16641 16.4371 7.99285 16.4371H7.99321ZM23.1542 7.61916L22.515 6.84064C22.4457 6.75939 22.5038 6.63156 22.6082 6.63156H23.9558C24.0255 6.4456 24.0605 6.23652 24.0605 6.02745C24.0605 5.06332 23.3401 4.22666 22.3525 4.22666C21.3653 4.22666 20.6446 5.06332 20.6446 6.02745C20.6446 6.99157 21.3653 7.81668 22.3525 7.81668C22.6313 7.82823 22.9104 7.74699 23.1542 7.61916V7.61916Z" fill="#FF8C00"/>
</svg>
