<svg width="100%" height="100%" style="overflow:visible;" preserveAspectRatio="none" viewBox="0 0 23 23" fill="none" xmlns="http://www.w3.org/2000/svg">
<g clip-path="url(#clip0_698_159)">
<path fill-rule="evenodd" clip-rule="evenodd" d="M6.89744 18.4C5.63291 18.4 4.60979 19.435 4.60979 20.7C4.60979 21.965 5.63291 23 6.89744 23C8.16197 23 9.19658 21.965 9.19658 20.7C9.19658 19.435 8.16197 18.4 6.89744 18.4ZM0 1.15C0 1.7825 0.517308 2.3 1.14957 2.3H2.29915L6.43761 11.0285L4.88569 13.8345C4.0465 15.3755 5.15009 17.25 6.89744 17.25H19.5427C20.175 17.25 20.6923 16.7325 20.6923 16.1C20.6923 15.4675 20.175 14.95 19.5427 14.95H6.89744L8.16197 12.65H16.7263C17.5885 12.65 18.3472 12.1785 18.738 11.4655L22.8535 4.002C23.2789 3.243 22.7271 2.3 21.8534 2.3H4.8397L4.06949 0.6555C3.88556 0.253 3.47171 0 3.03487 0H1.14957C0.517308 0 0 0.5175 0 1.15ZM18.3932 18.4C17.1286 18.4 16.1055 19.435 16.1055 20.7C16.1055 21.965 17.1286 23 18.3932 23C19.6577 23 20.6923 21.965 20.6923 20.7C20.6923 19.435 19.6577 18.4 18.3932 18.4Z" fill="#C1C9DB"/>
</g>
<defs>
<clipPath id="clip0_698_159">
<rect width="23" height="23" fill="white"/>
</clipPath>
</defs>
</svg>
