<svg width="100%" height="100%" style="overflow:visible;" preserveAspectRatio="none" viewBox="0 0 27 24" fill="none" xmlns="http://www.w3.org/2000/svg">
<g clip-path="url(#clip0_5010_9130)">
<path d="M26.7591 17.4871C26.6865 17.3767 26.2376 16.4902 24.0775 14.6682C21.816 12.7604 22.1198 13.0702 24.8436 9.77129C26.5026 7.76221 27.1658 6.53528 26.9582 6.01078C26.7608 5.51081 25.5406 5.6427 25.5406 5.6427L21.4836 5.66417C21.4836 5.66417 21.1832 5.62736 20.9587 5.74852C20.741 5.86815 20.601 6.1442 20.601 6.1442C20.601 6.1442 19.958 7.69933 19.1007 9.02133C17.2932 11.811 16.5692 11.9583 16.2739 11.785C15.587 11.3816 15.7592 10.1624 15.7592 9.29739C15.7592 6.59356 16.2098 5.46633 14.8799 5.17494C14.4378 5.07832 14.1137 5.0139 12.9847 5.00317C11.5367 4.98936 10.3098 5.00777 9.61621 5.31603C9.1538 5.52154 8.79772 5.9801 9.01542 6.00618C9.28375 6.03838 9.8913 6.15494 10.2136 6.55369C10.6305 7.06746 10.6153 8.22383 10.6153 8.22383C10.6153 8.22383 10.8549 11.4062 10.0567 11.8018C9.50821 12.0733 8.75721 11.5197 7.14553 8.98759C6.32028 7.69166 5.69586 6.25769 5.69586 6.25769C5.69586 6.25769 5.57604 5.99084 5.36171 5.84821C5.10182 5.67491 4.73729 5.61969 4.73729 5.61969L0.879385 5.64117C0.879385 5.64117 0.30053 5.6565 0.0878891 5.88502C-0.101125 6.08899 0.0727005 6.50921 0.0727005 6.50921C0.0727005 6.50921 3.09355 12.9306 6.51267 16.1681C9.64997 19.1358 13.2109 18.941 13.2109 18.941H14.8242C14.8242 18.941 15.3119 18.8919 15.56 18.6481C15.7895 18.4241 15.7811 18.0039 15.7811 18.0039C15.7811 18.0039 15.749 16.0363 16.7549 15.7464C17.7455 15.4611 19.018 17.6481 20.3664 18.4901C21.3857 19.1266 22.1603 18.987 22.1603 18.987L25.7668 18.941C25.7668 18.941 27.6535 18.8352 26.7591 17.4871Z" fill="#8C98B7"/>
</g>
<defs>
<clipPath id="clip0_5010_9130">
<rect width="27" height="24" fill="white"/>
</clipPath>
</defs>
</svg>
