<svg width="100%" height="100%" style="overflow:visible;" preserveAspectRatio="none" viewBox="0 0 27 24" fill="none" xmlns="http://www.w3.org/2000/svg">
<g clip-path="url(#clip0_5001_378)">
<path d="M26.7593 17.4871C26.6868 17.3767 26.2379 16.4902 24.0777 14.6683C21.8163 12.7604 22.1201 13.0702 24.8439 9.77132C26.5028 7.76224 27.1661 6.53531 26.9585 6.01081C26.761 5.51084 25.5409 5.64273 25.5409 5.64273L21.4838 5.6642C21.4838 5.6642 21.1834 5.62739 20.959 5.74855C20.7413 5.86818 20.6012 6.14423 20.6012 6.14423C20.6012 6.14423 19.9582 7.69936 19.1009 9.02136C17.2935 11.8111 16.5695 11.9583 16.2741 11.785C15.5873 11.3817 15.7594 10.1624 15.7594 9.29742C15.7594 6.59359 16.21 5.46636 14.8802 5.17497C14.438 5.07835 14.114 5.01393 12.985 5.0032C11.537 4.98939 10.3101 5.0078 9.61646 5.31606C9.15405 5.52157 8.79796 5.98013 9.01566 6.00621C9.284 6.03841 9.89154 6.15497 10.2139 6.55372C10.6307 7.06749 10.6155 8.22386 10.6155 8.22386C10.6155 8.22386 10.8552 11.4062 10.0569 11.8019C9.50845 12.0733 8.75746 11.5197 7.14578 8.98762C6.32053 7.69169 5.69611 6.25772 5.69611 6.25772C5.69611 6.25772 5.57629 5.99087 5.36196 5.84824C5.10206 5.67494 4.73754 5.61973 4.73754 5.61973L0.879629 5.6412C0.879629 5.6412 0.300774 5.65653 0.0881332 5.88505C-0.100881 6.08902 0.0729446 6.50924 0.0729446 6.50924C0.0729446 6.50924 3.09379 12.9306 6.51292 16.1682C9.65021 19.1358 13.2111 18.941 13.2111 18.941H14.8245C14.8245 18.941 15.3122 18.8919 15.5603 18.6481C15.7898 18.4242 15.7814 18.004 15.7814 18.004C15.7814 18.004 15.7493 16.0363 16.7551 15.7464C17.7457 15.4612 19.0182 17.6482 20.3666 18.4901C21.3859 19.1266 22.1606 18.987 22.1606 18.987L25.767 18.941C25.767 18.941 27.6538 18.8352 26.7593 17.4871Z" fill="#8C98B7"/>
</g>
<defs>
<clipPath id="clip0_5001_378">
<rect width="27" height="24" fill="white"/>
</clipPath>
</defs>
</svg>
